<svg width="50" height="50" xmlns="http://www.w3.org/2000/svg">

 <g>
  <title>background</title>
  <rect fill="none" id="canvas_background" height="402" width="582" y="-1" x="-1"/>
 </g>
 <g>
  <title>Layer 1</title>
  <path stroke-miterlimit="10" stroke-linecap="round" stroke-width="3" stroke="#ffffff" fill="none" id="svg_6" d="m46.3,13.9l-42.6,0c-0.3,0 -0.5,-0.2 -0.5,-0.5l0,-6.8c0,-0.6 0.4,-1 1,-1l41.7,0c0.6,0 1,0.4 1,1l0,6.8c-0.1,0.3 -0.3,0.5 -0.6,0.5z" class="st4"/>
  <path stroke-miterlimit="10" stroke-linecap="round" stroke-width="3" stroke="#ffffff" fill="none" id="svg_7" d="m42.550524,44.4l-35,0c-0.6,0 -1,-0.4 -1,-1l0,-29.5l37.1,0l0,29.5c-0.1,0.5 -0.5,1 -1.1,1z" class="st4"/>
  <path stroke-miterlimit="10" stroke-linecap="round" stroke-width="3" stroke="#ffffff" fill="none" id="svg_8" d="m32.3,26.5l-14.1,0c-1.6,0 -2.9,-1.3 -2.9,-2.9l0,0c0,-1.6 1.3,-2.9 2.9,-2.9l14.1,0c1.6,0 2.9,1.3 2.9,2.9l0,0c0,1.5 -1.3,2.9 -2.9,2.9z" class="st4"/>
 </g>
</svg>