<svg clip-rule="evenodd" fill-rule="evenodd" stroke-linejoin="round" stroke-miterlimit="2" viewBox="0 0 1240 1240" xmlns="http://www.w3.org/2000/svg"><g fill="#3858a7" fill-rule="nonzero"><path d="m0-37.112c-.977.813-1.544 1.764-2.189 2.646-2.589 3.536-4.001 7.458-3.056 11.822.801 3.698.171 6.875-2.043 9.921-1.709 2.35-2.973 4.977-3.486 7.89-.287 1.621-.344 3.239.194 4.833.441-1.546 1.124-2.927 2.048-4.217 1.895-2.649 4.179-4.946 6.395-7.31 1.428-1.524 3.152-2.897 3.782-4.962 1.16-3.802-.278-7.221-1.861-10.586.022 1.895.191 3.771.138 5.657-.054 1.903-.208 3.743-1.629 5.59.079-1.172.235-2.008.172-2.827-.162-2.09-.493-4.168-.624-6.26-.144-2.29.175-4.516 1.453-6.688 1.791 2.652 3.384 5.192 4.432 8.04 1.247 3.388 1.075 6.519-1.316 9.455-1.755 2.154-3.317 4.467-4.538 6.99-.882 1.82-1.264 3.451-.956 4.471.475-.622.918-1.289 1.446-1.881 1.93-2.164 3.805-4.374 5.716-6.552 4.265-4.861 3.799-13.635.192-17.849-1.98-2.313-3.609-4.934-4.27-8.183" transform="matrix(10.4831378 0 0 10.4831378 764.99406 1086.688418)"/><path d="m0 11.295c-2.047-2.915-2.928-5.922-2.021-9.471.868-3.394.195-6.661-1.466-9.716-.974-1.792-2.117-3.466-3.626-5.048-.701 2.712-1.963 4.951-3.497 7.059-1.342 1.843-2.712 3.644-3.245 5.967-1.085 4.733-.464 9.01 2.595 12.953 2.326 2.998 5.192 5.523 7.432 8.894-.112-2.176-.681-3.966-1.598-5.664-1.382-2.561-3.154-4.859-4.845-7.212-.911-1.27-1.426-2.688-1.391-4.27.105-4.71 2.691-8.348 5.117-12.139 1.015 1.46 1.475 3.168 1.556 5.075.144 3.456-1.077 6.828-.61 10.323-1.261-1.536-1.433-3.37-1.512-5.228-.08-1.856.147-3.709.138-5.58-1.27 2.236-2.037 4.59-2.212 7.14-.169 2.473.575 4.561 2.343 6.319 1.406 1.398 2.771 2.84 4.089 4.321 2.451 2.751 5.127 5.36 6.149 9.217.513-1.556.411-3.037.232-4.505-.386-3.159-1.848-5.902-3.628-8.435" transform="matrix(10.4831378 0 0 10.4831378 561.698172 833.435403)"/><path d="m0 1.538c-2.292-2.263-4.147-4.882-6.191-7.344-3.398-4.09-9.207-4.334-13.871-1.804.286 0 .421.002.558-.001 5.805-.137 10.058 2.504 13.114 7.305 1.031 1.618 2.281 3.046 3.758 4.282 1.803 1.506 3.825 2.566 6.12 3.167-1.46.369-2.828.097-4.165-.354-3.268-1.103-5.518-3.478-7.427-6.188-1.592-2.257-3.323-4.274-6.024-5.23-1.721-.608-3.45-.93-5.286-.466 1.885.489 3.22 1.724 4.402 3.118 1.405 1.658 2.747 3.369 4.076 5.088 1.54 1.99 2.961 4.09 5.124 5.491 4.741 3.076 10.786 1.27 14.805-2.19-.151-.073-.273-.169-.407-.192-3.394-.588-6.16-2.285-8.586-4.682" transform="matrix(10.4831378 0 0 10.4831378 959.554362 388.907804)"/><path d="m0 13.651c1.45-1.327 2.497-2.977 3.717-4.487 1.865-2.309 3.488-4.824 5.844-6.711.726-.583 1.664-.757 2.531-1.314-2.751-.501-6.105.45-8.306 2.191-1.44 1.139-2.351 2.698-3.432 4.119-1.568 2.059-3.343 3.87-5.654 5.087-1.88.989-4.351 1.358-5.799.837 4.778-1.037 7.984-3.988 10.42-7.894 1.031-1.651 2.327-3.014 3.915-4.107 2.787-1.919 5.816-3.067 9.298-2.742-.898-.627-1.884-.9-2.876-1.133-4.245-.998-8.04-.421-10.953 3.181-1.078 1.333-2.173 2.654-3.242 3.994-3.109 3.894-6.618 7.187-12.104 7.957 1.842 1.524 3.687 2.501 5.683 3.168 4.045 1.355 7.734.804 10.958-2.146" transform="matrix(10.4831378 0 0 10.4831378 369.30597 322.826175)"/><path d="m0-33.272c3.308 2.902 6.619 5.779 8.825 9.657 2.243 3.943 3.283 8.128 2.453 12.666-.316-1.843-.747-3.657-1.318-5.432-1.564-4.861-4.241-8.921-8.536-11.829-.782-.53-1.054-.299-1.216.477-.274 1.317-.354 2.643-.146 3.979.511 3.289 2.001 6.152 3.934 8.792.996 1.36 2.007 2.735 3.416 3.771-1.123-3.561-2.457-7.023-3.866-10.455 5.715 6.109 6.271 13.893 7.066 21.646.318-.909.654-1.793.935-2.692 1.573-5.034 2.913-10.068 2.446-15.47-.673-7.776-7.18-13.244-13.993-15.11" transform="matrix(10.4831378 0 0 10.4831378 834.424594 824.628731)"/><path d="m0-10.144c-1.518 3.479-2.895 6.999-4.002 10.632 2.868-2.929 5.366-6.091 6.693-10.034.705-2.094 1.026-4.22.55-6.414-.265-1.228-.392-1.288-1.407-.581-4.208 2.93-6.839 6.985-8.394 11.805-.562 1.746-.902 3.546-1.258 5.346-.599-3.086-.279-6.087.74-9.011 1.47-4.216 4.128-7.609 7.432-10.541 1.036-.919 2.071-1.84 3.106-2.76-1.532.164-2.808.838-4.081 1.501-6.572 3.416-10.183 8.687-10.06 16.242.07 4.279 1.158 8.366 2.491 12.397.343 1.038.676 2.08 1.014 3.12-.11-1.896.386-3.685.617-5.495.44-3.445 1.051-6.857 2.411-10.087.972-2.312 2.141-4.491 4.148-6.12" transform="matrix(10.4831378 0 0 10.4831378 380.853372 703.84701)"/><path d="m0 17.882c.241-1.422.688-2.815.541-4.298-.323-3.243-1.689-6.039-3.841-8.392-3.445-3.77-5.114-8.231-5.621-13.221-.022-.221.043-.536-.323-.684-.588 1.231-.937 2.508-.961 3.852-.083 4.506 1.722 8.287 4.523 11.684.628.761 1.439 1.418 1.726 2.575-3.968-2.469-4.925-3.832-7.115-10.029-1.194 2.535-.726 7.15 1.635 9.482 1.276 1.259 2.496 2.575 3.699 3.904 1.377 1.519 2.226 3.261 2.149 5.383-.023.641.067 1.297.178 1.932.498 2.853 1.913 5.09 4.487 6.525-1.428-2.799-1.59-5.702-1.077-8.713" transform="matrix(10.4831378 0 0 10.4831378 909.822338 649.928856)"/><path d="m0 4.739c1.4-1.394 2.947-2.674 3.788-4.537 1.096-2.427 1.121-4.884.201-7.401-.791 4.371-2.975 7.727-7.092 10.014.332-.986.864-1.533 1.359-2.095 2.473-2.806 4.204-5.992 4.764-9.717.322-2.143.244-4.276-.974-6.416-.085.506-.143.798-.182 1.093-.025.189-.008.384-.037.572-.69 4.486-2.169 8.592-5.271 12.065-2.977 3.331-4.851 7.114-3.842 11.802.724 3.368.88 6.701-1.028 10.033 1.531-.584 2.427-1.6 3.162-2.736.987-1.527 1.713-3.237 1.63-5.053-.146-3.207 1.4-5.514 3.522-7.624" transform="matrix(10.4831378 0 0 10.4831378 415.578512 718.360247)"/><path d="m0-.249c.286-.435.291-.719-.355-.841-2.626-.494-4.856-1.743-6.669-3.701-.33-.355-.527-.337-.815-.017-1.934 2.151-4.39 3.343-7.303 3.862.821 2.032 2.354 3.157 3.969 4.176 1.194.751 2.508 1.667 3.898 1.412 3.068-.565 5.531-2.249 7.275-4.891" transform="matrix(10.4831378 0 0 10.4831378 703.58826 738.208826)"/><path d="m0 2.629c1.399-2.354 2.162-4.853 1.698-7.63-.228-1.369-.879-2.448-2.146-3.232.913 4.664-1.078 8.4-3.494 12.089-2.371-3.43-3.918-7.022-3.219-11.266.043-.263.28-.629-.137-.785-.29-.109-.467.159-.653.357-1.396 1.49-1.859 3.294-1.706 5.269.201 2.614 1.252 4.914 2.676 7.085 1.277 1.948 2.91 3.735 2.979 6.417.754-.668 1.024-1.399 1.024-2.14.002-1.546.692-2.769 1.546-3.963.51-.711.985-1.45 1.432-2.201" transform="matrix(10.4831378 0 0 10.4831378 667.093888 905.527684)"/><path d="m0 14.956c1.054-1.995 1.62-4.12 1.872-6.325.348-3.04 1.886-5.336 4.322-7.08.652-.466 1.367-.843 2.051-1.261-2.863-.106-5.549.17-7.32 2.754-2.334-2.292-4.26-3.044-6.667-2.561 4.822 3.699 6.931 8.433 5.742 14.473" transform="matrix(10.4831378 0 0 10.4831378 618.412346 143.01606)"/><path d="m0 15.091c1.167-3.998 2.259-7.942 5.662-10.572 3.295-2.547 7.325-3.088 11.257-3.907-.898-.259-1.801-.298-2.702-.269-3.382.109-6.596.907-9.734 2.335.528-.83 1.055-1.66 1.701-2.678-5.55 2.706-8.061 9.732-6.184 15.091" transform="matrix(10.4831378 0 0 10.4831378 652.659635 164.460108)"/><path d="m0-15.05c.676 1.03 1.239 1.889 1.803 2.747-2.035-.842-4.032-1.518-6.127-1.92-2.725-.522-5.064-.558-6.545.116 9.296.594 15.486 4.603 17.084 14.107 1.904-5.636-.731-12.357-6.215-15.05" transform="matrix(10.4831378 0 0 10.4831378 532.881006 321.321537)"/><path d="m0-2.05c.91 1.077 1.757 2.208 2.648 3.301 1.596 1.957 4.947 3.153 7.213 2.599-3.786-1.359-5.986-4.484-8.503-7.46 1.543-.571 2.909-.27 4.393-.071-2.493-2.365-5.198-2.773-9.531-1.473.786.52 1.484.906 2.09 1.405.614.506 1.175 1.09 1.69 1.699" transform="matrix(10.4831378 0 0 10.4831378 911.635012 341.241201)"/><path d="m0 4.651c1.892-2.3 3.465-4.894 6.422-6.267-4.445-1.429-7.535-.776-9.443 1.386 1.398-.131 2.745-.473 4.212.099-2.387 3.042-4.705 6.008-8.522 7.549 3 .278 5.601-.663 7.331-2.767" transform="matrix(10.4831378 0 0 10.4831378 312.836645 304.584912)"/><path d="m0-10.127c-.246-.32-.493-.774-.994-.615-.931.296-1.896.366-3.042.467 3.454 2.991 4.514 6.975 5.429 11.049.546-1.473.689-2.964.582-4.463-.165-2.289-.518-4.541-1.975-6.438" transform="matrix(10.4831378 0 0 10.4831378 994.457215 629.116677)"/><path d="m1.861-8.659c.179.942.226 1.791.515 2.546.287.748.002 1.154-.515 1.543-3.253 2.446-6.953 2.418-10.751 1.959 4.022-1.205 8.018-2.408 10.751-6.048" transform="matrix(-.54869512 -10.46876279 -10.46876279 .54869512 209.45896 545.950896)"/><path d="m0 7.735c.412-1.157.623-2.36.642-3.586.028-1.947.482-3.792 1.447-5.634-2.393.774-3.589 2.373-3.68 4.571-.083 2.023.765 3.933.489 6.134.731-.432.917-.967 1.102-1.485" transform="matrix(10.4831378 0 0 10.4831378 631.547319 814.23449)"/><path d="m0-12.128c1.142.634 2.15.87 3.401.129-1.198 1.509-.894 3.1-.656 4.724.129.877.13 1.809-.326 2.872-.434-1.267-.482-2.434-.922-3.497-.271-.658-.578-.949-1.351-.831-.818.126-1.674.124-2.501.045-1.552-.146-2.831-.851-3.312-2.401-.343-1.103-.742-2.043-1.948-2.486 2.698-.13 5.281.147 7.615 1.445m14.817-.716c1.417-.472 2.911-.572 4.36-.886.608.001 1.218.001 1.826.001-1.054.763-1.669 1.76-2.141 3.008-.671 1.775-2.384 2.057-4.089 2.103-.302.008-.607-.039-.911-.056-1.842-.101-1.844-.1-2.235 1.819-.454.673-.354 1.516-.718 2.491-.373-1.267-.516-2.29-.275-3.368.272-1.221.537-2.449-.369-3.565-.154-.188-.178-.481-.36-1.013 2.038 1.782 3.361-.058 4.912-.534m-26.698 1.466c-.47 2.45-.18 4.735 1.815 6.505 1.32 1.171 2.751 2.183 4.499 2.627.262.066.543.348.887-.011-.421-1.132-.852-2.291-1.284-3.449 1.744 1.392 2.686 3.205 3.096 5.447-1.379-.265-2.607-.176-3.646.691-1.31 1.092-1.271 2.172-.006 3.321 1.249 1.133 2.63 2.047 4.139 2.821-1.67-.028-3.181-.726-4.81-1.138.101 2.82 2.464 2.216 4.114 2.813-.71.44-1.296.769-1.954.967-.37.111-.518.323-.181.653 1.376 1.341 2.82 2.48 4.946 2.004 1.399-.314 2.698-.814 3.815-1.735 2.785-2.295 2.539-4.228-.716-5.857-1.646-.823-2.175-2.397-2.811-4.287 2.953 2.006 5.817 3.024 9.085 2.05.413-.083.844-.104 1.198-.372.395-.093.776-.214 1.071-.515.583-.323 1.166-.646 1.861-1.031-.487 1.941-1.233 3.545-3.094 4.365-.609.268-1.088.702-1.536 1.175-.903.953-.987 2.067-.132 3.078.562.666 1.174 1.354 1.905 1.801 3.009 1.843 5.574 2.093 7.952-.441.631-.672.325-.814-.271-1.045-.531-.205-1.154-.282-1.49-.871.93-.199 1.788-.366 2.638-.569.693-.167 1.123-.604 1.227-1.336.035-.252.28-.528.045-.748-.241-.226-.489.054-.726.126-1.306.396-2.582.922-3.991.906 1.679-.799 3.173-1.833 4.476-3.129.785-.783.815-1.706.103-2.546-.887-1.046-2.049-1.408-3.387-1.234-.345.044-.705.217-.675-.393.065-1.315 1.878-4.343 3.014-4.98-.308 1.211-1.02 2.287-1.139 3.566 2.082-.227 4.86-1.921 6.132-3.708.532-.748 1.016-1.486 1.08-2.468.285-4.336-1.445-7.906-4.127-11.131-3.579-5.31-8.494-5.002-14.591.948-.249-.284-.502-.561-.743-.849-1.683-2.011-3.781-3.334-6.404-3.654-1.585-.193-3.398-.505-4.642.599-3.341 2.964-5.877 6.522-6.742 11.034" transform="matrix(10.4831378 0 0 10.4831378 555.584841 588.128138)"/><path d="m0 1.236c.253-.176.734-.357.367-.752-.271-.292-.641-.742-1.152-.35-.165.127-.237.374-.353.567-.094-.06-.19-.119-.285-.178-.004-.533-.074-1.005-.747-1.053-.229-.016-.503-.102-.613.133-.234.498-.039.957.257 1.374.548.775 1.614.891 2.526.259" transform="matrix(10.4831378 0 0 10.4831378 549.044999 467.595215)"/><path d="m0 1.635c.831.458 1.84.1 2.387-.866.151-.269.506-.642.003-.838-.371-.144-.901-.389-1.19.187-.093.187-.051.441-.071.663-.111-.011-.223-.024-.334-.036-.235-.477-.504-.872-1.131-.622-.213.085-.497.126-.493.387.007.55.38.878.829 1.125" transform="matrix(10.4831378 0 0 10.4831378 705.124491 468.029625)"/><path d="m0-2.916c-.732 5.465-1.84 10.836-3.664 16.04-2.23 6.359-5.07 12.411-8.816 18.051-1.65 2.484-3.627 4.583-5.877 6.397-.847.683-1.733 1.326-2.654 1.933-5.643 3.72-11.678 6.793-17.377 10.426-4.858 3.097-9.763 6.122-14.243 9.768-.62.505-1.155.551-1.834.025-.521-.405-.999-.88-1.544-1.259h.001-.001c-.005-.004-.01-.006-.014-.01l-1.975-1.278c-2.455-2.073-5.2-3.727-7.912-5.417-2.487-1.551-4.972-3.109-7.464-4.653-2.493-1.544-5.032-3.015-7.463-4.658-.174-.117-.354-.232-.539-.277l-1.332-.685c-2.26-1.488-4.399-3.147-6.624-4.686-1.689-1.169-3.241-2.48-4.476-4.197-2.121-2.952-3.95-6.063-5.628-9.276l-1.555-3.109c-.961-2.453-1.973-4.887-2.805-7.389-.515-1.55-1.283-4.306-1.776-6.127l-1.261-5.668c-.031-.259-.063-.517-.093-.776-.037-.326-.07-.653-.092-.98-.311-4.877-.353-9.737.533-14.57.974-5.312 2.692-10.229 6.948-13.915.803-.695 1.581-1.102 2.648-1.065.982.033 1.974.083 2.951-.104 1.856-.13 4.247-.418 6.127-1.062 1.237-.305 2.45-.681 3.605-1.234-.109.267-.091.557.046.869.26.598.554 1.162.988 1.664 2.931 3.389 6.597 5.07 11.104 4.929 2.348-.074 4.629.381 6.862 1.104 1.446.468 2.647 1.332 3.828 2.243.334.258.716.539 1.134.209.393-.311.263-.76.161-1.17-.055-.223-.166-.428-.27-.631-1.609-3.159-4.235-4.906-7.666-5.571-1.858-.361-3.73-.195-5.597-.243-1.116-.029-2.215-.166-3.237-.346.443.028.913.027 1.381.038 2.44.056 4.886-.145 7.319.228 2.256.348 4.365.989 6.189 2.472.997.812 1.729 1.82 2.546 2.772.25.291.558.638.967.406.43-.244.394-.702.24-1.126-.235-.647-.555-1.259-.855-1.874-1.463-2.99-3.617-5.222-7.008-5.87-2.929-.56-5.887-.782-8.877-.44-1.593.182-3.21.162-4.804-.012-.638-.069-1.355.015-1.94-.37.089-.389.368-.467.601-.573 1.992-.898 3.783-2.129 5.586-3.345 2.785-1.879 5.249-4.194 8.118-5.958 7.162-4.402 14.733-5.026 22.652-2.451.123.04.246.085.369.13 1.182.456 3.329 1.57 3.478 1.648 1.36.794 2.649 1.695 3.913 2.643 3.784 2.836 7.452 5.852 11.808 7.825.093.042.211.112.095.263-1.878.409-3.807.43-5.689.199-2.65-.324-5.259-.038-7.877.165-1.407.111-2.785.476-4.028 1.203-2.641 1.546-4.125 3.998-5.227 6.738-.223.55-.654 1.275.029 1.643.729.392 1.019-.438 1.331-.92 1.784-2.756 4.331-4.319 7.517-4.963 2.761-.557 5.548-.408 8.332-.434.564-.006 1.131.009 1.692-.047-2.177.373-4.381.381-6.59.368-2.215-.014-4.341.454-6.243 1.609-1.818 1.102-3.379 2.491-4.07 4.611-.158.483-.258 1.016.225 1.366.504.366.862-.107 1.2-.365 1.381-1.05 2.856-1.863 4.545-2.349 2.418-.694 4.876-.749 7.36-.876 4.328-.219 7.837-2.112 10.25-5.78.527-.802 1.052-.974 1.901-.681.877.304 1.774.535 2.68.727v.001s2.816.958 9.068.837c.039.002.072.005.108.008.612.087 4.748 5.326 5.24 6.756 1.045 3.036 1.845 6.135 2.59 9.255.882 3.703 1.242 7.411.731 11.221m2.651-20.439c-.647-1.367-10.525-9.797-12.699-9.768-6.593.089-12.702-1.718-18.232-5.392-2.766-1.837-5.294-3.989-8.009-5.89-1.709-1.199-3.392-2.449-5.401-3.13-.541-.235-1.082-.471-1.623-.706-.013-.002-.026 0-.04-.001-.734-.296-1.687-.655-1.916-.624-.549-.183-1.097-.371-1.661-.478-8.753-1.649-16.9-.417-24.15 5.099-2.395 1.822-4.801 3.634-7.256 5.373-3.425 2.426-7.25 3.995-11.295 5.057-3.143.547-6.308.838-9.5.762-.529-.012-.843.265-1.168.599-1.222 1.258-8.926 6.851-9.237 7.63-.508 1.271-.987 2.557-1.406 3.861-.257.8-1.285 5.685-1.299 6.36-.042 2.022-.404 4.058-.449 6.094-.049 2.239-.107 6.299.153 7.341.284 1.143.391 2.33.864 3.424.271 1.134.508 2.276.819 3.399.709 2.575 1.625 5.082 2.659 7.544 1.514 3.608 3.057 7.204 5.107 10.554.151.307.297.616.455.919 1.946 3.725 4.253 7.228 6.66 10.664.725 1.034 3.505 3.022 4.316 3.704 1.47 1.236 7.316 5.067 7.577 5.217 9.586 5.502 19.153 11.031 27.937 17.792.684.606 1.381 1.199 2.045 1.826.374.354.641.385 1.049.009 3.524-3.242 7.476-5.909 11.494-8.484 5.011-3.21 10.033-6.396 15.323-9.142 3.044-1.58 6.099-3.16 8.827-5.276 2.002-1.553 4.776-3.812 5.53-4.946 2.53-3.807 5.092-7.588 7.324-11.596 4.353-7.811 7.889-15.911 9.673-24.713.171-.842.441-5.549.431-6.98-.012-1.909-.384-3.786-.498-5.689" transform="matrix(10.4831378 0 0 10.4831378 1181.790517 545.927201)"/></g></svg>