<?xml version="1.0" encoding="UTF-8" standalone="no"?>
<!DOCTYPE svg PUBLIC "-//W3C//DTD SVG 1.1//EN" "http://www.w3.org/Graphics/SVG/1.1/DTD/svg11.dtd">
<svg width="100%" height="100%" viewBox="0 0 1240 1240" version="1.1" xmlns="http://www.w3.org/2000/svg" xmlns:xlink="http://www.w3.org/1999/xlink" xml:space="preserve" xmlns:serif="http://www.serif.com/" style="fill-rule:evenodd;clip-rule:evenodd;stroke-linejoin:round;stroke-miterlimit:2;">
    <g id="Imperial-Plus---Medical-Equipment" serif:id="Imperial Plus - Medical Equipment" transform="matrix(3.94918,0,0,3.94918,-1827.69,-2093.76)">
        <g transform="matrix(2.65451,0,0,2.65451,656.512,805.344)">
            <path d="M0,-37.112C-0.977,-36.299 -1.544,-35.348 -2.189,-34.466C-4.778,-30.93 -6.19,-27.008 -5.245,-22.644C-4.444,-18.946 -5.074,-15.769 -7.288,-12.723C-8.997,-10.373 -10.261,-7.746 -10.774,-4.833C-11.061,-3.212 -11.118,-1.594 -10.58,0C-10.139,-1.546 -9.456,-2.927 -8.532,-4.217C-6.637,-6.866 -4.353,-9.163 -2.137,-11.527C-0.709,-13.051 1.015,-14.424 1.645,-16.489C2.805,-20.291 1.367,-23.71 -0.216,-27.075C-0.194,-25.18 -0.025,-23.304 -0.078,-21.418C-0.132,-19.515 -0.286,-17.675 -1.707,-15.828C-1.628,-17 -1.472,-17.836 -1.535,-18.655C-1.697,-20.745 -2.028,-22.823 -2.159,-24.915C-2.303,-27.205 -1.984,-29.431 -0.706,-31.603C1.085,-28.951 2.678,-26.411 3.726,-23.563C4.973,-20.175 4.801,-17.044 2.41,-14.108C0.655,-11.954 -0.907,-9.641 -2.128,-7.118C-3.01,-5.298 -3.392,-3.667 -3.084,-2.647C-2.609,-3.269 -2.166,-3.936 -1.638,-4.528C0.292,-6.692 2.167,-8.902 4.078,-11.08C8.343,-15.941 7.877,-24.715 4.27,-28.929C2.29,-31.242 0.661,-33.863 0,-37.112" style="fill:rgb(56,88,167);fill-rule:nonzero;"/>
        </g>
        <g transform="matrix(2.65451,0,0,2.65451,605.034,741.216)">
            <path d="M0,11.295C-2.047,8.38 -2.928,5.373 -2.021,1.824C-1.153,-1.57 -1.826,-4.837 -3.487,-7.892C-4.461,-9.684 -5.604,-11.358 -7.113,-12.94C-7.814,-10.228 -9.076,-7.989 -10.61,-5.881C-11.952,-4.038 -13.322,-2.237 -13.855,0.086C-14.94,4.819 -14.319,9.096 -11.26,13.039C-8.934,16.037 -6.068,18.562 -3.828,21.933C-3.94,19.757 -4.509,17.967 -5.426,16.269C-6.808,13.708 -8.58,11.41 -10.271,9.057C-11.182,7.787 -11.697,6.369 -11.662,4.787C-11.557,0.077 -8.971,-3.561 -6.545,-7.352C-5.53,-5.892 -5.07,-4.184 -4.989,-2.277C-4.845,1.179 -6.066,4.551 -5.599,8.046C-6.86,6.51 -7.032,4.676 -7.111,2.818C-7.191,0.962 -6.964,-0.891 -6.973,-2.762C-8.243,-0.526 -9.01,1.828 -9.185,4.378C-9.354,6.851 -8.61,8.939 -6.842,10.697C-5.436,12.095 -4.071,13.537 -2.753,15.018C-0.302,17.769 2.374,20.378 3.396,24.235C3.909,22.679 3.807,21.198 3.628,19.73C3.242,16.571 1.78,13.828 0,11.295" style="fill:rgb(56,88,167);fill-rule:nonzero;"/>
        </g>
        <g transform="matrix(2.65451,0,0,2.65451,705.778,628.654)">
            <path d="M0,1.538C-2.292,-0.725 -4.147,-3.344 -6.191,-5.806C-9.589,-9.896 -15.398,-10.14 -20.062,-7.61C-19.776,-7.61 -19.641,-7.608 -19.504,-7.611C-13.699,-7.748 -9.446,-5.107 -6.39,-0.306C-5.359,1.312 -4.109,2.74 -2.632,3.976C-0.829,5.482 1.193,6.542 3.488,7.143C2.028,7.512 0.66,7.24 -0.677,6.789C-3.945,5.686 -6.195,3.311 -8.104,0.601C-9.696,-1.656 -11.427,-3.673 -14.128,-4.629C-15.849,-5.237 -17.578,-5.559 -19.414,-5.095C-17.529,-4.606 -16.194,-3.371 -15.012,-1.977C-13.607,-0.319 -12.265,1.392 -10.936,3.111C-9.396,5.101 -7.975,7.201 -5.812,8.602C-1.071,11.678 4.974,9.872 8.993,6.412C8.842,6.339 8.72,6.243 8.586,6.22C5.192,5.632 2.426,3.935 0,1.538" style="fill:rgb(56,88,167);fill-rule:nonzero;"/>
        </g>
        <g transform="matrix(2.65451,0,0,2.65451,556.317,611.921)">
            <path d="M0,13.651C1.45,12.324 2.497,10.674 3.717,9.164C5.582,6.855 7.205,4.34 9.561,2.453C10.287,1.87 11.225,1.696 12.092,1.139C9.341,0.638 5.987,1.589 3.786,3.33C2.346,4.469 1.435,6.028 0.354,7.449C-1.214,9.508 -2.989,11.319 -5.3,12.536C-7.18,13.525 -9.651,13.894 -11.099,13.373C-6.321,12.336 -3.115,9.385 -0.679,5.479C0.352,3.828 1.648,2.465 3.236,1.372C6.023,-0.547 9.052,-1.695 12.534,-1.37C11.636,-1.997 10.65,-2.27 9.658,-2.503C5.413,-3.501 1.618,-2.924 -1.295,0.678C-2.373,2.011 -3.468,3.332 -4.537,4.672C-7.646,8.566 -11.155,11.859 -16.641,12.629C-14.799,14.153 -12.954,15.13 -10.958,15.797C-6.913,17.152 -3.224,16.601 0,13.651" style="fill:rgb(56,88,167);fill-rule:nonzero;"/>
        </g>
        <g transform="matrix(2.65451,0,0,2.65451,674.093,738.986)">
            <path d="M0,-33.272C3.308,-30.37 6.619,-27.493 8.825,-23.615C11.068,-19.672 12.108,-15.487 11.278,-10.949C10.962,-12.792 10.531,-14.606 9.96,-16.381C8.396,-21.242 5.719,-25.302 1.424,-28.21C0.642,-28.74 0.37,-28.509 0.208,-27.733C-0.066,-26.416 -0.146,-25.09 0.062,-23.754C0.573,-20.465 2.063,-17.602 3.996,-14.962C4.992,-13.602 6.003,-12.227 7.412,-11.191C6.289,-14.752 4.955,-18.214 3.546,-21.646C9.261,-15.537 9.817,-7.753 10.612,0C10.93,-0.909 11.266,-1.793 11.547,-2.692C13.12,-7.726 14.46,-12.76 13.993,-18.162C13.32,-25.938 6.813,-31.406 0,-33.272" style="fill:rgb(56,88,167);fill-rule:nonzero;"/>
        </g>
        <g transform="matrix(2.65451,0,0,2.65451,559.241,708.402)">
            <path d="M0,-10.144C-1.518,-6.665 -2.895,-3.145 -4.002,0.488C-1.134,-2.441 1.364,-5.603 2.691,-9.546C3.396,-11.64 3.717,-13.766 3.241,-15.96C2.976,-17.188 2.849,-17.248 1.834,-16.541C-2.374,-13.611 -5.005,-9.556 -6.56,-4.736C-7.122,-2.99 -7.462,-1.19 -7.818,0.61C-8.417,-2.476 -8.097,-5.477 -7.078,-8.401C-5.608,-12.617 -2.95,-16.01 0.354,-18.942C1.39,-19.861 2.425,-20.782 3.46,-21.702C1.928,-21.538 0.652,-20.864 -0.621,-20.201C-7.193,-16.785 -10.804,-11.514 -10.681,-3.959C-10.611,0.32 -9.523,4.407 -8.19,8.438C-7.847,9.476 -7.514,10.518 -7.176,11.558C-7.286,9.662 -6.79,7.873 -6.559,6.063C-6.119,2.618 -5.508,-0.794 -4.148,-4.024C-3.176,-6.336 -2.007,-8.515 0,-10.144" style="fill:rgb(56,88,167);fill-rule:nonzero;"/>
        </g>
        <g transform="matrix(2.65451,0,0,2.65451,693.185,694.749)">
            <path d="M0,17.882C0.241,16.46 0.688,15.067 0.541,13.584C0.218,10.341 -1.148,7.545 -3.3,5.192C-6.745,1.422 -8.414,-3.039 -8.921,-8.029C-8.943,-8.25 -8.878,-8.565 -9.244,-8.713C-9.832,-7.482 -10.181,-6.205 -10.205,-4.861C-10.288,-0.355 -8.483,3.426 -5.682,6.823C-5.054,7.584 -4.243,8.241 -3.956,9.398C-7.924,6.929 -8.881,5.566 -11.071,-0.631C-12.265,1.904 -11.797,6.519 -9.436,8.851C-8.16,10.11 -6.94,11.426 -5.737,12.755C-4.36,14.274 -3.511,16.016 -3.588,18.138C-3.611,18.779 -3.521,19.435 -3.41,20.07C-2.912,22.923 -1.497,25.16 1.077,26.595C-0.351,23.796 -0.513,20.893 0,17.882" style="fill:rgb(56,88,167);fill-rule:nonzero;"/>
        </g>
        <g transform="matrix(2.65451,0,0,2.65451,568.034,712.077)">
            <path d="M0,4.739C1.4,3.345 2.947,2.065 3.788,0.202C4.884,-2.225 4.909,-4.682 3.989,-7.199C3.198,-2.828 1.014,0.528 -3.103,2.815C-2.771,1.829 -2.239,1.282 -1.744,0.72C0.729,-2.086 2.46,-5.272 3.02,-8.997C3.342,-11.14 3.264,-13.273 2.046,-15.413C1.961,-14.907 1.903,-14.615 1.864,-14.32C1.839,-14.131 1.856,-13.936 1.827,-13.748C1.137,-9.262 -0.342,-5.156 -3.444,-1.683C-6.421,1.648 -8.295,5.431 -7.286,10.119C-6.562,13.487 -6.406,16.82 -8.314,20.152C-6.783,19.568 -5.887,18.552 -5.152,17.416C-4.165,15.889 -3.439,14.179 -3.522,12.363C-3.668,9.156 -2.122,6.849 0,4.739" style="fill:rgb(56,88,167);fill-rule:nonzero;"/>
        </g>
        <g transform="matrix(2.65451,0,0,2.65451,640.963,717.103)">
            <path d="M0,-0.249C0.286,-0.684 0.291,-0.968 -0.355,-1.09C-2.981,-1.584 -5.211,-2.833 -7.024,-4.791C-7.354,-5.146 -7.551,-5.128 -7.839,-4.808C-9.773,-2.657 -12.229,-1.465 -15.142,-0.946C-14.321,1.086 -12.788,2.211 -11.173,3.23C-9.979,3.981 -8.665,4.897 -7.275,4.642C-4.207,4.077 -1.744,2.393 0,-0.249" style="fill:rgb(56,88,167);fill-rule:nonzero;"/>
        </g>
        <g transform="matrix(2.65451,0,0,2.65451,631.722,759.471)">
            <path d="M0,2.629C1.399,0.275 2.162,-2.224 1.698,-5.001C1.47,-6.37 0.819,-7.449 -0.448,-8.233C0.465,-3.569 -1.526,0.167 -3.942,3.856C-6.313,0.426 -7.86,-3.166 -7.161,-7.41C-7.118,-7.673 -6.881,-8.039 -7.298,-8.195C-7.588,-8.304 -7.765,-8.036 -7.951,-7.838C-9.347,-6.348 -9.81,-4.544 -9.657,-2.569C-9.456,0.045 -8.405,2.345 -6.981,4.516C-5.704,6.464 -4.071,8.251 -4.002,10.933C-3.248,10.265 -2.978,9.534 -2.978,8.793C-2.976,7.247 -2.286,6.024 -1.432,4.83C-0.922,4.119 -0.447,3.38 0,2.629" style="fill:rgb(56,88,167);fill-rule:nonzero;"/>
        </g>
        <g transform="matrix(2.65451,0,0,2.65451,619.395,566.39)">
            <path d="M0,14.956C1.054,12.961 1.62,10.836 1.872,8.631C2.22,5.591 3.758,3.295 6.194,1.551C6.846,1.085 7.561,0.708 8.245,0.29C5.382,0.184 2.696,0.46 0.925,3.044C-1.409,0.752 -3.335,0 -5.742,0.483C-0.92,4.182 1.189,8.916 0,14.956" style="fill:rgb(56,88,167);fill-rule:nonzero;"/>
        </g>
        <g transform="matrix(2.65451,0,0,2.65451,628.067,571.82)">
            <path d="M0,15.091C1.167,11.093 2.259,7.149 5.662,4.519C8.957,1.972 12.987,1.431 16.919,0.612C16.021,0.353 15.118,0.314 14.217,0.343C10.835,0.452 7.621,1.25 4.483,2.678C5.011,1.848 5.538,1.018 6.184,0C0.634,2.706 -1.877,9.732 0,15.091" style="fill:rgb(56,88,167);fill-rule:nonzero;"/>
        </g>
        <g transform="matrix(2.65451,0,0,2.65451,597.737,611.54)">
            <path d="M0,-15.05C0.676,-14.02 1.239,-13.161 1.803,-12.303C-0.232,-13.145 -2.229,-13.821 -4.324,-14.223C-7.049,-14.745 -9.388,-14.781 -10.869,-14.107C-1.573,-13.513 4.617,-9.504 6.215,0C8.119,-5.636 5.484,-12.357 0,-15.05" style="fill:rgb(56,88,167);fill-rule:nonzero;"/>
        </g>
        <g transform="matrix(2.65451,0,0,2.65451,693.644,616.584)">
            <path d="M0,-2.05C0.91,-0.973 1.757,0.158 2.648,1.251C4.244,3.208 7.595,4.404 9.861,3.85C6.075,2.491 3.875,-0.634 1.358,-3.61C2.901,-4.181 4.267,-3.88 5.751,-3.681C3.258,-6.046 0.553,-6.454 -3.78,-5.154C-2.994,-4.634 -2.296,-4.248 -1.69,-3.749C-1.076,-3.243 -0.515,-2.659 0,-2.05" style="fill:rgb(56,88,167);fill-rule:nonzero;"/>
        </g>
        <g transform="matrix(2.65451,0,0,2.65451,542.018,607.302)">
            <path d="M0,4.651C1.892,2.351 3.465,-0.243 6.422,-1.616C1.977,-3.045 -1.113,-2.392 -3.021,-0.23C-1.623,-0.361 -0.276,-0.703 1.191,-0.131C-1.196,2.911 -3.514,5.877 -7.331,7.418C-4.331,7.696 -1.73,6.755 0,4.651" style="fill:rgb(56,88,167);fill-rule:nonzero;"/>
        </g>
        <g transform="matrix(2.65451,0,0,2.65451,714.616,689.479)">
            <path d="M0,-10.127C-0.246,-10.447 -0.493,-10.901 -0.994,-10.742C-1.925,-10.446 -2.89,-10.376 -4.036,-10.275C-0.582,-7.284 0.478,-3.3 1.393,0.774C1.939,-0.699 2.082,-2.19 1.975,-3.689C1.81,-5.978 1.457,-8.23 0,-10.127" style="fill:rgb(56,88,167);fill-rule:nonzero;"/>
        </g>
        <g transform="matrix(-0.138939,-2.65087,-2.65087,0.138939,515.841,668.42)">
            <path d="M1.861,-8.659C2.04,-7.717 2.087,-6.868 2.376,-6.113C2.663,-5.365 2.378,-4.959 1.861,-4.57C-1.392,-2.124 -5.092,-2.152 -8.89,-2.611C-4.868,-3.816 -0.872,-5.019 1.861,-8.659" style="fill:rgb(56,88,167);fill-rule:nonzero;"/>
        </g>
        <g transform="matrix(2.65451,0,0,2.65451,622.721,736.354)">
            <path d="M0,7.735C0.412,6.578 0.623,5.375 0.642,4.149C0.67,2.202 1.124,0.357 2.089,-1.485C-0.304,-0.711 -1.5,0.888 -1.591,3.086C-1.674,5.109 -0.826,7.019 -1.102,9.22C-0.371,8.788 -0.185,8.253 0,7.735" style="fill:rgb(56,88,167);fill-rule:nonzero;"/>
        </g>
        <g transform="matrix(2.65451,0,0,2.65451,603.486,679.1)">
            <path d="M0,-12.128C1.142,-11.494 2.15,-11.258 3.401,-11.999C2.203,-10.49 2.507,-8.899 2.745,-7.275C2.874,-6.398 2.875,-5.466 2.419,-4.403C1.985,-5.67 1.937,-6.837 1.497,-7.9C1.226,-8.558 0.919,-8.849 0.146,-8.731C-0.672,-8.605 -1.528,-8.607 -2.355,-8.686C-3.907,-8.832 -5.186,-9.537 -5.667,-11.087C-6.01,-12.19 -6.409,-13.13 -7.615,-13.573C-4.917,-13.703 -2.334,-13.426 0,-12.128M14.817,-12.844C16.234,-13.316 17.728,-13.416 19.177,-13.73C19.785,-13.729 20.395,-13.729 21.003,-13.729C19.949,-12.966 19.334,-11.969 18.862,-10.721C18.191,-8.946 16.478,-8.664 14.773,-8.618C14.471,-8.61 14.166,-8.657 13.862,-8.674C12.02,-8.775 12.018,-8.774 11.627,-6.855C11.173,-6.182 11.273,-5.339 10.909,-4.364C10.536,-5.631 10.393,-6.654 10.634,-7.732C10.906,-8.953 11.171,-10.181 10.265,-11.297C10.111,-11.485 10.087,-11.778 9.905,-12.31C11.943,-10.528 13.266,-12.368 14.817,-12.844M-11.881,-11.378C-12.351,-8.928 -12.061,-6.643 -10.066,-4.873C-8.746,-3.702 -7.315,-2.69 -5.567,-2.246C-5.305,-2.18 -5.024,-1.898 -4.68,-2.257C-5.101,-3.389 -5.532,-4.548 -5.964,-5.706C-4.22,-4.314 -3.278,-2.501 -2.868,-0.259C-4.247,-0.524 -5.475,-0.435 -6.514,0.432C-7.824,1.524 -7.785,2.604 -6.52,3.753C-5.271,4.886 -3.89,5.8 -2.381,6.574C-4.051,6.546 -5.562,5.848 -7.191,5.436C-7.09,8.256 -4.727,7.652 -3.077,8.249C-3.787,8.689 -4.373,9.018 -5.031,9.216C-5.401,9.327 -5.549,9.539 -5.212,9.869C-3.836,11.21 -2.392,12.349 -0.266,11.873C1.133,11.559 2.432,11.059 3.549,10.138C6.334,7.843 6.088,5.91 2.833,4.281C1.187,3.458 0.658,1.884 0.022,-0.006C2.975,2 5.839,3.018 9.107,2.044C9.52,1.961 9.951,1.94 10.305,1.672C10.7,1.579 11.081,1.458 11.376,1.157C11.959,0.834 12.542,0.511 13.237,0.126C12.75,2.067 12.004,3.671 10.143,4.491C9.534,4.759 9.055,5.193 8.607,5.666C7.704,6.619 7.62,7.733 8.475,8.744C9.037,9.41 9.649,10.098 10.38,10.545C13.389,12.388 15.954,12.638 18.332,10.104C18.963,9.432 18.657,9.29 18.061,9.059C17.53,8.854 16.907,8.777 16.571,8.188C17.501,7.989 18.359,7.822 19.209,7.619C19.902,7.452 20.332,7.015 20.436,6.283C20.471,6.031 20.716,5.755 20.481,5.535C20.24,5.309 19.992,5.589 19.755,5.661C18.449,6.057 17.173,6.583 15.764,6.567C17.443,5.768 18.937,4.734 20.24,3.438C21.025,2.655 21.055,1.732 20.343,0.892C19.456,-0.154 18.294,-0.516 16.956,-0.342C16.611,-0.298 16.251,-0.125 16.281,-0.735C16.346,-2.05 18.159,-5.078 19.295,-5.715C18.987,-4.504 18.275,-3.428 18.156,-2.149C20.238,-2.376 23.016,-4.07 24.288,-5.857C24.82,-6.605 25.304,-7.343 25.368,-8.325C25.653,-12.661 23.923,-16.231 21.241,-19.456C17.662,-24.766 12.747,-24.458 6.65,-18.508C6.401,-18.792 6.148,-19.069 5.907,-19.357C4.224,-21.368 2.126,-22.691 -0.497,-23.011C-2.082,-23.204 -3.895,-23.516 -5.139,-22.412C-8.48,-19.448 -11.016,-15.89 -11.881,-11.378" style="fill:rgb(56,88,167);fill-rule:nonzero;"/>
        </g>
        <g transform="matrix(2.65451,0,0,2.65451,601.83,648.579)">
            <path d="M0,1.236C0.253,1.06 0.734,0.879 0.367,0.484C0.096,0.192 -0.274,-0.258 -0.785,0.134C-0.95,0.261 -1.022,0.508 -1.138,0.701C-1.232,0.641 -1.328,0.582 -1.423,0.523C-1.427,-0.01 -1.497,-0.482 -2.17,-0.53C-2.399,-0.546 -2.673,-0.632 -2.783,-0.397C-3.017,0.101 -2.822,0.56 -2.526,0.977C-1.978,1.752 -0.912,1.868 0,1.236" style="fill:rgb(56,88,167);fill-rule:nonzero;"/>
        </g>
        <g transform="matrix(2.65451,0,0,2.65451,641.352,648.689)">
            <path d="M0,1.635C0.831,2.093 1.84,1.735 2.387,0.769C2.538,0.5 2.893,0.127 2.39,-0.069C2.019,-0.213 1.489,-0.458 1.2,0.118C1.107,0.305 1.149,0.559 1.129,0.781C1.018,0.77 0.906,0.757 0.795,0.745C0.56,0.268 0.291,-0.127 -0.336,0.123C-0.549,0.208 -0.833,0.249 -0.829,0.51C-0.822,1.06 -0.449,1.388 0,1.635" style="fill:rgb(56,88,167);fill-rule:nonzero;"/>
        </g>
        <g transform="matrix(2.65451,0,0,2.65451,762.052,668.414)">
            <path d="M0,-2.916C-0.732,2.549 -1.84,7.92 -3.664,13.124C-5.894,19.483 -8.734,25.535 -12.48,31.175C-14.13,33.659 -16.107,35.758 -18.357,37.572C-19.204,38.255 -20.09,38.898 -21.011,39.505C-26.654,43.225 -32.689,46.298 -38.388,49.931C-43.246,53.028 -48.151,56.053 -52.631,59.699C-53.251,60.204 -53.786,60.25 -54.465,59.724C-54.986,59.319 -55.464,58.844 -56.009,58.465L-56.008,58.465L-56.009,58.465C-56.014,58.461 -56.019,58.459 -56.023,58.455L-57.998,57.177C-60.453,55.104 -63.198,53.45 -65.91,51.76C-68.397,50.209 -70.882,48.651 -73.374,47.107C-75.867,45.563 -78.406,44.092 -80.837,42.449C-81.011,42.332 -81.191,42.217 -81.376,42.172L-82.708,41.487C-84.968,39.999 -87.107,38.34 -89.332,36.801C-91.021,35.632 -92.573,34.321 -93.808,32.604C-95.929,29.652 -97.758,26.541 -99.436,23.328L-100.991,20.219C-101.952,17.766 -102.964,15.332 -103.796,12.83C-104.311,11.28 -105.079,8.524 -105.572,6.703L-106.833,1.035C-106.864,0.776 -106.896,0.518 -106.926,0.259C-106.963,-0.067 -106.996,-0.394 -107.018,-0.721C-107.329,-5.598 -107.371,-10.458 -106.485,-15.291C-105.511,-20.603 -103.793,-25.52 -99.537,-29.206C-98.734,-29.901 -97.956,-30.308 -96.889,-30.271C-95.907,-30.238 -94.915,-30.188 -93.938,-30.375C-92.082,-30.505 -89.691,-30.793 -87.811,-31.437C-86.574,-31.742 -85.361,-32.118 -84.206,-32.671C-84.315,-32.404 -84.297,-32.114 -84.16,-31.802C-83.9,-31.204 -83.606,-30.64 -83.172,-30.138C-80.241,-26.749 -76.575,-25.068 -72.068,-25.209C-69.72,-25.283 -67.439,-24.828 -65.206,-24.105C-63.76,-23.637 -62.559,-22.773 -61.378,-21.862C-61.044,-21.604 -60.662,-21.323 -60.244,-21.653C-59.851,-21.964 -59.981,-22.413 -60.083,-22.823C-60.138,-23.046 -60.249,-23.251 -60.353,-23.454C-61.962,-26.613 -64.588,-28.36 -68.019,-29.025C-69.877,-29.386 -71.749,-29.22 -73.616,-29.268C-74.732,-29.297 -75.831,-29.434 -76.853,-29.614C-76.41,-29.586 -75.94,-29.587 -75.472,-29.576C-73.032,-29.52 -70.586,-29.721 -68.153,-29.348C-65.897,-29 -63.788,-28.359 -61.964,-26.876C-60.967,-26.064 -60.235,-25.056 -59.418,-24.104C-59.168,-23.813 -58.86,-23.466 -58.451,-23.698C-58.021,-23.942 -58.057,-24.4 -58.211,-24.824C-58.446,-25.471 -58.766,-26.083 -59.066,-26.698C-60.529,-29.688 -62.683,-31.92 -66.074,-32.568C-69.003,-33.128 -71.961,-33.35 -74.951,-33.008C-76.544,-32.826 -78.161,-32.846 -79.755,-33.02C-80.393,-33.089 -81.11,-33.005 -81.695,-33.39C-81.606,-33.779 -81.327,-33.857 -81.094,-33.963C-79.102,-34.861 -77.311,-36.092 -75.508,-37.308C-72.723,-39.187 -70.259,-41.502 -67.39,-43.266C-60.228,-47.668 -52.657,-48.292 -44.738,-45.717C-44.615,-45.677 -44.492,-45.632 -44.369,-45.587C-43.187,-45.131 -41.04,-44.017 -40.891,-43.939C-39.531,-43.145 -38.242,-42.244 -36.978,-41.296C-33.194,-38.46 -29.526,-35.444 -25.17,-33.471C-25.077,-33.429 -24.959,-33.359 -25.075,-33.208C-26.953,-32.799 -28.882,-32.778 -30.764,-33.009C-33.414,-33.333 -36.023,-33.047 -38.641,-32.844C-40.048,-32.733 -41.426,-32.368 -42.669,-31.641C-45.31,-30.095 -46.794,-27.643 -47.896,-24.903C-48.119,-24.353 -48.55,-23.628 -47.867,-23.26C-47.138,-22.868 -46.848,-23.698 -46.536,-24.18C-44.752,-26.936 -42.205,-28.499 -39.019,-29.143C-36.258,-29.7 -33.471,-29.551 -30.687,-29.577C-30.123,-29.583 -29.556,-29.568 -28.995,-29.624C-31.172,-29.251 -33.376,-29.243 -35.585,-29.256C-37.8,-29.27 -39.926,-28.802 -41.828,-27.647C-43.646,-26.545 -45.207,-25.156 -45.898,-23.036C-46.056,-22.553 -46.156,-22.02 -45.673,-21.67C-45.169,-21.304 -44.811,-21.777 -44.473,-22.035C-43.092,-23.085 -41.617,-23.898 -39.928,-24.384C-37.51,-25.078 -35.052,-25.133 -32.568,-25.26C-28.24,-25.479 -24.731,-27.372 -22.318,-31.04C-21.791,-31.842 -21.266,-32.014 -20.417,-31.721C-19.54,-31.417 -18.643,-31.186 -17.737,-30.994L-17.737,-30.993C-17.737,-30.993 -14.921,-30.035 -8.669,-30.156C-8.63,-30.154 -8.597,-30.151 -8.561,-30.148C-7.949,-30.061 -3.813,-24.822 -3.321,-23.392C-2.276,-20.356 -1.476,-17.257 -0.731,-14.137C0.151,-10.434 0.511,-6.726 0,-2.916M2.651,-23.355C2.004,-24.722 -7.874,-33.152 -10.048,-33.123C-16.641,-33.034 -22.75,-34.841 -28.28,-38.515C-31.046,-40.352 -33.574,-42.504 -36.289,-44.405C-37.998,-45.604 -39.681,-46.854 -41.69,-47.535C-42.231,-47.77 -42.772,-48.006 -43.313,-48.241C-43.326,-48.243 -43.339,-48.241 -43.353,-48.242C-44.087,-48.538 -45.04,-48.897 -45.269,-48.866C-45.818,-49.049 -46.366,-49.237 -46.93,-49.344C-55.683,-50.993 -63.83,-49.761 -71.08,-44.245C-73.475,-42.423 -75.881,-40.611 -78.336,-38.872C-81.761,-36.446 -85.586,-34.877 -89.631,-33.815C-92.774,-33.268 -95.939,-32.977 -99.131,-33.053C-99.66,-33.065 -99.974,-32.788 -100.299,-32.454C-101.521,-31.196 -109.225,-25.603 -109.536,-24.824C-110.044,-23.553 -110.523,-22.267 -110.942,-20.963C-111.199,-20.163 -112.227,-15.278 -112.241,-14.603C-112.283,-12.581 -112.645,-10.545 -112.69,-8.509C-112.739,-6.27 -112.797,-2.21 -112.537,-1.168C-112.253,-0.025 -112.146,1.162 -111.673,2.256C-111.402,3.39 -111.165,4.532 -110.854,5.655C-110.145,8.23 -109.229,10.737 -108.195,13.199C-106.681,16.807 -105.138,20.403 -103.088,23.753C-102.937,24.06 -102.791,24.369 -102.633,24.672C-100.687,28.397 -98.38,31.9 -95.973,35.336C-95.248,36.37 -92.468,38.358 -91.657,39.04C-90.187,40.276 -84.341,44.107 -84.08,44.257C-74.494,49.759 -64.927,55.288 -56.143,62.049C-55.459,62.655 -54.762,63.248 -54.098,63.875C-53.724,64.229 -53.457,64.26 -53.049,63.884C-49.525,60.642 -45.573,57.975 -41.555,55.4C-36.544,52.19 -31.522,49.004 -26.232,46.258C-23.188,44.678 -20.133,43.098 -17.405,40.982C-15.403,39.429 -12.629,37.17 -11.875,36.036C-9.345,32.229 -6.783,28.448 -4.551,24.44C-0.198,16.629 3.338,8.529 5.122,-0.273C5.293,-1.115 5.563,-5.822 5.553,-7.253C5.541,-9.162 5.169,-11.039 5.055,-12.942" style="fill:rgb(56,88,167);fill-rule:nonzero;"/>
        </g>
    </g>
</svg>
