<svg clip-rule="evenodd" fill-rule="evenodd" stroke-linejoin="round" stroke-miterlimit="2" viewBox="0 0 1238 741" xmlns="http://www.w3.org/2000/svg"><g fill="#2f8499" fill-rule="nonzero" transform="matrix(4.4960452635 0 0 4.4960452635 -6279.578913 -4705.7361245)"><path d="m1600.57 1147.52c4.29 3.49 9.19 5.81 14.25 7.85-.17.44-.52.56-.8.72-3.25 1.91-6.84 2.91-10.65 3.66 3.4 1.69 12.49.65 18.27-1.89 5.91-2.6 12.64-9.05 14.03-12.34-11.54 4.23-23.16 5.93-35.1 2z"/><path d="m1464.86 1158.71c-1.23-.31-2.22-.54-3.2-.81-.99-.28-1.98-.56-2.95-.92-.99-.37-1.98-.8-2.92-1.29-.87-.45-1.84-.77-2.61-1.61 5.26-1.96 10.17-4.35 14.58-7.76-12.07 3.89-23.76 2.01-35.43-2.38 7.84 11.67 20.1 17.05 32.53 14.77z"/><path d="m1573.18 1088.3c1.18.34 2.31-.12 2.67-1.11.1-.29.23-.62-.13-.8-.32-.15-.47.07-.6.34-.43.91-1.14 1.16-1.97.63-.81-.52-.96-1.33-.55-2.21.58-1.24 2.11-1.61 3.31-.8 1.09.73 1.51 1.92 1.14 3.21-.41 1.47-1.83 2.75-3.34 2.65-1.67-.12-3.3-.07-5.06.37.18-.38.23-.62.37-.78 1.17-1.41 1.29-2.5.42-4.04-.15-.25-.23-.6-.67-.38-1.23.59-1.94 2.84-1.16 3.97.39.56.33.96-.08 1.4-.34.36-.66.75-1.06 1.04-2.58 1.89-3.81 4.58-4.45 7.61-.06.3-.2.75.27.86.44.11.43-.34.55-.59.29-.63.58-1.24 1.2-1.63.39-.25.65-.29 1.08.06 1.74 1.44 3.06 1.36 4.89-.17.62-.51 1.57-1.15 1.44-1.77-.14-.68-1.3-.75-2.07-.94-1.61-.4-3.09-.33-4.16 1.25-.32.5-.98.54-1.67.61 1.28-3.02 3.21-5.13 6.37-5.89 1.2-.29 2.46.6 2.33 1.73-.2 1.77.66 2.49 2.68 3.08.27.08.49.11.6-.28.32-1.11-.59-3.07-1.7-3.41-.65-.21-1-.6-1.25-1.25.87-.09 1.57.22 2.22.6 3.03 1.75 4.12 4.69 4.54 7.91.14 1.05-.63 1.91-1.64 2.42-.95.47-1.87.43-2.72-.15s-1.08-1.47-.86-2.43c.18-.79.78-1.22 1.58-1.28.75-.05 1.25.34 1.4 1.07.13.6-.12 1.06-.73 1.24-.31.1-.81.05-.63.56.17.48.65.29.99.18.99-.32 1.43-1.22 1.15-2.3-.27-1.07-1.36-1.76-2.46-1.58-1.27.22-2.15 1.19-2.26 2.52-.12 1.31.79 2.66 2.07 3.09 1.73.58 3.09-.15 4.38-1.32.2.61.34 1.12.52 1.62.76 2.04 2.08 3.4 4.36 3.71 1.19.16 2.26-.13 3.36-.44 1.86-.53 3.35.21 3.84 1.87.37 1.24-.68 2.68-1.94 2.64-.78-.02-1.29-.46-1.54-1.16-.19-.51 0-.99.46-1.29.57-.38 1.08-.24 1.5.29.15.18.33.36.57.13.2-.18.2-.41.06-.62-.29-.43-.66-.75-1.2-.8-.92-.08-1.67.18-2.04 1.1-.41.99-.22 1.89.6 2.59.8.67 1.73.82 2.68.37 1-.47 1.62-1.28 1.7-2.4.13-1.85-.9-2.96-2.63-3.67.79-.6 1.32-1.55 2.27-1.54 2.48 0 3.03-1.48 3.41-3.27.15-.72.64-1.68.07-2.16-.51-.44-1.34.22-2 .47-2.06.75-2.65 1.6-2.56 3.76.02.53-.13.86-.55 1.13-.74.48-1.42 1.06-2.2 1.45-.85.43-1.74.89-2.9.71.33-.5.6-.89 1.05-1.13 1.53-.83 2.08-2.12 1.62-3.76-.08-.29-.09-.49-.49-.4-1.38.29-2.68 1.93-2.35 3.21.21.79-.15 1.15-.66 1.51-.57.41-1.15.49-1.78.01-1.39-1.05-2.1-2.43-2.32-4.34 1.35.82 2.57.94 3.81.42 1.34-.56 2.03-2.13 1.6-3.52-.4-1.33-1.51-2.01-2.92-1.78-1.05.17-1.73 1.12-1.61 2.27.11 1.02.76 1.62 1.74 1.58.34-.02.77.03.77-.45.01-.43-.38-.38-.68-.38-.58.01-.97-.26-1.04-.84-.07-.54.21-.96.68-1.22.76-.41 1.42-.19 1.94.42.68.81.47 2.21-.39 2.86-1.61 1.23-3.8.42-4.27-1.63-.32-1.42-.73-2.8-1.32-4.13-.11-.25-.48-.5-.19-.8.26-.26.6-.25.97-.15 2.37.62 3.03.38 4.42-1.63.43-.62 1.2-1.36.89-1.99-.34-.66-1.39-.37-2.13-.37-2.29 0-3.06.56-3.8 2.64-.23.68-.93.91-1.41.35-.67-.77-1.54-1.3-2.32-2.04 1.82-1 2.88-2.38 2.76-4.45-.1-1.69-1.56-3.12-3.29-3.26-1.55-.12-2.87.94-3.17 2.54-.22 1.12.54 2.37 1.62 2.68z"/><path d="m1474.33 1101.79c.35 1.02 1.05 1.99 2.14 1.96 1.46-.03 2.28.83 3.23 1.6-.12.39-.51.32-.76.47-1.79 1.05-2.38 3.19-1.27 4.81.63.92 1.57 1.33 2.68 1.16 1.1-.18 1.74-.91 1.99-1.96.21-.88-.35-1.89-1.2-2.24-.8-.34-1.5-.2-2.04.5-.19.25-.55.56-.17.88.31.27.54 0 .73-.27.35-.5.83-.51 1.32-.27.52.26.62.75.56 1.27-.13 1.08-1.5 1.65-2.52 1.05-.9-.52-1.36-1.63-1.06-2.54.42-1.29 1.82-2.19 3.14-1.97.71.13 1.4.37 2.1.53 2.36.56 4.63-.4 5.92-2.45.56-.89.72-1.9 1.01-2.87.41.07.57.41.82.63 1.83 1.58 4.54 1.08 5.51-1.03.47-1.01.27-2.28-.48-3.1-.72-.79-1.62-.97-2.61-.69-1.01.28-1.57 1.21-1.46 2.3.09.87.59 1.39 1.44 1.54.25.05.66.19.78-.22.13-.46-.3-.43-.56-.52-.71-.22-1-.71-.82-1.41.18-.66.69-.98 1.37-.99 1.18-.01 2.01 1.08 1.76 2.28-.27 1.3-1.52 2.16-2.82 1.95-1.58-.26-2.82-1.79-2.58-3.25.26-1.63.8-3.18 1.64-4.6 1.22-2.08 2.95-3.45 5.67-3.72-.63.5-.78 1.23-1.35 1.35-1.84.38-1.9 1.84-2.08 3.24-.03.23-.14.53.27.63 1.27.29 3.24-1.52 3.11-2.87-.13-1.28.83-2.32 2.06-2.12 2.89.45 5.92 3.16 6.61 6.27-.6-.42-1.4-.33-1.8-.96-.8-1.25-1.98-1.46-3.31-1.24-1.04.16-2.61.23-2.78 1.08-.16.78 1.18 1.64 2.07 2.24 1.44.98 3.04 1.03 4.07-.14.7-.8 1.07-.44 1.62-.03.48.35.75.85.93 1.4.09.29.12.71.52.63.48-.1.3-.51.24-.85-.49-3.01-1.82-5.55-4.21-7.49-.57-.46-1.14-.9-1.53-1.53-.18-.3-.32-.53-.08-.93.92-1.52.53-3.19-.91-4.15-.2-.14-.32-.25-.55 0-.94 1.02-.97 3.12.01 4.08.32.3.51.59.51 1.06-.91-.15-1.73-.35-2.56-.41s-1.67.05-2.51.04c-1.82-.04-3.35-1.48-3.5-3.3-.09-1.17.45-2.07 1.43-2.68.9-.56 1.82-.52 2.67.11.63.47.96 1.12.83 1.89-.11.68-.57 1.17-1.25 1.35-.75.2-1.23-.17-1.55-.84-.11-.23-.25-.53-.6-.36-.38.2-.22.51-.11.8.34.92 1.48 1.5 2.42 1.24 1.26-.34 2.09-1.63 1.85-2.89-.28-1.51-1.52-2.57-2.94-2.54-1.79.05-3.35 1.45-3.54 3.15-.23 2.24.99 3.63 2.85 4.73-.89.55-1.59 1.18-2.26 1.85-.77.76-1.45.59-1.67-.44-.25-1.18-.96-1.89-2.08-2.2-1.16-.33-2.35-.16-3.53-.11-.52.03-.52.32-.31.7.5.95 1 1.88 1.79 2.64.95.92 2.01 1.19 3.25.7.21-.08.43-.21.64-.2.56.04 1.1.05.61.91-.74 1.31-1.16 2.74-1.41 4.22-.23 1.33-1.26 2.23-2.6 2.34-1.15.09-2.27-.66-2.55-1.71-.27-.99.14-1.82 1.04-2.28.62-.32 1.12-.12 1.59.23.4.29.53.75.39 1.23-.15.56-.59.74-1.15.72-.27-.01-.58.02-.56.4.02.34.33.38.59.42.93.15 1.79-.53 1.93-1.52.16-1.09-.41-2-1.43-2.29-1.3-.36-2.53.19-3.04 1.37-.84 1.92.5 4.03 2.64 4.22.97.09 1.82-.26 2.8-.7-.32 1.92-1 3.42-2.56 4.42-.59.38-1.17.33-1.71-.06-.38-.28-.83-.53-.76-1.15.2-1.84-.42-2.9-2.05-3.56-.23-.09-.46-.27-.67.09-.6 1.03.04 3.46 1.13 3.82.77.26 1.11.83 1.7 1.51-2.38-.2-4.11-1.29-5.7-2.69-.35-.31-.14-.63-.1-.95.15-1.16-.21-2.09-1.14-2.81-.71-.55-1.52-.89-2.34-1.18-1.32-.47-1.56-.26-1.32 1.15.11.72.23 1.44.47 2.12z"/><path d="m1595.05 1158.6c.05.14.07.29.14.41 1.99 3.28 4.56 5.99 7.76 8.12.54.36 1.57.51 1.46 1.22-.09.6-1.09.71-1.69 1.02-1.23.63-2.55 1.1-3.86 1.99 2.05.74 3.93.82 5.84.61 4.98-.57 9.73-1.82 13.95-4.67.85-.58 1.62-1.27 2.09-2.43-9.58 1.53-17.92-1.1-25.69-6.27z"/><path d="m1469.06 1170.03c-.34-.38-.77-.43-1.16-.55-1.4-.44-2.66-1.14-3.86-1.97-.48-.33-.82-.58-.01-.98.68-.33 1.29-.81 1.92-1.24 2.98-2.07 5.4-4.64 7.02-7.96-7.75 5.32-16.2 7.68-25.85 6.25.65.8 1.16 1.28 1.74 1.71 4.46 3.34 9.53 5.06 15.01 5.65 1.77.18 3.59.19 5.19-.91z"/><path d="m1472.04 1178.26c-.46-.17-.82-.25-.27-.79 1.66-1.64 3.04-3.51 4.34-5.43 1-1.46 1.97-2.93 2.57-4.67-6.43 5.03-13.19 9.44-21.05 12.46 5.29 2.94 17.45 2.52 20.49-.57-2.08-.08-4.12-.3-6.08-1z"/><path d="m1589.86 1169.76c1.71 3.07 3.58 6.03 5.99 8.61.22.24.59.48.46.85-.14.4-.59.26-.91.31-1.96.31-3.91.6-6.08.93 4.84 3.09 17.78 3.38 20.62.52-7.61-3-14.44-7.19-20.55-12.75-.1.72.25 1.12.47 1.53z"/><path d="m1598.49 1189.92c-5.21-1.54-9.58-4.42-13.35-8.28-.33-.34-.49-.88-1.19-.99.56 2.64 1.61 4.96 3.41 6.91 1.14 1.25 1.14 1.36-.48 1.94-.43.16-.87.28-1.32.35-1.19.21-2.39.39-3.83.62.3.25.39.38.52.44 5.39 2.63 10.87 2.94 16.44.59.44-.19 1.06-.49 1.02-.96-.05-.51-.77-.49-1.22-.62z"/><path d="m1485.71 1189.54c-.3-.24-.66-.15-.99-.2-1.47-.22-2.93-.42-4.31-1.05-.91-.42-1.01-.75-.25-1.5 2-1.98 3.18-4.41 3.79-7.5-2.4 2.51-4.7 4.65-7.41 6.31-2.74 1.67-5.73 2.74-8.83 3.73 3.97 3.8 16.08 3.1 18 .21z"/><path d="m1511.24 1062.55c.61.03 1.21.15 1.98.26-.39.71-.58 1.33-.08 1.91.19.23.21.38 0 .57-.06.05-.11.11-.16.16-.25.27-.49.77-.27.92 1.11.78-.23 2.39 1.09 3.05.13.07.28.1.42.16-.81.77.21 1.46.1 2.19-.12.71.63 1.55-.33 2.14-.21.13-.07.58.05.62.89.28.77 1.71 1.94 1.66.37-.01.36.32.32.59-.1.8-.28 1.57-.78 2.24-1.21 1.62-4.4 2.74-6.73 1.38-.5-.3-1.03-.55-.94-1.37.07-.67-.68-1.07-1.04-1.51-.4-.47-.47-.72-.28-1.2.31-.77.01-1.39-.47-1.99-.87-1.11-1.79-2.2-2.06-3.65-.82-4.44 2.69-8.38 7.24-8.13zm6.57 16.96c-.02-.05-.04-.1-.06-.15.19-.03.37-.1.56-.05 1.24.09 1.66.41 1.8 1.4.44.69 1.15.83 1.88.91.1.01.2.01.3.02-2.54.03-5.03.31-7.39.74 1.37-.46 2.43-1.35 2.91-2.87zm2.7-17.62c1.93-1.2 4.01-1.64 6.24-.93.35.11.69.26 1.05.17.07.33.41.49.7.68.83.53 1.71 1.01 2.51 1.58.42.3.78.62.85 1.17.15 1.17.37 2.34.35 3.52-.01.75.1 1.57-.66 2.2-1.09.92-1.11 1.53-.34 2.77 1.08 1.71.82 3.21-.81 4.36-2.87 2.01-5.89 2.04-8.97.51-.38-.19-.73-.47-1.16-.33.02-.23-.04-.46-.2-.63-.99-1.06-1.16-2.26-.64-3.6.17-.45 0-.91-.26-1.3-.19-.29-.44-.54-.43-.92.05-1.13-.4-2.17-.65-3.24-.6-2.5.22-4.64 2.42-6.01zm13.71 16.48c.53-.51.94-.56 1.44-.02.62.68 1.37 1.2 2.14 1.69.38.24.78.43 1.17.23.05.08.09.15.14.22.66.58 1.48.75 2.3.91.09.02.18.04.27.05h-.03c-.07 0-.15.01-.22.02-.26-.12-.57-.11-.86-.13-.93-.08-1.87.04-2.79-.14-.77-.02-1.55.03-2.32-.02-.35.06-.7.06-1.05 0-.83.13-1.66 0-2.49.01-1.13.2-2.29.08-3.42.22 2.12-.47 4.05-1.44 5.72-3.04zm3.81-13.65c-.01-.62.36-1.05.85-1.4.96-.7 2.02-1.22 3.06-1.79 2.68-1.48 5.2-1.03 7.65.53.34.21.65.48 1.05.44 0 0-.01 0-.01.01.02.44.28.78.48 1.14.38.66.82 1.33.86 2.09.14 2.11-.68 4.07-1.18 6.07-.16.68-.55 1.25-.32 2.02.32 1.07.18 2.05-.64 2.95-1.14 1.24-2.6 1.78-4.15 2.2-.1.04-.2.07-.29.1-.43-.15-.91-.04-1.35-.03-2.03.04-3.7-.72-5.12-2.12-1.3-1.28-1.33-2.28-.08-3.65 1.01-1.13.95-2.04-.29-2.97-.43-.32-.56-.65-.59-1.13-.13-1.49.09-2.97.07-4.46zm14.36 15.82c.64.88 1.48 1.55 2.56 1.81.24.06.48.12.73.18-2.64-.59-5.31-.97-8-.87-.14.01-.28.01-.43.01 1.37-.14 2.68-.55 3.91-1.35.51-.34.84-.3 1.23.22zm1.31-4.27c1.19.07 1.11-1.36 2.01-1.61.22-.06.41-.45.21-.69-.98-1.13-.19-2.19-.06-3.34.08-.78.3-1.28.73-1.83.22-.28.19-.68.01-.99-.47-.8.84-.99.56-1.78-.18-.5-1.05-.95-.28-1.64.09-.09.15-.31.1-.43-.62-1.62.68-1.24 1.45-1.39.22-.04.45 0 .68 0 3.72.12 6.62 2.76 6.92 6.46.15 1.83-.68 3.41-1.85 4.78-.73.86-1.22 1.66-.8 2.88.22.67-.8.98-.94 1.64-.04.16-.29.26-.37.42-.88 1.81-1.96 2.4-4.11 2.2-2.38-.23-4.04-1.74-4.36-3.99-.04-.25-.18-.7.1-.69zm-28.24 5.47h.06c.26 0 .51-.02.77-.03-.28.04-.55.06-.83.03zm33.14 5.92c-.29 1.14-.58 1.38-1.77 1.15-4.96-.96-9.97-1.37-15.01-1.51-.17.02-.34.04-.52.07-.41-.18-.9-.09-1.33-.08-5.29.07-10.58-.19-15.88.18-3.88.27-7.73.68-11.54 1.46-.29.06-.59.1-.84.25-1.16-1.63-.8-2.68 1.12-3.28.37-.11.74-.2 1.11-.27 2.82-.49 5.67-.68 8.51-.99.82-.02 1.6-.43 2.44-.27.12.01.24 0 .36-.03.94-.44 2.01-.13 2.97-.49.01-.02.02-.03.03-.05.47.5 1.11.39 1.7.42 2.1.12 4.19-.46 6.28-.17 2.09.28 4.19.2 6.28.36 3.99.3 7.99.45 11.96 1.01 1.13.16 2.26.36 3.32.83.6.27 1.02.62.81 1.41zm-58.99-15.37c.07.09.22.14.25.23.26.87.04 2 1.27 2.35-.04.1-.12.22-.11.32.04.22.09.6.19.62 1.11.21 1.07 1.82 2.26 1.76.09.61-1.15.26-.6.77.75.69 1.73 1.73 2.47 1.78 1.95.11 2.1 1.53 2.69 2.71.2.4.16.79-.18 1.16-.72.78-.35 1.38.38 1.88 1.68 1.14 2.18 3.61 1.08 5.36-.15.24-.49.45-.1.76.32.26.65.1.98.05 3.61-.53 7.24-.8 10.88-1 3.48-.19 6.97-.34 10.45-.52 3.55.09 7.1.05 10.65.21 5.91.26 11.81.54 17.68 1.31.24.03.56.21.73-.08.16-.28.03-.58-.12-.86-.94-1.75-.37-4.17 1.24-5.27.58-.38 1.01-1 .53-1.51-.9-.95-.47-1.8.05-2.57.48-.72.77-1.86 2.09-1.51.26.07.56-.14.65-.38.24-.62.77-.79 1.29-1.03.71-.33 1.17-.71.01-1.16.39-.33 1.01-.2 1.1-.65.12-.61.82-.76.93-1 .38-.88.94-1.59 1.52-2.31.06-.07-.09-.3-.07-.43.21-.99 1.04-1.89.4-2.99-.01-.02.1-.11.15-.16 1.08-1.1-.95-2.12-.07-3.25.16-.2-.13-.56-.37-.77-.06-.05-.12-.11-.18-.15-.91-.53-.49-2.22-1.96-2.28-.01 0-.02-.21-.01-.33.1-1.4-1.95-.83-1.97-2.16-.01-.19-.44-.36-.69-.29-.5.13-.79.01-1-.45-.12-.26-.43-.43-.67-.38-1.06.24-2.01-.46-3.03-.31-1.21.18-2.48-.02-3.63.68-.53.32-1.2.48-1.94.37-.72-.11-.32-.66-.6-.91-.26-.23-.46-.51-.86-.49-.22.01-.51.04-.59-.23-.24-.88-.93-.72-1.56-.71-.25-1.2-1.48-.74-2.11-.96-1.69-.58-3.61-.45-5.39-.11-1.94.37-3.66 1.37-5.14 2.69-.21.18-.35.47-.64.32-.27-.12-.08-.41-.05-.61.06-.41-.22-.93.36-1.21.19-.1.12-.41 0-.51-.71-.6-.66-1.93-1.95-2.02-.28-.02-.68-.33-.63-.71.06-.38.5-.27.77-.37 1.83-.71 2.99-2.58 2.77-4.54-.23-1.96-1.72-3.48-3.72-3.76-1.92-.27-3.77.79-4.52 2.58-.78 1.88-.23 3.89 1.35 5.12.58.46 1.3.57 1.95.93-.27.57-.71.91-1.23 1.01-1.12.22-.72 1.55-1.51 1.99-.09.05-.03.32.14.37.49.15.28.56.33.87.04.3.33.71-.09.9-.31.14-.48-.34-.7-.42-.88-.35-1.29-1.53-2.44-1.37.01-.57-.35-.47-.7-.39-.15-.1-.29-.2-.44-.29-.11-.3-.35-.32-.63-.36-1.02-.12-2.03-.33-3.07-.39-1.25-.06-2.44.11-3.64.36-.74.16-1.45.66-2.1.8-1.04.21-1.32 1.54-2.45 1.39-.04-.01-.13.18-.16.29-.27 1.09-.99.87-1.74.61-1.07-.37-2.1-.77-3.31-.8-.61-.01-1.28.22-1.8.02-.98-.37-1.73.74-2.67.27-.06-.03-.37.27-.44.46-.11.33-.27.4-.59.32-.75-.18-1.18.17-1.3.89-.06.37-.25.36-.54.38-.75.07-1.19.47-1.14 1.27.01.26-.03.45-.34.48-.98.06-1.05.62-1.05 1.49 0 .58-1.27.66-1.08 1.6.01.04 0 .08.01.11.27.63.15 1.12-.29 1.69-.5.65.45 1.19.44 1.67-.01.55-.63 1.1-.13 1.76z"/><path d="m1548.12 1161.74c-.98.81-1.54 1.76-2.19 2.64-2.59 3.54-4 7.46-3.05 11.82.8 3.7.17 6.88-2.05 9.93-1.71 2.35-2.97 4.97-3.48 7.89-.29 1.62-.35 3.23.19 4.83.44-1.55 1.12-2.93 2.05-4.22 1.89-2.65 4.18-4.94 6.39-7.31 1.43-1.52 3.16-2.89 3.79-4.96 1.16-3.8-.28-7.22-1.86-10.58.02 1.89.19 3.76.13 5.65-.05 1.9-.21 3.75-1.63 5.59.08-1.17.24-2.01.18-2.83-.17-2.09-.5-4.16-.63-6.25-.14-2.3.18-4.52 1.45-6.69 1.8 2.65 3.39 5.19 4.44 8.04 1.24 3.38 1.07 6.52-1.32 9.45-1.75 2.16-3.32 4.47-4.54 6.99-.88 1.82-1.26 3.45-.95 4.47.47-.62.91-1.29 1.44-1.88 1.93-2.16 3.81-4.37 5.72-6.55 4.26-4.86 3.8-13.64.19-17.85-1.98-2.31-3.61-4.93-4.27-8.18z"/><path d="m1528.73 1185.99c-2.05-2.92-2.93-5.92-2.02-9.47.87-3.4.19-6.67-1.47-9.72-.97-1.79-2.12-3.47-3.62-5.05-.71 2.71-1.97 4.95-3.5 7.06-1.34 1.84-2.71 3.64-3.25 5.97-1.08 4.73-.46 9.01 2.6 12.95 2.32 3 5.19 5.52 7.43 8.89-.11-2.17-.68-3.96-1.6-5.66-1.38-2.56-3.15-4.86-4.84-7.21-.91-1.27-1.43-2.69-1.39-4.27.1-4.71 2.69-8.35 5.11-12.14 1.02 1.46 1.48 3.17 1.56 5.07.14 3.46-1.08 6.83-.61 10.33-1.26-1.54-1.43-3.37-1.51-5.23s.14-3.71.14-5.58c-1.27 2.23-2.04 4.59-2.22 7.14-.17 2.47.58 4.56 2.35 6.32 1.4 1.4 2.77 2.84 4.09 4.32 2.45 2.75 5.12 5.36 6.14 9.22.52-1.56.42-3.04.24-4.51-.39-3.16-1.85-5.9-3.63-8.43z"/><path d="m1566.68 1133.83c-2.29-2.27-4.15-4.89-6.19-7.35-3.4-4.09-9.21-4.33-13.87-1.8h.56c5.8-.14 10.05 2.5 13.11 7.3 1.03 1.62 2.28 3.05 3.76 4.28 1.8 1.51 3.82 2.57 6.12 3.17-1.46.37-2.83.1-4.17-.35-3.26-1.11-5.51-3.48-7.42-6.19-1.6-2.26-3.33-4.27-6.03-5.23-1.72-.61-3.45-.93-5.28-.47 1.88.49 3.22 1.73 4.4 3.12 1.4 1.66 2.75 3.37 4.07 5.09 1.55 1.99 2.97 4.09 5.13 5.49 4.74 3.07 10.78 1.27 14.8-2.19-.15-.07-.27-.17-.4-.19-3.4-.59-6.16-2.29-8.59-4.68z"/><path d="m1510.38 1139.63c1.45-1.32 2.49-2.97 3.71-4.48 1.87-2.31 3.49-4.83 5.85-6.71.72-.59 1.66-.76 2.53-1.32-2.75-.5-6.11.45-8.31 2.19-1.44 1.14-2.35 2.7-3.43 4.12-1.57 2.06-3.34 3.87-5.65 5.09-1.88.99-4.36 1.36-5.8.84 4.77-1.04 7.98-3.99 10.42-7.9 1.03-1.65 2.32-3.01 3.91-4.1 2.79-1.92 5.82-3.07 9.3-2.75-.9-.62-1.88-.9-2.88-1.13-4.24-1-8.04-.42-10.95 3.18-1.08 1.33-2.17 2.66-3.24 4-3.11 3.89-6.62 7.18-12.1 7.95 1.84 1.53 3.68 2.5 5.68 3.17 4.04 1.36 7.73.8 10.96-2.15z"/><path d="m1554.74 1140.58c3.31 2.9 6.62 5.78 8.83 9.66 2.24 3.94 3.28 8.12 2.45 12.66-.31-1.84-.74-3.66-1.32-5.43-1.56-4.86-4.24-8.92-8.53-11.83-.78-.53-1.06-.3-1.22.48-.27 1.32-.35 2.64-.14 3.98.51 3.29 2 6.15 3.93 8.79 1 1.36 2.01 2.73 3.42 3.77-1.13-3.56-2.46-7.02-3.87-10.45 5.71 6.11 6.27 13.89 7.07 21.64.31-.91.65-1.79.93-2.69 1.57-5.04 2.91-10.07 2.45-15.47-.68-7.78-7.18-13.24-14-15.11z"/><path d="m1511.48 1152.19c-1.52 3.47-2.9 6.99-4 10.63 2.86-2.93 5.36-6.09 6.69-10.04.7-2.09 1.02-4.22.55-6.41-.27-1.23-.39-1.29-1.41-.58-4.21 2.93-6.84 6.98-8.39 11.8-.56 1.75-.9 3.55-1.26 5.35-.6-3.09-.28-6.09.74-9.01 1.47-4.22 4.13-7.61 7.43-10.54 1.04-.92 2.07-1.84 3.11-2.76-1.53.16-2.81.84-4.08 1.5-6.58 3.42-10.19 8.69-10.06 16.24.07 4.28 1.15 8.37 2.49 12.4.34 1.04.67 2.08 1.01 3.12-.11-1.9.39-3.69.62-5.5.44-3.44 1.05-6.85 2.41-10.08.97-2.32 2.14-4.5 4.15-6.12z"/><path d="m1561.94 1175.07c.24-1.42.68-2.82.54-4.3-.33-3.24-1.69-6.04-3.84-8.39-3.45-3.77-5.12-8.23-5.62-13.22-.03-.22.04-.54-.33-.69-.59 1.23-.93 2.51-.96 3.86-.08 4.5 1.72 8.28 4.52 11.68.63.76 1.44 1.42 1.73 2.57-3.97-2.46-4.92-3.83-7.11-10.02-1.2 2.53-.73 7.14 1.63 9.48 1.28 1.26 2.5 2.57 3.7 3.9 1.38 1.52 2.23 3.26 2.15 5.38-.02.65.06 1.3.18 1.94.49 2.85 1.91 5.09 4.48 6.52-1.42-2.8-1.59-5.7-1.07-8.71z"/><path d="m1514.79 1168.45c1.4-1.39 2.95-2.67 3.79-4.53 1.09-2.43 1.12-4.89.2-7.4-.79 4.37-2.98 7.72-7.09 10.01.33-.99.86-1.53 1.35-2.1 2.48-2.8 4.21-5.99 4.77-9.71.32-2.14.24-4.28-.97-6.42-.09.51-.15.8-.19 1.1-.02.18 0 .38-.03.57-.69 4.48-2.17 8.59-5.27 12.06-2.98 3.33-4.86 7.12-3.85 11.8.73 3.37.88 6.71-1.02 10.04 1.53-.59 2.42-1.6 3.16-2.74.98-1.53 1.71-3.24 1.63-5.05-.15-3.21 1.4-5.52 3.52-7.63z"/><path d="m1542.26 1165.36c.29-.44.29-.72-.35-.84-2.63-.5-4.86-1.75-6.67-3.7-.33-.36-.53-.34-.82-.02-1.93 2.15-4.39 3.34-7.3 3.86.82 2.03 2.36 3.16 3.97 4.18 1.19.75 2.51 1.66 3.9 1.41 3.07-.56 5.53-2.25 7.27-4.89z"/><path d="m1538.78 1184.2c1.4-2.36 2.16-4.86 1.7-7.63-.23-1.37-.88-2.45-2.15-3.24.92 4.67-1.07 8.41-3.49 12.09-2.37-3.43-3.92-7.02-3.22-11.26.04-.26.28-.63-.14-.79-.29-.11-.46.16-.65.36-1.39 1.49-1.86 3.29-1.71 5.27.21 2.61 1.26 4.91 2.68 7.08 1.28 1.95 2.91 3.74 2.98 6.42.75-.67 1.02-1.4 1.02-2.14.01-1.54.7-2.77 1.55-3.96.51-.71.98-1.45 1.43-2.2z"/><path d="m1534.14 1123.79c1.05-2 1.62-4.12 1.87-6.33.35-3.04 1.89-5.33 4.32-7.08.65-.46 1.37-.84 2.05-1.26-2.86-.11-5.55.17-7.32 2.76-2.33-2.3-4.26-3.05-6.66-2.57 4.82 3.7 6.93 8.44 5.74 14.48z"/><path d="m1537.41 1125.97c1.16-4 2.25-7.94 5.66-10.57 3.29-2.55 7.32-3.09 11.25-3.91-.89-.26-1.8-.3-2.7-.27-3.38.11-6.59.91-9.73 2.33.53-.83 1.05-1.66 1.7-2.67-5.55 2.7-8.06 9.73-6.18 15.09z"/><path d="m1525.98 1110.79c.68 1.03 1.24 1.89 1.8 2.75-2.03-.84-4.03-1.52-6.12-1.92-2.73-.52-5.07-.56-6.55.11 9.3.6 15.49 4.61 17.08 14.11 1.91-5.64-.73-12.36-6.21-15.05z"/><path d="m1562.11 1125.69c.91 1.08 1.76 2.21 2.65 3.3 1.59 1.96 4.94 3.16 7.21 2.6-3.79-1.36-5.99-4.48-8.5-7.46 1.54-.57 2.91-.27 4.39-.07-2.49-2.37-5.2-2.77-9.53-1.47.79.52 1.48.9 2.09 1.4.61.51 1.17 1.09 1.69 1.7z"/><path d="m1504.99 1128.9c1.89-2.3 3.46-4.9 6.42-6.27-4.44-1.43-7.53-.78-9.44 1.38 1.4-.13 2.74-.47 4.21.1-2.39 3.05-4.7 6.01-8.52 7.55 3 .28 5.6-.66 7.33-2.76z"/><path d="m1570.01 1145.07c-.25-.32-.49-.77-.99-.61-.94.29-1.9.37-3.05.47 3.46 2.99 4.52 6.97 5.43 11.05.55-1.48.69-2.97.58-4.47-.16-2.29-.51-4.54-1.97-6.44z"/><path d="m1503.68 1144.96c-.95-.13-1.8-.14-2.57-.38-.76-.25-1.15.05-1.52.59-2.27 3.38-2.05 7.07-1.39 10.84.99-4.08 1.99-8.13 5.48-11.05z"/><path d="m1535.39 1180.59c.41-1.15.62-2.35.64-3.58.03-1.95.49-3.79 1.45-5.64-2.39.78-3.59 2.38-3.68 4.58-.08 2.02.77 3.93.49 6.13.73-.43.92-.97 1.1-1.49z"/><path d="m1528.15 1139.16c1.14.64 2.15.87 3.4.13-1.2 1.51-.9 3.1-.66 4.73.13.87.13 1.81-.33 2.87-.43-1.27-.48-2.44-.92-3.5-.27-.66-.58-.95-1.35-.83-.82.13-1.67.12-2.5.05-1.55-.15-2.83-.86-3.31-2.41-.34-1.1-.74-2.04-1.95-2.48 2.7-.13 5.28.15 7.62 1.44zm14.81-.71c1.42-.48 2.91-.57 4.36-.89h1.83c-1.06.77-1.67 1.76-2.14 3.01-.67 1.77-2.39 2.06-4.09 2.1-.3.01-.61-.04-.91-.05-1.85-.1-1.85-.1-2.24 1.82-.45.67-.35 1.51-.72 2.49-.37-1.27-.51-2.29-.27-3.37.27-1.22.54-2.45-.37-3.57-.15-.18-.18-.48-.36-1.01 2.04 1.78 3.36-.06 4.91-.53zm-26.7 1.46c-.47 2.45-.18 4.74 1.82 6.51 1.32 1.17 2.75 2.18 4.5 2.62.26.07.54.35.89-.01-.43-1.13-.86-2.29-1.29-3.45 1.75 1.4 2.69 3.21 3.1 5.45-1.38-.26-2.61-.17-3.65.69-1.31 1.1-1.27 2.18 0 3.32 1.24 1.14 2.63 2.05 4.13 2.83-1.67-.03-3.18-.73-4.81-1.14.11 2.82 2.47 2.21 4.12 2.81-.71.44-1.3.77-1.96.97-.37.11-.51.32-.18.65 1.38 1.34 2.82 2.48 4.95 2 1.4-.31 2.7-.81 3.81-1.73 2.79-2.3 2.54-4.23-.71-5.86-1.65-.82-2.18-2.4-2.81-4.28 2.95 2 5.81 3.02 9.08 2.04.41-.08.85-.1 1.2-.37.4-.09.78-.21 1.07-.51.58-.32 1.17-.65 1.86-1.03-.48 1.94-1.23 3.54-3.09 4.36-.61.27-1.09.71-1.54 1.18-.9.95-.98 2.06-.13 3.08.56.66 1.17 1.35 1.91 1.8 3 1.84 5.57 2.09 7.95-.44.63-.68.32-.82-.27-1.05-.53-.2-1.16-.28-1.49-.87.93-.2 1.78-.37 2.63-.57.7-.17 1.13-.6 1.23-1.33.04-.26.28-.53.05-.75-.24-.23-.49.05-.73.12-1.31.4-2.58.92-3.99.91 1.68-.8 3.17-1.83 4.48-3.13.78-.78.81-1.71.1-2.55-.89-1.04-2.05-1.4-3.39-1.23-.34.04-.7.22-.67-.39.06-1.32 1.87-4.35 3.01-4.98-.31 1.21-1.02 2.28-1.14 3.56 2.08-.23 4.86-1.92 6.13-3.71.54-.74 1.02-1.48 1.08-2.46.29-4.34-1.44-7.91-4.12-11.14-3.58-5.3-8.5-5-14.59.95-.25-.28-.51-.56-.75-.85-1.68-2.01-3.78-3.33-6.4-3.65-1.59-.19-3.4-.5-4.64.6-3.35 2.96-5.88 6.52-6.75 11.03z"/><path d="m1527.52 1141.03c.25-.18.74-.36.37-.75-.27-.29-.64-.74-1.15-.35-.17.13-.24.37-.36.56-.09-.06-.19-.11-.28-.17-.01-.54-.08-1.01-.75-1.06-.23-.01-.5-.1-.61.14-.24.5-.04.95.25 1.37.55.78 1.62.89 2.53.26z"/><path d="m1542.41 1141.47c.83.46 1.84.1 2.39-.87.15-.26.5-.64 0-.83-.37-.15-.9-.39-1.19.18-.09.19-.05.44-.07.67-.11-.02-.22-.03-.34-.04-.23-.48-.5-.87-1.13-.62-.21.08-.49.12-.49.38.01.55.38.88.83 1.13z"/><path d="m1587.88 1144.35c-.73 5.47-1.84 10.84-3.66 16.04-2.23 6.36-5.07 12.41-8.82 18.05-2.27 3.42-5.16 6.11-8.53 8.33-5.64 3.72-11.68 6.79-17.38 10.43-4.86 3.09-9.76 6.12-14.24 9.77-.62.5-1.16.55-1.84.02-.52-.4-.99-.88-1.54-1.26l-.01-.01-1.98-1.28c-2.45-2.07-5.2-3.72-7.91-5.41-2.49-1.56-4.97-3.11-7.46-4.66-2.5-1.54-5.04-3.01-7.47-4.66-.17-.11-.35-.23-.54-.27l-1.33-.69c-2.26-1.49-4.4-3.14-6.62-4.68-1.69-1.17-3.24-2.48-4.48-4.2-2.12-2.95-3.95-6.06-5.63-9.28l-1.55-3.1c-.96-2.46-1.97-4.89-2.81-7.39-.51-1.55-1.28-4.31-1.77-6.13l-1.26-5.67c-.03-.26-.07-.52-.1-.77-.03-.33-.07-.66-.09-.99-.31-4.87-.35-9.73.53-14.57.98-5.31 2.7-10.22 6.95-13.91.81-.7 1.58-1.1 2.65-1.07.98.04 1.97.09 2.95-.1 1.86-.13 4.25-.42 6.13-1.06 1.24-.31 2.45-.68 3.6-1.24-.11.27-.09.56.05.87.26.6.55 1.17.99 1.67 2.93 3.39 6.59 5.07 11.1 4.93 2.35-.08 4.63.38 6.86 1.1 1.45.47 2.65 1.33 3.83 2.24.34.26.72.54 1.14.21.39-.31.26-.76.16-1.17-.06-.22-.17-.42-.27-.63-1.61-3.16-4.24-4.9-7.67-5.57-1.86-.36-3.73-.19-5.6-.24-1.11-.03-2.21-.17-3.23-.35.44.03.91.03 1.38.04 2.44.06 4.88-.15 7.32.23 2.25.35 4.36.99 6.19 2.47.99.81 1.72 1.82 2.54 2.77.25.29.56.64.97.41.43-.25.39-.7.24-1.13-.24-.65-.56-1.26-.86-1.87-1.46-2.99-3.61-5.22-7-5.87-2.93-.56-5.89-.78-8.88-.44-1.59.18-3.21.16-4.81-.01-.63-.07-1.35.01-1.94-.37.09-.39.37-.47.61-.58 1.99-.9 3.78-2.13 5.58-3.34 2.79-1.88 5.25-4.2 8.12-5.96 7.16-4.4 14.73-5.03 22.65-2.45.12.04.25.08.37.13 1.18.46 3.33 1.57 3.48 1.65 1.36.79 2.65 1.69 3.91 2.64 3.79 2.84 7.45 5.85 11.81 7.82.09.05.21.12.09.27-1.87.41-3.8.43-5.68.2-2.65-.33-5.26-.04-7.88.16-1.41.11-2.79.48-4.03 1.2-2.64 1.55-4.12 4-5.23 6.74-.22.55-.65 1.28.03 1.65.73.39 1.02-.44 1.33-.92 1.79-2.76 4.33-4.32 7.52-4.97 2.76-.55 5.55-.41 8.33-.43.57-.01 1.13.01 1.69-.05-2.17.37-4.38.38-6.59.37s-4.34.45-6.24 1.61c-1.82 1.1-3.38 2.49-4.07 4.61-.16.48-.26 1.01.23 1.37.5.36.86-.11 1.2-.37 1.38-1.05 2.85-1.86 4.54-2.35 2.42-.69 4.88-.75 7.36-.87 4.33-.22 7.84-2.12 10.25-5.78.53-.81 1.05-.98 1.9-.68.88.3 1.78.53 2.68.72 0 0 2.82.96 9.07.84.04 0 .07.01.11.01.61.08 1.34.93 1.86 1.65 0 .01 0 .02.01.03.12.4.37.71.66.99.12.12.25.23.38.34 1.18 1.01 1.84 2.31 2.33 3.74 1.04 3.04 1.84 6.14 2.59 9.26.88 3.7 1.24 7.41.73 11.22zm84.15-55.52c-.02-.3.09-.69-.2-.84-.35-.18-.53.22-.71.43-1.62 1.84-3.45 3.46-5.26 5.1-4.82 4.33-10.04 8.05-15.89 10.91-3.23 1.59-6.61 2.75-10.03 3.83-2.22.31-4.37 1.02-6.75 1.01 5.35-5.45 9.08-11.85 11.74-18.96-.66-.09-.76.36-.95.66-.37.57-.7 1.18-1.06 1.76-4.17 6.55-9.79 11.65-16.09 16.07-5.32 3.74-11 6.87-16.73 9.91-5.64 2.97-11.23 6.02-16.83 9.08-.9.49-1.33.22-1.61-.64-.37-1.08-.64-2.2-1.13-3.24-.65-1.37-.56-1.79.67-2.73 2.85-2.17 5.69-4.38 8.62-6.44 5.44-3.82 11.25-7.05 16.93-10.48 1.71-1.03 3.44-2.02 5.16-3.03-2.63 4.98-6.3 9.11-9.84 13.33 11.78-8.14 19.87-18.84 22.83-33.08-.42.37-.75.81-1.05 1.27-2.57 3.86-5.47 7.42-8.95 10.51-4.56 4.06-9.75 7.19-14.86 10.48-7.91 5.08-16.43 9.26-23.64 15.43-.45.38-.77.35-1.16-.07-.54-.58-1.12-1.13-1.69-1.69-.16-.16-.33-.33-.49-.49-.07-.21-.22-.36-.44-.43-1.16-1.68-2.61-2.38-4.79-2.35-6.59.09-12.7-1.71-18.23-5.39-2.77-1.84-5.29-3.99-8.01-5.89-1.71-1.2-3.39-2.45-5.4-3.13-.54-.24-1.08-.47-1.62-.71-.02 0-.03.01-.04 0-.74-.29-1.69-.65-1.92-.62-.55-.18-1.1-.37-1.66-.48-8.75-1.65-16.9-.41-24.15 5.1-2.39 1.82-4.8 3.63-7.26 5.37-3.42 2.43-7.25 4-11.29 5.06-3.14.55-6.31.84-9.5.76-.53-.01-.84.27-1.17.6-1.22 1.26-2.48 2.48-3.66 3.78-.54.58-.86.56-1.43.03-2.48-2.27-5.2-4.23-7.98-6.1-5.75-3.88-11.69-7.48-17.55-11.18-3.03-2.07-6.07-4.14-9.1-6.22-.11-.1-.21-.22-.33-.31-5.2-3.86-9.55-8.5-12.79-14.14-.14-.24-.24-.58-.76-.48.53 2.23 1.05 4.44 1.81 6.59 2.12 5.95 5.09 11.4 9.27 16.15 3.58 4.42 7.81 8.11 12.53 11.25-.87-1.11-1.81-2.14-2.75-3.18-3.12-3.43-5.95-7.1-8.42-11.02.08-.25.29-.2.47-.21 2.7 1.77 5.44 3.47 8.23 5.07.11.11.19.25.32.33 3.97 2.45 7.97 4.87 11.92 7.36 3.74 2.35 7.4 4.82 10.54 7.98.6.6.76 1.15.44 1.93-.5 1.27-.98 2.56-1.4 3.86-.26.8-.54 1-1.35.54-4.05-2.27-8.15-4.44-12.2-6.72-4.98-2.79-9.93-5.65-14.89-8.48-1.13-.71-2.25-1.44-3.4-2.13-2.31-1.39-4.53-2.93-6.73-4.49-.15-.17-.27-.37-.45-.5-4.1-3.19-7.51-7.02-10.51-11.23-1.01-1.41-2-2.84-3.07-4.35-.17.61.11.97.24 1.35 1.39 4.08 3.43 7.8 6 11.25 1.43 1.92 2.89 3.83 4.29 5.78.15.2.9.53.12.93-.21-.02-.42-.05-.64-.08-.25-.07-.49-.15-.75-.21-1.65-.4-3.39-.45-4.98-1.14h-.01c-.05-.03-.1-.05-.14-.06-.31-.11-.61-.23-.92-.32-1.81-.55-3.58-1.2-5.33-1.93-3.38-1.62-6.74-3.27-9.89-5.32-.2-.18-.38-.38-.59-.53-4.56-3.03-8.64-6.64-12.59-10.41-.78-.75-1.33-1.74-2.33-2.32-.25 1.25-.15 2.16.4 3.39 2.12 4.76 4.79 9.19 8 13.29 1.04 1.35 2.06 2.74 3.38 3.84v.01c1.65 2.06 3.62 3.8 5.64 5.47 1.4 1.15 2.71 2.46 4.44 3.17.09.12.16.27.27.36 3.8 2.62 7.8 4.87 12.1 6.58 2.56 1.27 5.29 2.07 8 2.91 4.43 1.37 8.93 2.4 13.56 2.9-.17-.17-.35-.31-.56-.38-4.16-1.38-8.23-3-12.18-4.9-2.5-1.21-5.1-2.24-7.42-3.81-4.31-2.74-8.5-5.64-12.41-8.93-.02-.36-.83-.41-.4-.96 2.22.61 4.39 1.4 6.65 1.84 2.42.76 4.82 1.63 7.32 2.09 1.67.55 3.32 1.1 4.99 1.64 2.15.69 4.3 1.38 6.45 2.06 4.71 1.77 9.38 3.63 13.92 5.8 5.47 2.63 10.61 5.85 15.88 8.83.6.34.8.86.79 1.53-.04 2.03-.04 4.05-.08 6.07-.01.58.12 1.18-.13 1.83-7.03-3.42-14.3-5.93-21.7-8.06-3.85-1.1-7.7-2.15-11.56-3.23-4.04-1.21-8.08-2.42-12.13-3.61-1.09-.32-2.14-.81-3.28-.95-.17-.09-.33-.2-.51-.26-4.66-1.51-8.97-3.66-12.63-6.98-.19-.17-.42-.47-.68-.3-.36.24-.04.55.06.81 1.03 2.56 2.36 4.96 3.94 7.21 2.16 3.07 4.68 5.8 7.74 8 3.4 2.87 7.27 4.92 11.41 6.5 2.29 1.07 4.74 1.58 7.15 2.22 5.86 1.7 11.78 1.8 17.77.85-5.4-1.27-11.02-1.47-16.14-3.85-2.09-1.22-4.17-2.47-5.79-4.4.44-.23.74-.16 1.04-.11 2.43.43 4.86.89 7.29 1.32 9.06 1.6 17.73 4.39 26.09 8.22.99.45 1.58 1.12 1.84 2.16.29 1.14.39 2.33.87 3.42.27 1.14.5 2.28.81 3.4.72 2.58 1.63 5.08 2.66 7.54 1.52 3.61 3.06 7.21 5.11 10.56.15.31.3.61.46.92 1.94 3.72 4.25 7.23 6.66 10.66.72 1.04.72 1.96.24 3.09-1.91 4.51-5.11 7.79-9.4 10.08-.36.2-.85.28-1.03.88 1.46.13 2.58-.59 3.7-1.16 3.98-2.04 6.92-5.2 9.33-8.9.45-.68.66-.97 1.47-.28 1.47 1.23 2.91 2.56 4.72 3.33.12.21.32.31.54.37.47.42.93.86 1.58.99.25.17.48.37.74.52 9.59 5.5 19.15 11.03 27.94 17.79.68.61 1.38 1.2 2.04 1.83.38.35.64.39 1.05.01 3.52-3.24 7.48-5.91 11.5-8.48 5.01-3.21 10.03-6.4 15.32-9.15 3.04-1.58 6.1-3.16 8.82-5.27 2.01-1.55 1.98-1.56 3.45.53 2.64 3.74 5.87 6.8 10.19 8.56.5.2 1.01.42 1.66.23-.6-.81-1.39-1.14-2.09-1.57-3.69-2.23-6.27-5.37-8.01-9.3-.56-1.27-.42-2.26.33-3.4 2.54-3.81 5.1-7.59 7.33-11.59 4.35-7.81 7.89-15.92 9.67-24.72.17-.84.63-1.44 1.47-1.75.9-.33 1.78-.69 2.66-1.06 6.55-2.78 13.25-5.04 20.23-6.51 3.09-.66 6.24-.98 9.33-1.68.86.21 1.71-.5 2.7-.09-.22.25-.34.44-.51.59-4.55 4-9.95 5.96-15.9 6.56-1.87.19-3.74.35-5.79.54.94.67 1.07.75 1.91.84 3.35.37 6.7.4 10.05.03 5.85-.66 11.38-2.36 16.73-4.83 9.02-4.16 15.53-10.74 19.63-19.75.13-.28.5-.66.16-.92-.41-.32-.66.19-.93.41-2.26 1.9-4.72 3.49-7.4 4.73-4.14 1.91-8.58 2.93-12.92 4.25-2.89.88-5.8 1.7-8.71 2.55-.33.04-.69.02-1.01.11-4.85 1.37-9.71 2.67-14.52 4.14-5.37 1.63-10.64 3.56-15.77 5.82-1.32.58-1.39.51-1.4-.92-.02-1.91.04-3.82-.08-5.73-.07-1.25.43-2.01 1.46-2.58 3.64-2.02 7.21-4.16 10.91-6.06 5.98-3.07 12.29-5.36 18.6-7.67 4.37-1.61 8.83-2.91 13.27-4.29 4.06-1.09 8.11-2.17 12.17-3.26.04.12.09.23.13.34-4.87 4.28-10.25 7.82-16 10.82-5.74 2.99-11.77 5.25-17.98 7.28.28.34.47.26.65.23 6.17-.71 12.15-2.17 17.99-4.26 9.24-3.33 17.53-8.17 24.54-15.12 5.1-5.05 9.15-10.83 12.4-17.2.59-1.17 1.06-2.38.96-3.72z"/></g></svg>