<?xml version="1.0" encoding="UTF-8" standalone="no"?>
<!DOCTYPE svg PUBLIC "-//W3C//DTD SVG 1.1//EN" "http://www.w3.org/Graphics/SVG/1.1/DTD/svg11.dtd">
<svg width="100%" height="100%" viewBox="0 0 1238 741" version="1.1" xmlns="http://www.w3.org/2000/svg" xmlns:xlink="http://www.w3.org/1999/xlink" xml:space="preserve" xmlns:serif="http://www.serif.com/" style="fill-rule:evenodd;clip-rule:evenodd;stroke-linejoin:round;stroke-miterlimit:2;">
    <g transform="matrix(1.07905,0,0,1.07905,444.478,-298.583)">
        <g transform="matrix(4.16667,0,0,4.16667,-6231.46,-4084.29)">
            <path d="M1600.57,1147.52C1604.86,1151.01 1609.76,1153.33 1614.82,1155.37C1614.65,1155.81 1614.3,1155.93 1614.02,1156.09C1610.77,1158 1607.18,1159 1603.37,1159.75C1606.77,1161.44 1615.86,1160.4 1621.64,1157.86C1627.55,1155.26 1634.28,1148.81 1635.67,1145.52C1624.13,1149.75 1612.51,1151.45 1600.57,1147.52Z" style="fill:rgb(47,132,153);fill-rule:nonzero;"/>
        </g>
        <g transform="matrix(4.16667,0,0,4.16667,-6231.46,-4084.29)">
            <path d="M1464.86,1158.71C1463.63,1158.4 1462.64,1158.17 1461.66,1157.9C1460.67,1157.62 1459.68,1157.34 1458.71,1156.98C1457.72,1156.61 1456.73,1156.18 1455.79,1155.69C1454.92,1155.24 1453.95,1154.92 1453.18,1154.08C1458.44,1152.12 1463.35,1149.73 1467.76,1146.32C1455.69,1150.21 1444,1148.33 1432.33,1143.94C1440.17,1155.61 1452.43,1160.99 1464.86,1158.71Z" style="fill:rgb(47,132,153);fill-rule:nonzero;"/>
        </g>
        <g transform="matrix(4.16667,0,0,4.16667,-6231.46,-4084.29)">
            <path d="M1573.18,1088.3C1574.36,1088.64 1575.49,1088.18 1575.85,1087.19C1575.95,1086.9 1576.08,1086.57 1575.72,1086.39C1575.4,1086.24 1575.25,1086.46 1575.12,1086.73C1574.69,1087.64 1573.98,1087.89 1573.15,1087.36C1572.34,1086.84 1572.19,1086.03 1572.6,1085.15C1573.18,1083.91 1574.71,1083.54 1575.91,1084.35C1577,1085.08 1577.42,1086.27 1577.05,1087.56C1576.64,1089.03 1575.22,1090.31 1573.71,1090.21C1572.04,1090.09 1570.41,1090.14 1568.65,1090.58C1568.83,1090.2 1568.88,1089.96 1569.02,1089.8C1570.19,1088.39 1570.31,1087.3 1569.44,1085.76C1569.29,1085.51 1569.21,1085.16 1568.77,1085.38C1567.54,1085.97 1566.83,1088.22 1567.61,1089.35C1568,1089.91 1567.94,1090.31 1567.53,1090.75C1567.19,1091.11 1566.87,1091.5 1566.47,1091.79C1563.89,1093.68 1562.66,1096.37 1562.02,1099.4C1561.96,1099.7 1561.82,1100.15 1562.29,1100.26C1562.73,1100.37 1562.72,1099.92 1562.84,1099.67C1563.13,1099.04 1563.42,1098.43 1564.04,1098.04C1564.43,1097.79 1564.69,1097.75 1565.12,1098.1C1566.86,1099.54 1568.18,1099.46 1570.01,1097.93C1570.63,1097.42 1571.58,1096.78 1571.45,1096.16C1571.31,1095.48 1570.15,1095.41 1569.38,1095.22C1567.77,1094.82 1566.29,1094.89 1565.22,1096.47C1564.9,1096.97 1564.24,1097.01 1563.55,1097.08C1564.83,1094.06 1566.76,1091.95 1569.92,1091.19C1571.12,1090.9 1572.38,1091.79 1572.25,1092.92C1572.05,1094.69 1572.91,1095.41 1574.93,1096C1575.2,1096.08 1575.42,1096.11 1575.53,1095.72C1575.85,1094.61 1574.94,1092.65 1573.83,1092.31C1573.18,1092.1 1572.83,1091.71 1572.58,1091.06C1573.45,1090.97 1574.15,1091.28 1574.8,1091.66C1577.83,1093.41 1578.92,1096.35 1579.34,1099.57C1579.48,1100.62 1578.71,1101.48 1577.7,1101.99C1576.75,1102.46 1575.83,1102.42 1574.98,1101.84C1574.13,1101.26 1573.9,1100.37 1574.12,1099.41C1574.3,1098.62 1574.9,1098.19 1575.7,1098.13C1576.45,1098.08 1576.95,1098.47 1577.1,1099.2C1577.23,1099.8 1576.98,1100.26 1576.37,1100.44C1576.06,1100.54 1575.56,1100.49 1575.74,1101C1575.91,1101.48 1576.39,1101.29 1576.73,1101.18C1577.72,1100.86 1578.16,1099.96 1577.88,1098.88C1577.61,1097.81 1576.52,1097.12 1575.42,1097.3C1574.15,1097.52 1573.27,1098.49 1573.16,1099.82C1573.04,1101.13 1573.95,1102.48 1575.23,1102.91C1576.96,1103.49 1578.32,1102.76 1579.61,1101.59C1579.81,1102.2 1579.95,1102.71 1580.13,1103.21C1580.89,1105.25 1582.21,1106.61 1584.49,1106.92C1585.68,1107.08 1586.75,1106.79 1587.85,1106.48C1589.71,1105.95 1591.2,1106.69 1591.69,1108.35C1592.06,1109.59 1591.01,1111.03 1589.75,1110.99C1588.97,1110.97 1588.46,1110.53 1588.21,1109.83C1588.02,1109.32 1588.21,1108.84 1588.67,1108.54C1589.24,1108.16 1589.75,1108.3 1590.17,1108.83C1590.32,1109.01 1590.5,1109.19 1590.74,1108.96C1590.94,1108.78 1590.94,1108.55 1590.8,1108.34C1590.51,1107.91 1590.14,1107.59 1589.6,1107.54C1588.68,1107.46 1587.93,1107.72 1587.56,1108.64C1587.15,1109.63 1587.34,1110.53 1588.16,1111.23C1588.96,1111.9 1589.89,1112.05 1590.84,1111.6C1591.84,1111.13 1592.46,1110.32 1592.54,1109.2C1592.67,1107.35 1591.64,1106.24 1589.91,1105.53C1590.7,1104.93 1591.23,1103.98 1592.18,1103.99C1594.66,1103.99 1595.21,1102.51 1595.59,1100.72C1595.74,1100 1596.23,1099.04 1595.66,1098.56C1595.15,1098.12 1594.32,1098.78 1593.66,1099.03C1591.6,1099.78 1591.01,1100.63 1591.1,1102.79C1591.12,1103.32 1590.97,1103.65 1590.55,1103.92C1589.81,1104.4 1589.13,1104.98 1588.35,1105.37C1587.5,1105.8 1586.61,1106.26 1585.45,1106.08C1585.78,1105.58 1586.05,1105.19 1586.5,1104.95C1588.03,1104.12 1588.58,1102.83 1588.12,1101.19C1588.04,1100.9 1588.03,1100.7 1587.63,1100.79C1586.25,1101.08 1584.95,1102.72 1585.28,1104C1585.49,1104.79 1585.13,1105.15 1584.62,1105.51C1584.05,1105.92 1583.47,1106 1582.84,1105.52C1581.45,1104.47 1580.74,1103.09 1580.52,1101.18C1581.87,1102 1583.09,1102.12 1584.33,1101.6C1585.67,1101.04 1586.36,1099.47 1585.93,1098.08C1585.53,1096.75 1584.42,1096.07 1583.01,1096.3C1581.96,1096.47 1581.28,1097.42 1581.4,1098.57C1581.51,1099.59 1582.16,1100.19 1583.14,1100.15C1583.48,1100.13 1583.91,1100.18 1583.91,1099.7C1583.92,1099.27 1583.53,1099.32 1583.23,1099.32C1582.65,1099.33 1582.26,1099.06 1582.19,1098.48C1582.12,1097.94 1582.4,1097.52 1582.87,1097.26C1583.63,1096.85 1584.29,1097.07 1584.81,1097.68C1585.49,1098.49 1585.28,1099.89 1584.42,1100.54C1582.81,1101.77 1580.62,1100.96 1580.15,1098.91C1579.83,1097.49 1579.42,1096.11 1578.83,1094.78C1578.72,1094.53 1578.35,1094.28 1578.64,1093.98C1578.9,1093.72 1579.24,1093.73 1579.61,1093.83C1581.98,1094.45 1582.64,1094.21 1584.03,1092.2C1584.46,1091.58 1585.23,1090.84 1584.92,1090.21C1584.58,1089.55 1583.53,1089.84 1582.79,1089.84C1580.5,1089.84 1579.73,1090.4 1578.99,1092.48C1578.76,1093.16 1578.06,1093.39 1577.58,1092.83C1576.91,1092.06 1576.04,1091.53 1575.26,1090.79C1577.08,1089.79 1578.14,1088.41 1578.02,1086.34C1577.92,1084.65 1576.46,1083.22 1574.73,1083.08C1573.18,1082.96 1571.86,1084.02 1571.56,1085.62C1571.34,1086.74 1572.1,1087.99 1573.18,1088.3Z" style="fill:rgb(47,132,153);fill-rule:nonzero;"/>
        </g>
        <g transform="matrix(4.16667,0,0,4.16667,-6231.46,-4084.29)">
            <path d="M1474.33,1101.79C1474.68,1102.81 1475.38,1103.78 1476.47,1103.75C1477.93,1103.72 1478.75,1104.58 1479.7,1105.35C1479.58,1105.74 1479.19,1105.67 1478.94,1105.82C1477.15,1106.87 1476.56,1109.01 1477.67,1110.63C1478.3,1111.55 1479.24,1111.96 1480.35,1111.79C1481.45,1111.61 1482.09,1110.88 1482.34,1109.83C1482.55,1108.95 1481.99,1107.94 1481.14,1107.59C1480.34,1107.25 1479.64,1107.39 1479.1,1108.09C1478.91,1108.34 1478.55,1108.65 1478.93,1108.97C1479.24,1109.24 1479.47,1108.97 1479.66,1108.7C1480.01,1108.2 1480.49,1108.19 1480.98,1108.43C1481.5,1108.69 1481.6,1109.18 1481.54,1109.7C1481.41,1110.78 1480.04,1111.35 1479.02,1110.75C1478.12,1110.23 1477.66,1109.12 1477.96,1108.21C1478.38,1106.92 1479.78,1106.02 1481.1,1106.24C1481.81,1106.37 1482.5,1106.61 1483.2,1106.77C1485.56,1107.33 1487.83,1106.37 1489.12,1104.32C1489.68,1103.43 1489.84,1102.42 1490.13,1101.45C1490.54,1101.52 1490.7,1101.86 1490.95,1102.08C1492.78,1103.66 1495.49,1103.16 1496.46,1101.05C1496.93,1100.04 1496.73,1098.77 1495.98,1097.95C1495.26,1097.16 1494.36,1096.98 1493.37,1097.26C1492.36,1097.54 1491.8,1098.47 1491.91,1099.56C1492,1100.43 1492.5,1100.95 1493.35,1101.1C1493.6,1101.15 1494.01,1101.29 1494.13,1100.88C1494.26,1100.42 1493.83,1100.45 1493.57,1100.36C1492.86,1100.14 1492.57,1099.65 1492.75,1098.95C1492.93,1098.29 1493.44,1097.97 1494.12,1097.96C1495.3,1097.95 1496.13,1099.04 1495.88,1100.24C1495.61,1101.54 1494.36,1102.4 1493.06,1102.19C1491.48,1101.93 1490.24,1100.4 1490.48,1098.94C1490.74,1097.31 1491.28,1095.76 1492.12,1094.34C1493.34,1092.26 1495.07,1090.89 1497.79,1090.62C1497.16,1091.12 1497.01,1091.85 1496.44,1091.97C1494.6,1092.35 1494.54,1093.81 1494.36,1095.21C1494.33,1095.44 1494.22,1095.74 1494.63,1095.84C1495.9,1096.13 1497.87,1094.32 1497.74,1092.97C1497.61,1091.69 1498.57,1090.65 1499.8,1090.85C1502.69,1091.3 1505.72,1094.01 1506.41,1097.12C1505.81,1096.7 1505.01,1096.79 1504.61,1096.16C1503.81,1094.91 1502.63,1094.7 1501.3,1094.92C1500.26,1095.08 1498.69,1095.15 1498.52,1096C1498.36,1096.78 1499.7,1097.64 1500.59,1098.24C1502.03,1099.22 1503.63,1099.27 1504.66,1098.1C1505.36,1097.3 1505.73,1097.66 1506.28,1098.07C1506.76,1098.42 1507.03,1098.92 1507.21,1099.47C1507.3,1099.76 1507.33,1100.18 1507.73,1100.1C1508.21,1100 1508.03,1099.59 1507.97,1099.25C1507.48,1096.24 1506.15,1093.7 1503.76,1091.76C1503.19,1091.3 1502.62,1090.86 1502.23,1090.23C1502.05,1089.93 1501.91,1089.7 1502.15,1089.3C1503.07,1087.78 1502.68,1086.11 1501.24,1085.15C1501.04,1085.01 1500.92,1084.9 1500.69,1085.15C1499.75,1086.17 1499.72,1088.27 1500.7,1089.23C1501.02,1089.53 1501.21,1089.82 1501.21,1090.29C1500.3,1090.14 1499.48,1089.94 1498.65,1089.88C1497.82,1089.82 1496.98,1089.93 1496.14,1089.92C1494.32,1089.88 1492.79,1088.44 1492.64,1086.62C1492.55,1085.45 1493.09,1084.55 1494.07,1083.94C1494.97,1083.38 1495.89,1083.42 1496.74,1084.05C1497.37,1084.52 1497.7,1085.17 1497.57,1085.94C1497.46,1086.62 1497,1087.11 1496.32,1087.29C1495.57,1087.49 1495.09,1087.12 1494.77,1086.45C1494.66,1086.22 1494.52,1085.92 1494.17,1086.09C1493.79,1086.29 1493.95,1086.6 1494.06,1086.89C1494.4,1087.81 1495.54,1088.39 1496.48,1088.13C1497.74,1087.79 1498.57,1086.5 1498.33,1085.24C1498.05,1083.73 1496.81,1082.67 1495.39,1082.7C1493.6,1082.75 1492.04,1084.15 1491.85,1085.85C1491.62,1088.09 1492.84,1089.48 1494.7,1090.58C1493.81,1091.13 1493.11,1091.76 1492.44,1092.43C1491.67,1093.19 1490.99,1093.02 1490.77,1091.99C1490.52,1090.81 1489.81,1090.1 1488.69,1089.79C1487.53,1089.46 1486.34,1089.63 1485.16,1089.68C1484.64,1089.71 1484.64,1090 1484.85,1090.38C1485.35,1091.33 1485.85,1092.26 1486.64,1093.02C1487.59,1093.94 1488.65,1094.21 1489.89,1093.72C1490.1,1093.64 1490.32,1093.51 1490.53,1093.52C1491.09,1093.56 1491.63,1093.57 1491.14,1094.43C1490.4,1095.74 1489.98,1097.17 1489.73,1098.65C1489.5,1099.98 1488.47,1100.88 1487.13,1100.99C1485.98,1101.08 1484.86,1100.33 1484.58,1099.28C1484.31,1098.29 1484.72,1097.46 1485.62,1097C1486.24,1096.68 1486.74,1096.88 1487.21,1097.23C1487.61,1097.52 1487.74,1097.98 1487.6,1098.46C1487.45,1099.02 1487.01,1099.2 1486.45,1099.18C1486.18,1099.17 1485.87,1099.2 1485.89,1099.58C1485.91,1099.92 1486.22,1099.96 1486.48,1100C1487.41,1100.15 1488.27,1099.47 1488.41,1098.48C1488.57,1097.39 1488,1096.48 1486.98,1096.19C1485.68,1095.83 1484.45,1096.38 1483.94,1097.56C1483.1,1099.48 1484.44,1101.59 1486.58,1101.78C1487.55,1101.87 1488.4,1101.52 1489.38,1101.08C1489.06,1103 1488.38,1104.5 1486.82,1105.5C1486.23,1105.88 1485.65,1105.83 1485.11,1105.44C1484.73,1105.16 1484.28,1104.91 1484.35,1104.29C1484.55,1102.45 1483.93,1101.39 1482.3,1100.73C1482.07,1100.64 1481.84,1100.46 1481.63,1100.82C1481.03,1101.85 1481.67,1104.28 1482.76,1104.64C1483.53,1104.9 1483.87,1105.47 1484.46,1106.15C1482.08,1105.95 1480.35,1104.86 1478.76,1103.46C1478.41,1103.15 1478.62,1102.83 1478.66,1102.51C1478.81,1101.35 1478.45,1100.42 1477.52,1099.7C1476.81,1099.15 1476,1098.81 1475.18,1098.52C1473.86,1098.05 1473.62,1098.26 1473.86,1099.67C1473.97,1100.39 1474.09,1101.11 1474.33,1101.79Z" style="fill:rgb(47,132,153);fill-rule:nonzero;"/>
        </g>
        <g transform="matrix(4.16667,0,0,4.16667,-6231.46,-4084.29)">
            <path d="M1595.05,1158.6C1595.1,1158.74 1595.12,1158.89 1595.19,1159.01C1597.18,1162.29 1599.75,1165 1602.95,1167.13C1603.49,1167.49 1604.52,1167.64 1604.41,1168.35C1604.32,1168.95 1603.32,1169.06 1602.72,1169.37C1601.49,1170 1600.17,1170.47 1598.86,1171.36C1600.91,1172.1 1602.79,1172.18 1604.7,1171.97C1609.68,1171.4 1614.43,1170.15 1618.65,1167.3C1619.5,1166.72 1620.27,1166.03 1620.74,1164.87C1611.16,1166.4 1602.82,1163.77 1595.05,1158.6Z" style="fill:rgb(47,132,153);fill-rule:nonzero;"/>
        </g>
        <g transform="matrix(4.16667,0,0,4.16667,-6231.46,-4084.29)">
            <path d="M1469.06,1170.03C1468.72,1169.65 1468.29,1169.6 1467.9,1169.48C1466.5,1169.04 1465.24,1168.34 1464.04,1167.51C1463.56,1167.18 1463.22,1166.93 1464.03,1166.53C1464.71,1166.2 1465.32,1165.72 1465.95,1165.29C1468.93,1163.22 1471.35,1160.65 1472.97,1157.33C1465.22,1162.65 1456.77,1165.01 1447.12,1163.58C1447.77,1164.38 1448.28,1164.86 1448.86,1165.29C1453.32,1168.63 1458.39,1170.35 1463.87,1170.94C1465.64,1171.12 1467.46,1171.13 1469.06,1170.03Z" style="fill:rgb(47,132,153);fill-rule:nonzero;"/>
        </g>
        <g transform="matrix(4.16667,0,0,4.16667,-6231.46,-4084.29)">
            <path d="M1472.04,1178.26C1471.58,1178.09 1471.22,1178.01 1471.77,1177.47C1473.43,1175.83 1474.81,1173.96 1476.11,1172.04C1477.11,1170.58 1478.08,1169.11 1478.68,1167.37C1472.25,1172.4 1465.49,1176.81 1457.63,1179.83C1462.92,1182.77 1475.08,1182.35 1478.12,1179.26C1476.04,1179.18 1474,1178.96 1472.04,1178.26Z" style="fill:rgb(47,132,153);fill-rule:nonzero;"/>
        </g>
        <g transform="matrix(4.16667,0,0,4.16667,-6231.46,-4084.29)">
            <path d="M1589.86,1169.76C1591.57,1172.83 1593.44,1175.79 1595.85,1178.37C1596.07,1178.61 1596.44,1178.85 1596.31,1179.22C1596.17,1179.62 1595.72,1179.48 1595.4,1179.53C1593.44,1179.84 1591.49,1180.13 1589.32,1180.46C1594.16,1183.55 1607.1,1183.84 1609.94,1180.98C1602.33,1177.98 1595.5,1173.79 1589.39,1168.23C1589.29,1168.95 1589.64,1169.35 1589.86,1169.76Z" style="fill:rgb(47,132,153);fill-rule:nonzero;"/>
        </g>
        <g transform="matrix(4.16667,0,0,4.16667,-6231.46,-4084.29)">
            <path d="M1598.49,1189.92C1593.28,1188.38 1588.91,1185.5 1585.14,1181.64C1584.81,1181.3 1584.65,1180.76 1583.95,1180.65C1584.51,1183.29 1585.56,1185.61 1587.36,1187.56C1588.5,1188.81 1588.5,1188.92 1586.88,1189.5C1586.45,1189.66 1586.01,1189.78 1585.56,1189.85C1584.37,1190.06 1583.17,1190.24 1581.73,1190.47C1582.03,1190.72 1582.12,1190.85 1582.25,1190.91C1587.64,1193.54 1593.12,1193.85 1598.69,1191.5C1599.13,1191.31 1599.75,1191.01 1599.71,1190.54C1599.66,1190.03 1598.94,1190.05 1598.49,1189.92Z" style="fill:rgb(47,132,153);fill-rule:nonzero;"/>
        </g>
        <g transform="matrix(4.16667,0,0,4.16667,-6231.46,-4084.29)">
            <path d="M1485.71,1189.54C1485.41,1189.3 1485.05,1189.39 1484.72,1189.34C1483.25,1189.12 1481.79,1188.92 1480.41,1188.29C1479.5,1187.87 1479.4,1187.54 1480.16,1186.79C1482.16,1184.81 1483.34,1182.38 1483.95,1179.29C1481.55,1181.8 1479.25,1183.94 1476.54,1185.6C1473.8,1187.27 1470.81,1188.34 1467.71,1189.33C1471.68,1193.13 1483.79,1192.43 1485.71,1189.54Z" style="fill:rgb(47,132,153);fill-rule:nonzero;"/>
        </g>
        <g transform="matrix(4.16667,0,0,4.16667,-6231.46,-4084.29)">
            <path d="M1511.24,1062.55C1511.85,1062.58 1512.45,1062.7 1513.22,1062.81C1512.83,1063.52 1512.64,1064.14 1513.14,1064.72C1513.33,1064.95 1513.35,1065.1 1513.14,1065.29C1513.08,1065.34 1513.03,1065.4 1512.98,1065.45C1512.73,1065.72 1512.49,1066.22 1512.71,1066.37C1513.82,1067.15 1512.48,1068.76 1513.8,1069.42C1513.93,1069.49 1514.08,1069.52 1514.22,1069.58C1513.41,1070.35 1514.43,1071.04 1514.32,1071.77C1514.2,1072.48 1514.95,1073.32 1513.99,1073.91C1513.78,1074.04 1513.92,1074.49 1514.04,1074.53C1514.93,1074.81 1514.81,1076.24 1515.98,1076.19C1516.35,1076.18 1516.34,1076.51 1516.3,1076.78C1516.2,1077.58 1516.02,1078.35 1515.52,1079.02C1514.31,1080.64 1511.12,1081.76 1508.79,1080.4C1508.29,1080.1 1507.76,1079.85 1507.85,1079.03C1507.92,1078.36 1507.17,1077.96 1506.81,1077.52C1506.41,1077.05 1506.34,1076.8 1506.53,1076.32C1506.84,1075.55 1506.54,1074.93 1506.06,1074.33C1505.19,1073.22 1504.27,1072.13 1504,1070.68C1503.18,1066.24 1506.69,1062.3 1511.24,1062.55ZM1517.81,1079.51C1517.79,1079.46 1517.77,1079.41 1517.75,1079.36C1517.94,1079.33 1518.12,1079.26 1518.31,1079.31C1519.55,1079.4 1519.97,1079.72 1520.11,1080.71C1520.55,1081.4 1521.26,1081.54 1521.99,1081.62C1522.09,1081.63 1522.19,1081.63 1522.29,1081.64C1519.75,1081.67 1517.26,1081.95 1514.9,1082.38C1516.27,1081.92 1517.33,1081.03 1517.81,1079.51ZM1520.51,1061.89C1522.44,1060.69 1524.52,1060.25 1526.75,1060.96C1527.1,1061.07 1527.44,1061.22 1527.8,1061.13C1527.87,1061.46 1528.21,1061.62 1528.5,1061.81C1529.33,1062.34 1530.21,1062.82 1531.01,1063.39C1531.43,1063.69 1531.79,1064.01 1531.86,1064.56C1532.01,1065.73 1532.23,1066.9 1532.21,1068.08C1532.2,1068.83 1532.31,1069.65 1531.55,1070.28C1530.46,1071.2 1530.44,1071.81 1531.21,1073.05C1532.29,1074.76 1532.03,1076.26 1530.4,1077.41C1527.53,1079.42 1524.51,1079.45 1521.43,1077.92C1521.05,1077.73 1520.7,1077.45 1520.27,1077.59C1520.29,1077.36 1520.23,1077.13 1520.07,1076.96C1519.08,1075.9 1518.91,1074.7 1519.43,1073.36C1519.6,1072.91 1519.43,1072.45 1519.17,1072.06C1518.98,1071.77 1518.73,1071.52 1518.74,1071.14C1518.79,1070.01 1518.34,1068.97 1518.09,1067.9C1517.49,1065.4 1518.31,1063.26 1520.51,1061.89ZM1534.22,1078.37C1534.75,1077.86 1535.16,1077.81 1535.66,1078.35C1536.28,1079.03 1537.03,1079.55 1537.8,1080.04C1538.18,1080.28 1538.58,1080.47 1538.97,1080.27C1539.02,1080.35 1539.06,1080.42 1539.11,1080.49C1539.77,1081.07 1540.59,1081.24 1541.41,1081.4C1541.5,1081.42 1541.59,1081.44 1541.68,1081.45L1541.65,1081.45C1541.58,1081.45 1541.5,1081.46 1541.43,1081.47C1541.17,1081.35 1540.86,1081.36 1540.57,1081.34C1539.64,1081.26 1538.7,1081.38 1537.78,1081.2C1537.01,1081.18 1536.23,1081.23 1535.46,1081.18C1535.11,1081.24 1534.76,1081.24 1534.41,1081.18C1533.58,1081.31 1532.75,1081.18 1531.92,1081.19C1530.79,1081.39 1529.63,1081.27 1528.5,1081.41C1530.62,1080.94 1532.55,1079.97 1534.22,1078.37ZM1538.03,1064.72C1538.02,1064.1 1538.39,1063.67 1538.88,1063.32C1539.84,1062.62 1540.9,1062.1 1541.94,1061.53C1544.62,1060.05 1547.14,1060.5 1549.59,1062.06C1549.93,1062.27 1550.24,1062.54 1550.64,1062.5C1550.64,1062.5 1550.63,1062.5 1550.63,1062.51C1550.65,1062.95 1550.91,1063.29 1551.11,1063.65C1551.49,1064.31 1551.93,1064.98 1551.97,1065.74C1552.11,1067.85 1551.29,1069.81 1550.79,1071.81C1550.63,1072.49 1550.24,1073.06 1550.47,1073.83C1550.79,1074.9 1550.65,1075.88 1549.83,1076.78C1548.69,1078.02 1547.23,1078.56 1545.68,1078.98C1545.58,1079.02 1545.48,1079.05 1545.39,1079.08C1544.96,1078.93 1544.48,1079.04 1544.04,1079.05C1542.01,1079.09 1540.34,1078.33 1538.92,1076.93C1537.62,1075.65 1537.59,1074.65 1538.84,1073.28C1539.85,1072.15 1539.79,1071.24 1538.55,1070.31C1538.12,1069.99 1537.99,1069.66 1537.96,1069.18C1537.83,1067.69 1538.05,1066.21 1538.03,1064.72ZM1552.39,1080.54C1553.03,1081.42 1553.87,1082.09 1554.95,1082.35C1555.19,1082.41 1555.43,1082.47 1555.68,1082.53C1553.04,1081.94 1550.37,1081.56 1547.68,1081.66C1547.54,1081.67 1547.4,1081.67 1547.25,1081.67C1548.62,1081.53 1549.93,1081.12 1551.16,1080.32C1551.67,1079.98 1552,1080.02 1552.39,1080.54ZM1553.7,1076.27C1554.89,1076.34 1554.81,1074.91 1555.71,1074.66C1555.93,1074.6 1556.12,1074.21 1555.92,1073.97C1554.94,1072.84 1555.73,1071.78 1555.86,1070.63C1555.94,1069.85 1556.16,1069.35 1556.59,1068.8C1556.81,1068.52 1556.78,1068.12 1556.6,1067.81C1556.13,1067.01 1557.44,1066.82 1557.16,1066.03C1556.98,1065.53 1556.11,1065.08 1556.88,1064.39C1556.97,1064.3 1557.03,1064.08 1556.98,1063.96C1556.36,1062.34 1557.66,1062.72 1558.43,1062.57C1558.65,1062.53 1558.88,1062.57 1559.11,1062.57C1562.83,1062.69 1565.73,1065.33 1566.03,1069.03C1566.18,1070.86 1565.35,1072.44 1564.18,1073.81C1563.45,1074.67 1562.96,1075.47 1563.38,1076.69C1563.6,1077.36 1562.58,1077.67 1562.44,1078.33C1562.4,1078.49 1562.15,1078.59 1562.07,1078.75C1561.19,1080.56 1560.11,1081.15 1557.96,1080.95C1555.58,1080.72 1553.92,1079.21 1553.6,1076.96C1553.56,1076.71 1553.42,1076.26 1553.7,1076.27ZM1525.46,1081.74L1525.52,1081.74C1525.78,1081.74 1526.03,1081.72 1526.29,1081.71C1526.01,1081.75 1525.74,1081.77 1525.46,1081.74ZM1558.6,1087.66C1558.31,1088.8 1558.02,1089.04 1556.83,1088.81C1551.87,1087.85 1546.86,1087.44 1541.82,1087.3C1541.65,1087.32 1541.48,1087.34 1541.3,1087.37C1540.89,1087.19 1540.4,1087.28 1539.97,1087.29C1534.68,1087.36 1529.39,1087.1 1524.09,1087.47C1520.21,1087.74 1516.36,1088.15 1512.55,1088.93C1512.26,1088.99 1511.96,1089.03 1511.71,1089.18C1510.55,1087.55 1510.91,1086.5 1512.83,1085.9C1513.2,1085.79 1513.57,1085.7 1513.94,1085.63C1516.76,1085.14 1519.61,1084.95 1522.45,1084.64C1523.27,1084.62 1524.05,1084.21 1524.89,1084.37C1525.01,1084.38 1525.13,1084.37 1525.25,1084.34C1526.19,1083.9 1527.26,1084.21 1528.22,1083.85C1528.23,1083.83 1528.24,1083.82 1528.25,1083.8C1528.72,1084.3 1529.36,1084.19 1529.95,1084.22C1532.05,1084.34 1534.14,1083.76 1536.23,1084.05C1538.32,1084.33 1540.42,1084.25 1542.51,1084.41C1546.5,1084.71 1550.5,1084.86 1554.47,1085.42C1555.6,1085.58 1556.73,1085.78 1557.79,1086.25C1558.39,1086.52 1558.81,1086.87 1558.6,1087.66ZM1499.61,1072.29C1499.68,1072.38 1499.83,1072.43 1499.86,1072.52C1500.12,1073.39 1499.9,1074.52 1501.13,1074.87C1501.09,1074.97 1501.01,1075.09 1501.02,1075.19C1501.06,1075.41 1501.11,1075.79 1501.21,1075.81C1502.32,1076.02 1502.28,1077.63 1503.47,1077.57C1503.56,1078.18 1502.32,1077.83 1502.87,1078.34C1503.62,1079.03 1504.6,1080.07 1505.34,1080.12C1507.29,1080.23 1507.44,1081.65 1508.03,1082.83C1508.23,1083.23 1508.19,1083.62 1507.85,1083.99C1507.13,1084.77 1507.5,1085.37 1508.23,1085.87C1509.91,1087.01 1510.41,1089.48 1509.31,1091.23C1509.16,1091.47 1508.82,1091.68 1509.21,1091.99C1509.53,1092.25 1509.86,1092.09 1510.19,1092.04C1513.8,1091.51 1517.43,1091.24 1521.07,1091.04C1524.55,1090.85 1528.04,1090.7 1531.52,1090.52C1535.07,1090.61 1538.62,1090.57 1542.17,1090.73C1548.08,1090.99 1553.98,1091.27 1559.85,1092.04C1560.09,1092.07 1560.41,1092.25 1560.58,1091.96C1560.74,1091.68 1560.61,1091.38 1560.46,1091.1C1559.52,1089.35 1560.09,1086.93 1561.7,1085.83C1562.28,1085.45 1562.71,1084.83 1562.23,1084.32C1561.33,1083.37 1561.76,1082.52 1562.28,1081.75C1562.76,1081.03 1563.05,1079.89 1564.37,1080.24C1564.63,1080.31 1564.93,1080.1 1565.02,1079.86C1565.26,1079.24 1565.79,1079.07 1566.31,1078.83C1567.02,1078.5 1567.48,1078.12 1566.32,1077.67C1566.71,1077.34 1567.33,1077.47 1567.42,1077.02C1567.54,1076.41 1568.24,1076.26 1568.35,1076.02C1568.73,1075.14 1569.29,1074.43 1569.87,1073.71C1569.93,1073.64 1569.78,1073.41 1569.8,1073.28C1570.01,1072.29 1570.84,1071.39 1570.2,1070.29C1570.19,1070.27 1570.3,1070.18 1570.35,1070.13C1571.43,1069.03 1569.4,1068.01 1570.28,1066.88C1570.44,1066.68 1570.15,1066.32 1569.91,1066.11C1569.85,1066.06 1569.79,1066 1569.73,1065.96C1568.82,1065.43 1569.24,1063.74 1567.77,1063.68C1567.76,1063.68 1567.75,1063.47 1567.76,1063.35C1567.86,1061.95 1565.81,1062.52 1565.79,1061.19C1565.78,1061 1565.35,1060.83 1565.1,1060.9C1564.6,1061.03 1564.31,1060.91 1564.1,1060.45C1563.98,1060.19 1563.67,1060.02 1563.43,1060.07C1562.37,1060.31 1561.42,1059.61 1560.4,1059.76C1559.19,1059.94 1557.92,1059.74 1556.77,1060.44C1556.24,1060.76 1555.57,1060.92 1554.83,1060.81C1554.11,1060.7 1554.51,1060.15 1554.23,1059.9C1553.97,1059.67 1553.77,1059.39 1553.37,1059.41C1553.15,1059.42 1552.86,1059.45 1552.78,1059.18C1552.54,1058.3 1551.85,1058.46 1551.22,1058.47C1550.97,1057.27 1549.74,1057.73 1549.11,1057.51C1547.42,1056.93 1545.5,1057.06 1543.72,1057.4C1541.78,1057.77 1540.06,1058.77 1538.58,1060.09C1538.37,1060.27 1538.23,1060.56 1537.94,1060.41C1537.67,1060.29 1537.86,1060 1537.89,1059.8C1537.95,1059.39 1537.67,1058.87 1538.25,1058.59C1538.44,1058.49 1538.37,1058.18 1538.25,1058.08C1537.54,1057.48 1537.59,1056.15 1536.3,1056.06C1536.02,1056.04 1535.62,1055.73 1535.67,1055.35C1535.73,1054.97 1536.17,1055.08 1536.44,1054.98C1538.27,1054.27 1539.43,1052.4 1539.21,1050.44C1538.98,1048.48 1537.49,1046.96 1535.49,1046.68C1533.57,1046.41 1531.72,1047.47 1530.97,1049.26C1530.19,1051.14 1530.74,1053.15 1532.32,1054.38C1532.9,1054.84 1533.62,1054.95 1534.27,1055.31C1534,1055.88 1533.56,1056.22 1533.04,1056.32C1531.92,1056.54 1532.32,1057.87 1531.53,1058.31C1531.44,1058.36 1531.5,1058.63 1531.67,1058.68C1532.16,1058.83 1531.95,1059.24 1532,1059.55C1532.04,1059.85 1532.33,1060.26 1531.91,1060.45C1531.6,1060.59 1531.43,1060.11 1531.21,1060.03C1530.33,1059.68 1529.92,1058.5 1528.77,1058.66C1528.78,1058.09 1528.42,1058.19 1528.07,1058.27C1527.92,1058.17 1527.78,1058.07 1527.63,1057.98C1527.52,1057.68 1527.28,1057.66 1527,1057.62C1525.98,1057.5 1524.97,1057.29 1523.93,1057.23C1522.68,1057.17 1521.49,1057.34 1520.29,1057.59C1519.55,1057.75 1518.84,1058.25 1518.19,1058.39C1517.15,1058.6 1516.87,1059.93 1515.74,1059.78C1515.7,1059.77 1515.61,1059.96 1515.58,1060.07C1515.31,1061.16 1514.59,1060.94 1513.84,1060.68C1512.77,1060.31 1511.74,1059.91 1510.53,1059.88C1509.92,1059.87 1509.25,1060.1 1508.73,1059.9C1507.75,1059.53 1507,1060.64 1506.06,1060.17C1506,1060.14 1505.69,1060.44 1505.62,1060.63C1505.51,1060.96 1505.35,1061.03 1505.03,1060.95C1504.28,1060.77 1503.85,1061.12 1503.73,1061.84C1503.67,1062.21 1503.48,1062.2 1503.19,1062.22C1502.44,1062.29 1502,1062.69 1502.05,1063.49C1502.06,1063.75 1502.02,1063.94 1501.71,1063.97C1500.73,1064.03 1500.66,1064.59 1500.66,1065.46C1500.66,1066.04 1499.39,1066.12 1499.58,1067.06C1499.59,1067.1 1499.58,1067.14 1499.59,1067.17C1499.86,1067.8 1499.74,1068.29 1499.3,1068.86C1498.8,1069.51 1499.75,1070.05 1499.74,1070.53C1499.73,1071.08 1499.11,1071.63 1499.61,1072.29Z" style="fill:rgb(47,132,153);fill-rule:nonzero;"/>
        </g>
        <g transform="matrix(4.16667,0,0,4.16667,-6231.46,-4084.29)">
            <path d="M1548.12,1161.74C1547.14,1162.55 1546.58,1163.5 1545.93,1164.38C1543.34,1167.92 1541.93,1171.84 1542.88,1176.2C1543.68,1179.9 1543.05,1183.08 1540.83,1186.13C1539.12,1188.48 1537.86,1191.1 1537.35,1194.02C1537.06,1195.64 1537,1197.25 1537.54,1198.85C1537.98,1197.3 1538.66,1195.92 1539.59,1194.63C1541.48,1191.98 1543.77,1189.69 1545.98,1187.32C1547.41,1185.8 1549.14,1184.43 1549.77,1182.36C1550.93,1178.56 1549.49,1175.14 1547.91,1171.78C1547.93,1173.67 1548.1,1175.54 1548.04,1177.43C1547.99,1179.33 1547.83,1181.18 1546.41,1183.02C1546.49,1181.85 1546.65,1181.01 1546.59,1180.19C1546.42,1178.1 1546.09,1176.03 1545.96,1173.94C1545.82,1171.64 1546.14,1169.42 1547.41,1167.25C1549.21,1169.9 1550.8,1172.44 1551.85,1175.29C1553.09,1178.67 1552.92,1181.81 1550.53,1184.74C1548.78,1186.9 1547.21,1189.21 1545.99,1191.73C1545.11,1193.55 1544.73,1195.18 1545.04,1196.2C1545.51,1195.58 1545.95,1194.91 1546.48,1194.32C1548.41,1192.16 1550.29,1189.95 1552.2,1187.77C1556.46,1182.91 1556,1174.13 1552.39,1169.92C1550.41,1167.61 1548.78,1164.99 1548.12,1161.74Z" style="fill:rgb(47,132,153);fill-rule:nonzero;"/>
        </g>
        <g transform="matrix(4.16667,0,0,4.16667,-6231.46,-4084.29)">
            <path d="M1528.73,1185.99C1526.68,1183.07 1525.8,1180.07 1526.71,1176.52C1527.58,1173.12 1526.9,1169.85 1525.24,1166.8C1524.27,1165.01 1523.12,1163.33 1521.62,1161.75C1520.91,1164.46 1519.65,1166.7 1518.12,1168.81C1516.78,1170.65 1515.41,1172.45 1514.87,1174.78C1513.79,1179.51 1514.41,1183.79 1517.47,1187.73C1519.79,1190.73 1522.66,1193.25 1524.9,1196.62C1524.79,1194.45 1524.22,1192.66 1523.3,1190.96C1521.92,1188.4 1520.15,1186.1 1518.46,1183.75C1517.55,1182.48 1517.03,1181.06 1517.07,1179.48C1517.17,1174.77 1519.76,1171.13 1522.18,1167.34C1523.2,1168.8 1523.66,1170.51 1523.74,1172.41C1523.88,1175.87 1522.66,1179.24 1523.13,1182.74C1521.87,1181.2 1521.7,1179.37 1521.62,1177.51C1521.54,1175.65 1521.76,1173.8 1521.76,1171.93C1520.49,1174.16 1519.72,1176.52 1519.54,1179.07C1519.37,1181.54 1520.12,1183.63 1521.89,1185.39C1523.29,1186.79 1524.66,1188.23 1525.98,1189.71C1528.43,1192.46 1531.1,1195.07 1532.12,1198.93C1532.64,1197.37 1532.54,1195.89 1532.36,1194.42C1531.97,1191.26 1530.51,1188.52 1528.73,1185.99Z" style="fill:rgb(47,132,153);fill-rule:nonzero;"/>
        </g>
        <g transform="matrix(4.16667,0,0,4.16667,-6231.46,-4084.29)">
            <path d="M1566.68,1133.83C1564.39,1131.56 1562.53,1128.94 1560.49,1126.48C1557.09,1122.39 1551.28,1122.15 1546.62,1124.68L1547.18,1124.68C1552.98,1124.54 1557.23,1127.18 1560.29,1131.98C1561.32,1133.6 1562.57,1135.03 1564.05,1136.26C1565.85,1137.77 1567.87,1138.83 1570.17,1139.43C1568.71,1139.8 1567.34,1139.53 1566,1139.08C1562.74,1137.97 1560.49,1135.6 1558.58,1132.89C1556.98,1130.63 1555.25,1128.62 1552.55,1127.66C1550.83,1127.05 1549.1,1126.73 1547.27,1127.19C1549.15,1127.68 1550.49,1128.92 1551.67,1130.31C1553.07,1131.97 1554.42,1133.68 1555.74,1135.4C1557.29,1137.39 1558.71,1139.49 1560.87,1140.89C1565.61,1143.96 1571.65,1142.16 1575.67,1138.7C1575.52,1138.63 1575.4,1138.53 1575.27,1138.51C1571.87,1137.92 1569.11,1136.22 1566.68,1133.83Z" style="fill:rgb(47,132,153);fill-rule:nonzero;"/>
        </g>
        <g transform="matrix(4.16667,0,0,4.16667,-6231.46,-4084.29)">
            <path d="M1510.38,1139.63C1511.83,1138.31 1512.87,1136.66 1514.09,1135.15C1515.96,1132.84 1517.58,1130.32 1519.94,1128.44C1520.66,1127.85 1521.6,1127.68 1522.47,1127.12C1519.72,1126.62 1516.36,1127.57 1514.16,1129.31C1512.72,1130.45 1511.81,1132.01 1510.73,1133.43C1509.16,1135.49 1507.39,1137.3 1505.08,1138.52C1503.2,1139.51 1500.72,1139.88 1499.28,1139.36C1504.05,1138.32 1507.26,1135.37 1509.7,1131.46C1510.73,1129.81 1512.02,1128.45 1513.61,1127.36C1516.4,1125.44 1519.43,1124.29 1522.91,1124.61C1522.01,1123.99 1521.03,1123.71 1520.03,1123.48C1515.79,1122.48 1511.99,1123.06 1509.08,1126.66C1508,1127.99 1506.91,1129.32 1505.84,1130.66C1502.73,1134.55 1499.22,1137.84 1493.74,1138.61C1495.58,1140.14 1497.42,1141.11 1499.42,1141.78C1503.46,1143.14 1507.15,1142.58 1510.38,1139.63Z" style="fill:rgb(47,132,153);fill-rule:nonzero;"/>
        </g>
        <g transform="matrix(4.16667,0,0,4.16667,-6231.46,-4084.29)">
            <path d="M1554.74,1140.58C1558.05,1143.48 1561.36,1146.36 1563.57,1150.24C1565.81,1154.18 1566.85,1158.36 1566.02,1162.9C1565.71,1161.06 1565.28,1159.24 1564.7,1157.47C1563.14,1152.61 1560.46,1148.55 1556.17,1145.64C1555.39,1145.11 1555.11,1145.34 1554.95,1146.12C1554.68,1147.44 1554.6,1148.76 1554.81,1150.1C1555.32,1153.39 1556.81,1156.25 1558.74,1158.89C1559.74,1160.25 1560.75,1161.62 1562.16,1162.66C1561.03,1159.1 1559.7,1155.64 1558.29,1152.21C1564,1158.32 1564.56,1166.1 1565.36,1173.85C1565.67,1172.94 1566.01,1172.06 1566.29,1171.16C1567.86,1166.12 1569.2,1161.09 1568.74,1155.69C1568.06,1147.91 1561.56,1142.45 1554.74,1140.58Z" style="fill:rgb(47,132,153);fill-rule:nonzero;"/>
        </g>
        <g transform="matrix(4.16667,0,0,4.16667,-6231.46,-4084.29)">
            <path d="M1511.48,1152.19C1509.96,1155.66 1508.58,1159.18 1507.48,1162.82C1510.34,1159.89 1512.84,1156.73 1514.17,1152.78C1514.87,1150.69 1515.19,1148.56 1514.72,1146.37C1514.45,1145.14 1514.33,1145.08 1513.31,1145.79C1509.1,1148.72 1506.47,1152.77 1504.92,1157.59C1504.36,1159.34 1504.02,1161.14 1503.66,1162.94C1503.06,1159.85 1503.38,1156.85 1504.4,1153.93C1505.87,1149.71 1508.53,1146.32 1511.83,1143.39C1512.87,1142.47 1513.9,1141.55 1514.94,1140.63C1513.41,1140.79 1512.13,1141.47 1510.86,1142.13C1504.28,1145.55 1500.67,1150.82 1500.8,1158.37C1500.87,1162.65 1501.95,1166.74 1503.29,1170.77C1503.63,1171.81 1503.96,1172.85 1504.3,1173.89C1504.19,1171.99 1504.69,1170.2 1504.92,1168.39C1505.36,1164.95 1505.97,1161.54 1507.33,1158.31C1508.3,1155.99 1509.47,1153.81 1511.48,1152.19Z" style="fill:rgb(47,132,153);fill-rule:nonzero;"/>
        </g>
        <g transform="matrix(4.16667,0,0,4.16667,-6231.46,-4084.29)">
            <path d="M1561.94,1175.07C1562.18,1173.65 1562.62,1172.25 1562.48,1170.77C1562.15,1167.53 1560.79,1164.73 1558.64,1162.38C1555.19,1158.61 1553.52,1154.15 1553.02,1149.16C1552.99,1148.94 1553.06,1148.62 1552.69,1148.47C1552.1,1149.7 1551.76,1150.98 1551.73,1152.33C1551.65,1156.83 1553.45,1160.61 1556.25,1164.01C1556.88,1164.77 1557.69,1165.43 1557.98,1166.58C1554.01,1164.12 1553.06,1162.75 1550.87,1156.56C1549.67,1159.09 1550.14,1163.7 1552.5,1166.04C1553.78,1167.3 1555,1168.61 1556.2,1169.94C1557.58,1171.46 1558.43,1173.2 1558.35,1175.32C1558.33,1175.97 1558.41,1176.62 1558.53,1177.26C1559.02,1180.11 1560.44,1182.35 1563.01,1183.78C1561.59,1180.98 1561.42,1178.08 1561.94,1175.07Z" style="fill:rgb(47,132,153);fill-rule:nonzero;"/>
        </g>
        <g transform="matrix(4.16667,0,0,4.16667,-6231.46,-4084.29)">
            <path d="M1514.79,1168.45C1516.19,1167.06 1517.74,1165.78 1518.58,1163.92C1519.67,1161.49 1519.7,1159.03 1518.78,1156.52C1517.99,1160.89 1515.8,1164.24 1511.69,1166.53C1512.02,1165.54 1512.55,1165 1513.04,1164.43C1515.52,1161.63 1517.25,1158.44 1517.81,1154.72C1518.13,1152.58 1518.05,1150.44 1516.84,1148.3C1516.75,1148.81 1516.69,1149.1 1516.65,1149.4C1516.63,1149.58 1516.65,1149.78 1516.62,1149.97C1515.93,1154.45 1514.45,1158.56 1511.35,1162.03C1508.37,1165.36 1506.49,1169.15 1507.5,1173.83C1508.23,1177.2 1508.38,1180.54 1506.48,1183.87C1508.01,1183.28 1508.9,1182.27 1509.64,1181.13C1510.62,1179.6 1511.35,1177.89 1511.27,1176.08C1511.12,1172.87 1512.67,1170.56 1514.79,1168.45Z" style="fill:rgb(47,132,153);fill-rule:nonzero;"/>
        </g>
        <g transform="matrix(4.16667,0,0,4.16667,-6231.46,-4084.29)">
            <path d="M1542.26,1165.36C1542.55,1164.92 1542.55,1164.64 1541.91,1164.52C1539.28,1164.02 1537.05,1162.77 1535.24,1160.82C1534.91,1160.46 1534.71,1160.48 1534.42,1160.8C1532.49,1162.95 1530.03,1164.14 1527.12,1164.66C1527.94,1166.69 1529.48,1167.82 1531.09,1168.84C1532.28,1169.59 1533.6,1170.5 1534.99,1170.25C1538.06,1169.69 1540.52,1168 1542.26,1165.36Z" style="fill:rgb(47,132,153);fill-rule:nonzero;"/>
        </g>
        <g transform="matrix(4.16667,0,0,4.16667,-6231.46,-4084.29)">
            <path d="M1538.78,1184.2C1540.18,1181.84 1540.94,1179.34 1540.48,1176.57C1540.25,1175.2 1539.6,1174.12 1538.33,1173.33C1539.25,1178 1537.26,1181.74 1534.84,1185.42C1532.47,1181.99 1530.92,1178.4 1531.62,1174.16C1531.66,1173.9 1531.9,1173.53 1531.48,1173.37C1531.19,1173.26 1531.02,1173.53 1530.83,1173.73C1529.44,1175.22 1528.97,1177.02 1529.12,1179C1529.33,1181.61 1530.38,1183.91 1531.8,1186.08C1533.08,1188.03 1534.71,1189.82 1534.78,1192.5C1535.53,1191.83 1535.8,1191.1 1535.8,1190.36C1535.81,1188.82 1536.5,1187.59 1537.35,1186.4C1537.86,1185.69 1538.33,1184.95 1538.78,1184.2Z" style="fill:rgb(47,132,153);fill-rule:nonzero;"/>
        </g>
        <g transform="matrix(4.16667,0,0,4.16667,-6231.46,-4084.29)">
            <path d="M1534.14,1123.79C1535.19,1121.79 1535.76,1119.67 1536.01,1117.46C1536.36,1114.42 1537.9,1112.13 1540.33,1110.38C1540.98,1109.92 1541.7,1109.54 1542.38,1109.12C1539.52,1109.01 1536.83,1109.29 1535.06,1111.88C1532.73,1109.58 1530.8,1108.83 1528.4,1109.31C1533.22,1113.01 1535.33,1117.75 1534.14,1123.79Z" style="fill:rgb(47,132,153);fill-rule:nonzero;"/>
        </g>
        <g transform="matrix(4.16667,0,0,4.16667,-6231.46,-4084.29)">
            <path d="M1537.41,1125.97C1538.57,1121.97 1539.66,1118.03 1543.07,1115.4C1546.36,1112.85 1550.39,1112.31 1554.32,1111.49C1553.43,1111.23 1552.52,1111.19 1551.62,1111.22C1548.24,1111.33 1545.03,1112.13 1541.89,1113.55C1542.42,1112.72 1542.94,1111.89 1543.59,1110.88C1538.04,1113.58 1535.53,1120.61 1537.41,1125.97Z" style="fill:rgb(47,132,153);fill-rule:nonzero;"/>
        </g>
        <g transform="matrix(4.16667,0,0,4.16667,-6231.46,-4084.29)">
            <path d="M1525.98,1110.79C1526.66,1111.82 1527.22,1112.68 1527.78,1113.54C1525.75,1112.7 1523.75,1112.02 1521.66,1111.62C1518.93,1111.1 1516.59,1111.06 1515.11,1111.73C1524.41,1112.33 1530.6,1116.34 1532.19,1125.84C1534.1,1120.2 1531.46,1113.48 1525.98,1110.79Z" style="fill:rgb(47,132,153);fill-rule:nonzero;"/>
        </g>
        <g transform="matrix(4.16667,0,0,4.16667,-6231.46,-4084.29)">
            <path d="M1562.11,1125.69C1563.02,1126.77 1563.87,1127.9 1564.76,1128.99C1566.35,1130.95 1569.7,1132.15 1571.97,1131.59C1568.18,1130.23 1565.98,1127.11 1563.47,1124.13C1565.01,1123.56 1566.38,1123.86 1567.86,1124.06C1565.37,1121.69 1562.66,1121.29 1558.33,1122.59C1559.12,1123.11 1559.81,1123.49 1560.42,1123.99C1561.03,1124.5 1561.59,1125.08 1562.11,1125.69Z" style="fill:rgb(47,132,153);fill-rule:nonzero;"/>
        </g>
        <g transform="matrix(4.16667,0,0,4.16667,-6231.46,-4084.29)">
            <path d="M1504.99,1128.9C1506.88,1126.6 1508.45,1124 1511.41,1122.63C1506.97,1121.2 1503.88,1121.85 1501.97,1124.01C1503.37,1123.88 1504.71,1123.54 1506.18,1124.11C1503.79,1127.16 1501.48,1130.12 1497.66,1131.66C1500.66,1131.94 1503.26,1131 1504.99,1128.9Z" style="fill:rgb(47,132,153);fill-rule:nonzero;"/>
        </g>
        <g transform="matrix(4.16667,0,0,4.16667,-6231.46,-4084.29)">
            <path d="M1570.01,1145.07C1569.76,1144.75 1569.52,1144.3 1569.02,1144.46C1568.08,1144.75 1567.12,1144.83 1565.97,1144.93C1569.43,1147.92 1570.49,1151.9 1571.4,1155.98C1571.95,1154.5 1572.09,1153.01 1571.98,1151.51C1571.82,1149.22 1571.47,1146.97 1570.01,1145.07Z" style="fill:rgb(47,132,153);fill-rule:nonzero;"/>
        </g>
        <g transform="matrix(4.16667,0,0,4.16667,-6231.46,-4084.29)">
            <path d="M1503.68,1144.96C1502.73,1144.83 1501.88,1144.82 1501.11,1144.58C1500.35,1144.33 1499.96,1144.63 1499.59,1145.17C1497.32,1148.55 1497.54,1152.24 1498.2,1156.01C1499.19,1151.93 1500.19,1147.88 1503.68,1144.96Z" style="fill:rgb(47,132,153);fill-rule:nonzero;"/>
        </g>
        <g transform="matrix(4.16667,0,0,4.16667,-6231.46,-4084.29)">
            <path d="M1535.39,1180.59C1535.8,1179.44 1536.01,1178.24 1536.03,1177.01C1536.06,1175.06 1536.52,1173.22 1537.48,1171.37C1535.09,1172.15 1533.89,1173.75 1533.8,1175.95C1533.72,1177.97 1534.57,1179.88 1534.29,1182.08C1535.02,1181.65 1535.21,1181.11 1535.39,1180.59Z" style="fill:rgb(47,132,153);fill-rule:nonzero;"/>
        </g>
        <g transform="matrix(4.16667,0,0,4.16667,-6231.46,-4084.29)">
            <path d="M1528.15,1139.16C1529.29,1139.8 1530.3,1140.03 1531.55,1139.29C1530.35,1140.8 1530.65,1142.39 1530.89,1144.02C1531.02,1144.89 1531.02,1145.83 1530.56,1146.89C1530.13,1145.62 1530.08,1144.45 1529.64,1143.39C1529.37,1142.73 1529.06,1142.44 1528.29,1142.56C1527.47,1142.69 1526.62,1142.68 1525.79,1142.61C1524.24,1142.46 1522.96,1141.75 1522.48,1140.2C1522.14,1139.1 1521.74,1138.16 1520.53,1137.72C1523.23,1137.59 1525.81,1137.87 1528.15,1139.16ZM1542.96,1138.45C1544.38,1137.97 1545.87,1137.88 1547.32,1137.56L1549.15,1137.56C1548.09,1138.33 1547.48,1139.32 1547.01,1140.57C1546.34,1142.34 1544.62,1142.63 1542.92,1142.67C1542.62,1142.68 1542.31,1142.63 1542.01,1142.62C1540.16,1142.52 1540.16,1142.52 1539.77,1144.44C1539.32,1145.11 1539.42,1145.95 1539.05,1146.93C1538.68,1145.66 1538.54,1144.64 1538.78,1143.56C1539.05,1142.34 1539.32,1141.11 1538.41,1139.99C1538.26,1139.81 1538.23,1139.51 1538.05,1138.98C1540.09,1140.76 1541.41,1138.92 1542.96,1138.45ZM1516.26,1139.91C1515.79,1142.36 1516.08,1144.65 1518.08,1146.42C1519.4,1147.59 1520.83,1148.6 1522.58,1149.04C1522.84,1149.11 1523.12,1149.39 1523.47,1149.03C1523.04,1147.9 1522.61,1146.74 1522.18,1145.58C1523.93,1146.98 1524.87,1148.79 1525.28,1151.03C1523.9,1150.77 1522.67,1150.86 1521.63,1151.72C1520.32,1152.82 1520.36,1153.9 1521.63,1155.04C1522.87,1156.18 1524.26,1157.09 1525.76,1157.87C1524.09,1157.84 1522.58,1157.14 1520.95,1156.73C1521.06,1159.55 1523.42,1158.94 1525.07,1159.54C1524.36,1159.98 1523.77,1160.31 1523.11,1160.51C1522.74,1160.62 1522.6,1160.83 1522.93,1161.16C1524.31,1162.5 1525.75,1163.64 1527.88,1163.16C1529.28,1162.85 1530.58,1162.35 1531.69,1161.43C1534.48,1159.13 1534.23,1157.2 1530.98,1155.57C1529.33,1154.75 1528.8,1153.17 1528.17,1151.29C1531.12,1153.29 1533.98,1154.31 1537.25,1153.33C1537.66,1153.25 1538.1,1153.23 1538.45,1152.96C1538.85,1152.87 1539.23,1152.75 1539.52,1152.45C1540.1,1152.13 1540.69,1151.8 1541.38,1151.42C1540.9,1153.36 1540.15,1154.96 1538.29,1155.78C1537.68,1156.05 1537.2,1156.49 1536.75,1156.96C1535.85,1157.91 1535.77,1159.02 1536.62,1160.04C1537.18,1160.7 1537.79,1161.39 1538.53,1161.84C1541.53,1163.68 1544.1,1163.93 1546.48,1161.4C1547.11,1160.72 1546.8,1160.58 1546.21,1160.35C1545.68,1160.15 1545.05,1160.07 1544.72,1159.48C1545.65,1159.28 1546.5,1159.11 1547.35,1158.91C1548.05,1158.74 1548.48,1158.31 1548.58,1157.58C1548.62,1157.32 1548.86,1157.05 1548.63,1156.83C1548.39,1156.6 1548.14,1156.88 1547.9,1156.95C1546.59,1157.35 1545.32,1157.87 1543.91,1157.86C1545.59,1157.06 1547.08,1156.03 1548.39,1154.73C1549.17,1153.95 1549.2,1153.02 1548.49,1152.18C1547.6,1151.14 1546.44,1150.78 1545.1,1150.95C1544.76,1150.99 1544.4,1151.17 1544.43,1150.56C1544.49,1149.24 1546.3,1146.21 1547.44,1145.58C1547.13,1146.79 1546.42,1147.86 1546.3,1149.14C1548.38,1148.91 1551.16,1147.22 1552.43,1145.43C1552.97,1144.69 1553.45,1143.95 1553.51,1142.97C1553.8,1138.63 1552.07,1135.06 1549.39,1131.83C1545.81,1126.53 1540.89,1126.83 1534.8,1132.78C1534.55,1132.5 1534.29,1132.22 1534.05,1131.93C1532.37,1129.92 1530.27,1128.6 1527.65,1128.28C1526.06,1128.09 1524.25,1127.78 1523.01,1128.88C1519.66,1131.84 1517.13,1135.4 1516.26,1139.91Z" style="fill:rgb(47,132,153);fill-rule:nonzero;"/>
        </g>
        <g transform="matrix(4.16667,0,0,4.16667,-6231.46,-4084.29)">
            <path d="M1527.52,1141.03C1527.77,1140.85 1528.26,1140.67 1527.89,1140.28C1527.62,1139.99 1527.25,1139.54 1526.74,1139.93C1526.57,1140.06 1526.5,1140.3 1526.38,1140.49C1526.29,1140.43 1526.19,1140.38 1526.1,1140.32C1526.09,1139.78 1526.02,1139.31 1525.35,1139.26C1525.12,1139.25 1524.85,1139.16 1524.74,1139.4C1524.5,1139.9 1524.7,1140.35 1524.99,1140.77C1525.54,1141.55 1526.61,1141.66 1527.52,1141.03Z" style="fill:rgb(47,132,153);fill-rule:nonzero;"/>
        </g>
        <g transform="matrix(4.16667,0,0,4.16667,-6231.46,-4084.29)">
            <path d="M1542.41,1141.47C1543.24,1141.93 1544.25,1141.57 1544.8,1140.6C1544.95,1140.34 1545.3,1139.96 1544.8,1139.77C1544.43,1139.62 1543.9,1139.38 1543.61,1139.95C1543.52,1140.14 1543.56,1140.39 1543.54,1140.62C1543.43,1140.6 1543.32,1140.59 1543.2,1140.58C1542.97,1140.1 1542.7,1139.71 1542.07,1139.96C1541.86,1140.04 1541.58,1140.08 1541.58,1140.34C1541.59,1140.89 1541.96,1141.22 1542.41,1141.47Z" style="fill:rgb(47,132,153);fill-rule:nonzero;"/>
        </g>
        <g transform="matrix(4.16667,0,0,4.16667,-6231.46,-4084.29)">
            <path d="M1587.88,1144.35C1587.15,1149.82 1586.04,1155.19 1584.22,1160.39C1581.99,1166.75 1579.15,1172.8 1575.4,1178.44C1573.13,1181.86 1570.24,1184.55 1566.87,1186.77C1561.23,1190.49 1555.19,1193.56 1549.49,1197.2C1544.63,1200.29 1539.73,1203.32 1535.25,1206.97C1534.63,1207.47 1534.09,1207.52 1533.41,1206.99C1532.89,1206.59 1532.42,1206.11 1531.87,1205.73L1531.86,1205.72L1529.88,1204.44C1527.43,1202.37 1524.68,1200.72 1521.97,1199.03C1519.48,1197.47 1517,1195.92 1514.51,1194.37C1512.01,1192.83 1509.47,1191.36 1507.04,1189.71C1506.87,1189.6 1506.69,1189.48 1506.5,1189.44L1505.17,1188.75C1502.91,1187.26 1500.77,1185.61 1498.55,1184.07C1496.86,1182.9 1495.31,1181.59 1494.07,1179.87C1491.95,1176.92 1490.12,1173.81 1488.44,1170.59L1486.89,1167.49C1485.93,1165.03 1484.92,1162.6 1484.08,1160.1C1483.57,1158.55 1482.8,1155.79 1482.31,1153.97L1481.05,1148.3C1481.02,1148.04 1480.98,1147.78 1480.95,1147.53C1480.92,1147.2 1480.88,1146.87 1480.86,1146.54C1480.55,1141.67 1480.51,1136.81 1481.39,1131.97C1482.37,1126.66 1484.09,1121.75 1488.34,1118.06C1489.15,1117.36 1489.92,1116.96 1490.99,1116.99C1491.97,1117.03 1492.96,1117.08 1493.94,1116.89C1495.8,1116.76 1498.19,1116.47 1500.07,1115.83C1501.31,1115.52 1502.52,1115.15 1503.67,1114.59C1503.56,1114.86 1503.58,1115.15 1503.72,1115.46C1503.98,1116.06 1504.27,1116.63 1504.71,1117.13C1507.64,1120.52 1511.3,1122.2 1515.81,1122.06C1518.16,1121.98 1520.44,1122.44 1522.67,1123.16C1524.12,1123.63 1525.32,1124.49 1526.5,1125.4C1526.84,1125.66 1527.22,1125.94 1527.64,1125.61C1528.03,1125.3 1527.9,1124.85 1527.8,1124.44C1527.74,1124.22 1527.63,1124.02 1527.53,1123.81C1525.92,1120.65 1523.29,1118.91 1519.86,1118.24C1518,1117.88 1516.13,1118.05 1514.26,1118C1513.15,1117.97 1512.05,1117.83 1511.03,1117.65C1511.47,1117.68 1511.94,1117.68 1512.41,1117.69C1514.85,1117.75 1517.29,1117.54 1519.73,1117.92C1521.98,1118.27 1524.09,1118.91 1525.92,1120.39C1526.91,1121.2 1527.64,1122.21 1528.46,1123.16C1528.71,1123.45 1529.02,1123.8 1529.43,1123.57C1529.86,1123.32 1529.82,1122.87 1529.67,1122.44C1529.43,1121.79 1529.11,1121.18 1528.81,1120.57C1527.35,1117.58 1525.2,1115.35 1521.81,1114.7C1518.88,1114.14 1515.92,1113.92 1512.93,1114.26C1511.34,1114.44 1509.72,1114.42 1508.12,1114.25C1507.49,1114.18 1506.77,1114.26 1506.18,1113.88C1506.27,1113.49 1506.55,1113.41 1506.79,1113.3C1508.78,1112.4 1510.57,1111.17 1512.37,1109.96C1515.16,1108.08 1517.62,1105.76 1520.49,1104C1527.65,1099.6 1535.22,1098.97 1543.14,1101.55C1543.26,1101.59 1543.39,1101.63 1543.51,1101.68C1544.69,1102.14 1546.84,1103.25 1546.99,1103.33C1548.35,1104.12 1549.64,1105.02 1550.9,1105.97C1554.69,1108.81 1558.35,1111.82 1562.71,1113.79C1562.8,1113.84 1562.92,1113.91 1562.8,1114.06C1560.93,1114.47 1559,1114.49 1557.12,1114.26C1554.47,1113.93 1551.86,1114.22 1549.24,1114.42C1547.83,1114.53 1546.45,1114.9 1545.21,1115.62C1542.57,1117.17 1541.09,1119.62 1539.98,1122.36C1539.76,1122.91 1539.33,1123.64 1540.01,1124.01C1540.74,1124.4 1541.03,1123.57 1541.34,1123.09C1543.13,1120.33 1545.67,1118.77 1548.86,1118.12C1551.62,1117.57 1554.41,1117.71 1557.19,1117.69C1557.76,1117.68 1558.32,1117.7 1558.88,1117.64C1556.71,1118.01 1554.5,1118.02 1552.29,1118.01C1550.08,1118 1547.95,1118.46 1546.05,1119.62C1544.23,1120.72 1542.67,1122.11 1541.98,1124.23C1541.82,1124.71 1541.72,1125.24 1542.21,1125.6C1542.71,1125.96 1543.07,1125.49 1543.41,1125.23C1544.79,1124.18 1546.26,1123.37 1547.95,1122.88C1550.37,1122.19 1552.83,1122.13 1555.31,1122.01C1559.64,1121.79 1563.15,1119.89 1565.56,1116.23C1566.09,1115.42 1566.61,1115.25 1567.46,1115.55C1568.34,1115.85 1569.24,1116.08 1570.14,1116.27C1570.14,1116.27 1572.96,1117.23 1579.21,1117.11C1579.25,1117.11 1579.28,1117.12 1579.32,1117.12C1579.93,1117.2 1580.66,1118.05 1581.18,1118.77C1581.18,1118.78 1581.18,1118.79 1581.19,1118.8C1581.31,1119.2 1581.56,1119.51 1581.85,1119.79C1581.97,1119.91 1582.1,1120.02 1582.23,1120.13C1583.41,1121.14 1584.07,1122.44 1584.56,1123.87C1585.6,1126.91 1586.4,1130.01 1587.15,1133.13C1588.03,1136.83 1588.39,1140.54 1587.88,1144.35ZM1672.03,1088.83C1672.01,1088.53 1672.12,1088.14 1671.83,1087.99C1671.48,1087.81 1671.3,1088.21 1671.12,1088.42C1669.5,1090.26 1667.67,1091.88 1665.86,1093.52C1661.04,1097.85 1655.82,1101.57 1649.97,1104.43C1646.74,1106.02 1643.36,1107.18 1639.94,1108.26C1637.72,1108.57 1635.57,1109.28 1633.19,1109.27C1638.54,1103.82 1642.27,1097.42 1644.93,1090.31C1644.27,1090.22 1644.17,1090.67 1643.98,1090.97C1643.61,1091.54 1643.28,1092.15 1642.92,1092.73C1638.75,1099.28 1633.13,1104.38 1626.83,1108.8C1621.51,1112.54 1615.83,1115.67 1610.1,1118.71C1604.46,1121.68 1598.87,1124.73 1593.27,1127.79C1592.37,1128.28 1591.94,1128.01 1591.66,1127.15C1591.29,1126.07 1591.02,1124.95 1590.53,1123.91C1589.88,1122.54 1589.97,1122.12 1591.2,1121.18C1594.05,1119.01 1596.89,1116.8 1599.82,1114.74C1605.26,1110.92 1611.07,1107.69 1616.75,1104.26C1618.46,1103.23 1620.19,1102.24 1621.91,1101.23C1619.28,1106.21 1615.61,1110.34 1612.07,1114.56C1623.85,1106.42 1631.94,1095.72 1634.9,1081.48C1634.48,1081.85 1634.15,1082.29 1633.85,1082.75C1631.28,1086.61 1628.38,1090.17 1624.9,1093.26C1620.34,1097.32 1615.15,1100.45 1610.04,1103.74C1602.13,1108.82 1593.61,1113 1586.4,1119.17C1585.95,1119.55 1585.63,1119.52 1585.24,1119.1C1584.7,1118.52 1584.12,1117.97 1583.55,1117.41C1583.39,1117.25 1583.22,1117.08 1583.06,1116.92C1582.99,1116.71 1582.84,1116.56 1582.62,1116.49C1581.46,1114.81 1580.01,1114.11 1577.83,1114.14C1571.24,1114.23 1565.13,1112.43 1559.6,1108.75C1556.83,1106.91 1554.31,1104.76 1551.59,1102.86C1549.88,1101.66 1548.2,1100.41 1546.19,1099.73C1545.65,1099.49 1545.11,1099.26 1544.57,1099.02C1544.55,1099.02 1544.54,1099.03 1544.53,1099.02C1543.79,1098.73 1542.84,1098.37 1542.61,1098.4C1542.06,1098.22 1541.51,1098.03 1540.95,1097.92C1532.2,1096.27 1524.05,1097.51 1516.8,1103.02C1514.41,1104.84 1512,1106.65 1509.54,1108.39C1506.12,1110.82 1502.29,1112.39 1498.25,1113.45C1495.11,1114 1491.94,1114.29 1488.75,1114.21C1488.22,1114.2 1487.91,1114.48 1487.58,1114.81C1486.36,1116.07 1485.1,1117.29 1483.92,1118.59C1483.38,1119.17 1483.06,1119.15 1482.49,1118.62C1480.01,1116.35 1477.29,1114.39 1474.51,1112.52C1468.76,1108.64 1462.82,1105.04 1456.96,1101.34C1453.93,1099.27 1450.89,1097.2 1447.86,1095.12C1447.75,1095.02 1447.65,1094.9 1447.53,1094.81C1442.33,1090.95 1437.98,1086.31 1434.74,1080.67C1434.6,1080.43 1434.5,1080.09 1433.98,1080.19C1434.51,1082.42 1435.03,1084.63 1435.79,1086.78C1437.91,1092.73 1440.88,1098.18 1445.06,1102.93C1448.64,1107.35 1452.87,1111.04 1457.59,1114.18C1456.72,1113.07 1455.78,1112.04 1454.84,1111C1451.72,1107.57 1448.89,1103.9 1446.42,1099.98C1446.5,1099.73 1446.71,1099.78 1446.89,1099.77C1449.59,1101.54 1452.33,1103.24 1455.12,1104.84C1455.23,1104.95 1455.31,1105.09 1455.44,1105.17C1459.41,1107.62 1463.41,1110.04 1467.36,1112.53C1471.1,1114.88 1474.76,1117.35 1477.9,1120.51C1478.5,1121.11 1478.66,1121.66 1478.34,1122.44C1477.84,1123.71 1477.36,1125 1476.94,1126.3C1476.68,1127.1 1476.4,1127.3 1475.59,1126.84C1471.54,1124.57 1467.44,1122.4 1463.39,1120.12C1458.41,1117.33 1453.46,1114.47 1448.5,1111.64C1447.37,1110.93 1446.25,1110.2 1445.1,1109.51C1442.79,1108.12 1440.57,1106.58 1438.37,1105.02C1438.22,1104.85 1438.1,1104.65 1437.92,1104.52C1433.82,1101.33 1430.41,1097.5 1427.41,1093.29C1426.4,1091.88 1425.41,1090.45 1424.34,1088.94C1424.17,1089.55 1424.45,1089.91 1424.58,1090.29C1425.97,1094.37 1428.01,1098.09 1430.58,1101.54C1432.01,1103.46 1433.47,1105.37 1434.87,1107.32C1435.02,1107.52 1435.77,1107.85 1434.99,1108.25C1434.78,1108.23 1434.57,1108.2 1434.35,1108.17C1434.1,1108.1 1433.86,1108.02 1433.6,1107.96C1431.95,1107.56 1430.21,1107.51 1428.62,1106.82L1428.61,1106.82C1428.56,1106.79 1428.51,1106.77 1428.47,1106.76C1428.16,1106.65 1427.86,1106.53 1427.55,1106.44C1425.74,1105.89 1423.97,1105.24 1422.22,1104.51C1418.84,1102.89 1415.48,1101.24 1412.33,1099.19C1412.13,1099.01 1411.95,1098.81 1411.74,1098.66C1407.18,1095.63 1403.1,1092.02 1399.15,1088.25C1398.37,1087.5 1397.82,1086.51 1396.82,1085.93C1396.57,1087.18 1396.67,1088.09 1397.22,1089.32C1399.34,1094.08 1402.01,1098.51 1405.22,1102.61C1406.26,1103.96 1407.28,1105.35 1408.6,1106.45L1408.6,1106.46C1410.25,1108.52 1412.22,1110.26 1414.24,1111.93C1415.64,1113.08 1416.95,1114.39 1418.68,1115.1C1418.77,1115.22 1418.84,1115.37 1418.95,1115.46C1422.75,1118.08 1426.75,1120.33 1431.05,1122.04C1433.61,1123.31 1436.34,1124.11 1439.05,1124.95C1443.48,1126.32 1447.98,1127.35 1452.61,1127.85C1452.44,1127.68 1452.26,1127.54 1452.05,1127.47C1447.89,1126.09 1443.82,1124.47 1439.87,1122.57C1437.37,1121.36 1434.77,1120.33 1432.45,1118.76C1428.14,1116.02 1423.95,1113.12 1420.04,1109.83C1420.02,1109.47 1419.21,1109.42 1419.64,1108.87C1421.86,1109.48 1424.03,1110.27 1426.29,1110.71C1428.71,1111.47 1431.11,1112.34 1433.61,1112.8C1435.28,1113.35 1436.93,1113.9 1438.6,1114.44C1440.75,1115.13 1442.9,1115.82 1445.05,1116.5C1449.76,1118.27 1454.43,1120.13 1458.97,1122.3C1464.44,1124.93 1469.58,1128.15 1474.85,1131.13C1475.45,1131.47 1475.65,1131.99 1475.64,1132.66C1475.6,1134.69 1475.6,1136.71 1475.56,1138.73C1475.55,1139.31 1475.68,1139.91 1475.43,1140.56C1468.4,1137.14 1461.13,1134.63 1453.73,1132.5C1449.88,1131.4 1446.03,1130.35 1442.17,1129.27C1438.13,1128.06 1434.09,1126.85 1430.04,1125.66C1428.95,1125.34 1427.9,1124.85 1426.76,1124.71C1426.59,1124.62 1426.43,1124.51 1426.25,1124.45C1421.59,1122.94 1417.28,1120.79 1413.62,1117.47C1413.43,1117.3 1413.2,1117 1412.94,1117.17C1412.58,1117.41 1412.9,1117.72 1413,1117.98C1414.03,1120.54 1415.36,1122.94 1416.94,1125.19C1419.1,1128.26 1421.62,1130.99 1424.68,1133.19C1428.08,1136.06 1431.95,1138.11 1436.09,1139.69C1438.38,1140.76 1440.83,1141.27 1443.24,1141.91C1449.1,1143.61 1455.02,1143.71 1461.01,1142.76C1455.61,1141.49 1449.99,1141.29 1444.87,1138.91C1442.78,1137.69 1440.7,1136.44 1439.08,1134.51C1439.52,1134.28 1439.82,1134.35 1440.12,1134.4C1442.55,1134.83 1444.98,1135.29 1447.41,1135.72C1456.47,1137.32 1465.14,1140.11 1473.5,1143.94C1474.49,1144.39 1475.08,1145.06 1475.34,1146.1C1475.63,1147.24 1475.73,1148.43 1476.21,1149.52C1476.48,1150.66 1476.71,1151.8 1477.02,1152.92C1477.74,1155.5 1478.65,1158 1479.68,1160.46C1481.2,1164.07 1482.74,1167.67 1484.79,1171.02C1484.94,1171.33 1485.09,1171.63 1485.25,1171.94C1487.19,1175.66 1489.5,1179.17 1491.91,1182.6C1492.63,1183.64 1492.63,1184.56 1492.15,1185.69C1490.24,1190.2 1487.04,1193.48 1482.75,1195.77C1482.39,1195.97 1481.9,1196.05 1481.72,1196.65C1483.18,1196.78 1484.3,1196.06 1485.42,1195.49C1489.4,1193.45 1492.34,1190.29 1494.75,1186.59C1495.2,1185.91 1495.41,1185.62 1496.22,1186.31C1497.69,1187.54 1499.13,1188.87 1500.94,1189.64C1501.06,1189.85 1501.26,1189.95 1501.48,1190.01C1501.95,1190.43 1502.41,1190.87 1503.06,1191C1503.31,1191.17 1503.54,1191.37 1503.8,1191.52C1513.39,1197.02 1522.95,1202.55 1531.74,1209.31C1532.42,1209.92 1533.12,1210.51 1533.78,1211.14C1534.16,1211.49 1534.42,1211.53 1534.83,1211.15C1538.35,1207.91 1542.31,1205.24 1546.33,1202.67C1551.34,1199.46 1556.36,1196.27 1561.65,1193.52C1564.69,1191.94 1567.75,1190.36 1570.47,1188.25C1572.48,1186.7 1572.45,1186.69 1573.92,1188.78C1576.56,1192.52 1579.79,1195.58 1584.11,1197.34C1584.61,1197.54 1585.12,1197.76 1585.77,1197.57C1585.17,1196.76 1584.38,1196.43 1583.68,1196C1579.99,1193.77 1577.41,1190.63 1575.67,1186.7C1575.11,1185.43 1575.25,1184.44 1576,1183.3C1578.54,1179.49 1581.1,1175.71 1583.33,1171.71C1587.68,1163.9 1591.22,1155.79 1593,1146.99C1593.17,1146.15 1593.63,1145.55 1594.47,1145.24C1595.37,1144.91 1596.25,1144.55 1597.13,1144.18C1603.68,1141.4 1610.38,1139.14 1617.36,1137.67C1620.45,1137.01 1623.6,1136.69 1626.69,1135.99C1627.55,1136.2 1628.4,1135.49 1629.39,1135.9C1629.17,1136.15 1629.05,1136.34 1628.88,1136.49C1624.33,1140.49 1618.93,1142.45 1612.98,1143.05C1611.11,1143.24 1609.24,1143.4 1607.19,1143.59C1608.13,1144.26 1608.26,1144.34 1609.1,1144.43C1612.45,1144.8 1615.8,1144.83 1619.15,1144.46C1625,1143.8 1630.53,1142.1 1635.88,1139.63C1644.9,1135.47 1651.41,1128.89 1655.51,1119.88C1655.64,1119.6 1656.01,1119.22 1655.67,1118.96C1655.26,1118.64 1655.01,1119.15 1654.74,1119.37C1652.48,1121.27 1650.02,1122.86 1647.34,1124.1C1643.2,1126.01 1638.76,1127.03 1634.42,1128.35C1631.53,1129.23 1628.62,1130.05 1625.71,1130.9C1625.38,1130.94 1625.02,1130.92 1624.7,1131.01C1619.85,1132.38 1614.99,1133.68 1610.18,1135.15C1604.81,1136.78 1599.54,1138.71 1594.41,1140.97C1593.09,1141.55 1593.02,1141.48 1593.01,1140.05C1592.99,1138.14 1593.05,1136.23 1592.93,1134.32C1592.86,1133.07 1593.36,1132.31 1594.39,1131.74C1598.03,1129.72 1601.6,1127.58 1605.3,1125.68C1611.28,1122.61 1617.59,1120.32 1623.9,1118.01C1628.27,1116.4 1632.73,1115.1 1637.17,1113.72C1641.23,1112.63 1645.28,1111.55 1649.34,1110.46C1649.38,1110.58 1649.43,1110.69 1649.47,1110.8C1644.6,1115.08 1639.22,1118.62 1633.47,1121.62C1627.73,1124.61 1621.7,1126.87 1615.49,1128.9C1615.77,1129.24 1615.96,1129.16 1616.14,1129.13C1622.31,1128.42 1628.29,1126.96 1634.13,1124.87C1643.37,1121.54 1651.66,1116.7 1658.67,1109.75C1663.77,1104.7 1667.82,1098.92 1671.07,1092.55C1671.66,1091.38 1672.13,1090.17 1672.03,1088.83Z" style="fill:rgb(47,132,153);fill-rule:nonzero;"/>
        </g>
    </g>
</svg>
