<svg height="1240pt" preserveAspectRatio="xMidYMid meet" viewBox="0 0 1240 1240" width="1240pt" xmlns="http://www.w3.org/2000/svg"><g transform="matrix(.1 0 0 -.1 0 1240)"><path d="m6185 9421c-77-19-127-82-127-161 1-75 29-118 100-154 17-9 32-20 32-25s-15-18-34-29c-38-23-72-80-56-96 15-15 12-66-3-66-8 0-22 8-31 19-9 10-52 36-94 57-77 39-77 39-197 39-102-1-128-4-174-23-56-24-95-50-137-91-25-25-25-25-133 4-60 16-96 16-221 4-8-1-22-7-30-14s-26-15-40-17c-14-1-29-13-35-25-5-12-20-25-33-28-14-3-29-18-35-35-6-16-21-33-34-39-15-7-23-19-23-34 0-13-9-32-19-41-17-16-32-78-30-131 1-65 5-101 10-110 4-5 10-24 13-41 4-18 16-40 26-49 11-10 18-21 15-25-6-10 71-90 87-90 9-1 7-5-5-14-16-12-14-16 22-49 21-19 54-38 72-42 43-9 62-26 84-75 16-36 17-45 5-80-13-40-13-41 22-78 20-20 41-47 47-59 16-31 14-90-5-129-9-19-14-38-10-41 3-3 77 1 163 10 87 9 291 24 453 33 251 14 342 14 613 5 284-11 542-27 726-47l64-7-8 24c-14 44-17 118-6 152 7 19 28 49 47 67 25 22 33 37 28 48-28 69-28 67 3 118 24 40 35 50 61 52 18 2 37 11 44 21s28 26 46 35c33 17 41 31 20 38-7 3 4 19 25 39 48 46 90 113 105 169 22 81 16 228-10 257-8 10-23 33-32 51-10 18-24 36-32 39-7 3-14 12-14 19 0 8-16 24-35 35-20 12-40 30-46 40-5 11-19 19-31 19-11 0-26 7-32 15-8 11-40 17-113 21-91 6-109 4-164-15-64-24-109-22-109 4 0 9-12 21-27 28-16 6-32 17-36 24s-17 13-29 13c-11 0-26 7-32 16-19 25-166 46-247 35-77-10-162-46-219-91-21-16-41-30-45-30s-5 20-2 45c8 55-19 108-64 124-35 12-37 28-5 41 40 15 94 69 106 106 27 81-14 168-95 205-43 20-54 21-100 10zm-293-552c29-6 55-15 58-19s35-26 72-49c78-49 88-70 90-195 2-67-1-77-25-106-32-38-33-54-7-115 27-62 25-97-5-134-60-71-200-107-300-77-117 35-123 38-150 92-23 44-25 56-16 94 7 32 6 51-4 74-22 50-45 167-45 225 0 96 59 165 178 207 46 16 86 17 154 3zm874-30c63-31 71-39 97-91 34-72 34-100-2-241-19-73-29-135-28-172 2-56 1-58-44-99-128-116-346-97-433 37-22 32-16 65 20 112 32 42 30 64-6 110-29 36-30 42-30 135 0 83 3 101 21 124 21 27 125 89 188 113 56 21 137 10 217-28zm-1402-92c0-28-4-60-8-70-5-11-4-23 3-30 6-6 11-30 11-54 0-32 5-45 20-53 11-6 18-15 15-20s0-36 6-69c10-48 10-65 0-84-11-21-9-27 20-60 18-20 39-37 46-37 20 0 15-51-10-95-32-57-95-90-172-90-72 0-128 27-133 65-2 14-15 37-28 53-17 20-24 41-24 71 0 34-8 53-40 96-51 68-63 107-58 183 10 151 118 247 278 247h75zm1898 37c61-20 118-70 148-130 19-39 25-64 25-120 0-69-1-73-53-150-45-67-53-84-48-112 4-27-2-42-30-80-61-83-81-100-127-107-91-14-191 44-215 123-15 50-15 62 1 62 7 0 29 17 50 38 27 28 34 41 27 52-16 25-11 91 11 150 11 30 20 66 20 80-1 14 4 35 11 48 9 18 9 28 1 42-11 16-9 70 3 108 5 18 120 16 176-4zm-992-617c22-18 49-38 62-44 13-5 43-20 68-31l45-22-225 1c-124 0-214 4-200 8 44 14 105 49 149 85 24 20 47 36 53 36 5 0 27-15 48-33zm-665-27c14-5 30-21 35-34 5-14 21-31 36-39 25-13 20-14-72-21-55-3-112-9-129-11-24-4-26-4-10 4 27 12 71 61 80 89 7 24 20 27 60 12zm1306-46c13-15 38-35 54-46 29-19 29-20 5-14-14 3-68 10-120 16-88 10-127 19-84 20 10 1 39 12 64 25s48 24 51 25c3 0 16-12 30-26zm-446-144c296-16 570-45 630-67 40-15 51-24 53-44 2-14-5-36-15-48l-18-22-125 20c-69 11-183 26-255 32-177 17-852 17-1020 0-135-13-361-46-388-57-18-7-37 23-37 59 0 50 46 69 227 92 430 54 516 58 948 35z"/><path d="m2270 8101c0-22 71-252 99-323 145-365 409-696 756-948 33-24 53-35 44-24-8 10-58 69-110 129-148 172-304 385-297 405 2 6 82-39 178-99s272-169 390-242c369-228 507-324 633-441 32-30 47-53 46-69-1-43-65-204-82-207-30-6-994 536-1272 714-277 178-457 348-652 617-59 81-109 144-111 139-4-13 49-146 94-235 49-97 104-180 229-348 58-78 103-145 100-149-9-14-231 39-361 85-357 130-688 345-1015 662-64 62-119 113-123 113-3 0-6-20-6-44 0-83 155-367 321-586 133-175 378-412 511-493 19-12 69-44 109-71 157-105 399-221 599-288 197-66 441-126 580-142 70-9 54 2-74 48-126 46-351 144-491 213-210 104-689 442-663 468 2 3 45-7 94-21s150-43 224-64 155-44 180-50c83-21 524-168 640-213 158-62 334-139 465-204 169-85 547-302 573-330 21-23 22-32 22-176 0-84-4-157-8-164-5-9-35 1-107 33-226 103-503 200-840 294-294 82-882 255-975 287-182 62-348 150-461 244-47 39-69 48-69 29 0-20 93-196 145-275 167-253 444-466 780-598 117-47 373-112 499-128 101-12 345-7 416 9 30 7 19 11-95 31-338 60-445 93-565 171-92 61-164 130-135 130 68 0 508-91 704-145 217-60 581-197 652-246 33-23 39-40 83-214 48-189 83-294 156-465 102-240 243-499 392-723 43-64 81-130 84-146 18-86-145-316-291-412-22-14-60-39-85-55-40-25-42-29-22-32 30-5 139 47 216 102 82 58 177 155 239 244 28 39 56 72 63 72s37-20 67-44c55-45 224-155 332-216 412-232 914-559 1068-697 57-50 48-53 167 47 178 149 627 435 980 625 166 89 219 120 311 187 37 26 75 48 86 48s42-32 83-86c108-143 236-250 360-301 102-42 102-21 0 44-126 80-222 187-289 320-52 104-47 125 71 300 277 415 488 868 568 1225 12 54 29 107 38 117 35 41 507 214 766 281 236 61 614 126 631 108 14-14-149-127-249-174-139-64-247-87-550-119-57-7-58-7-35-23 36-26 348-30 495-7 257 39 505 123 716 241 274 154 480 370 622 652 48 95 47 125-2 80-85-79-236-167-377-222-86-33-703-217-775-231-19-4-154-41-300-82-312-88-586-179-797-265-84-34-155-60-157-57-3 2-6 74-7 159-2 119 0 160 11 177 25 39 508 301 716 389 219 92 612 234 844 306 214 65 630 176 635 168 5-7-131-119-240-196-262-186-561-334-969-480-131-47-125-53 29-30 240 37 571 135 795 235 455 204 810 506 1083 922 42 63 100 163 131 223 47 92 56 117 56 162 0 30-3 54-8 54-4 0-48-41-97-91-413-417-919-691-1372-742-18-2-33-2-33 0s31 39 69 83c131 152 252 348 335 544 68 157 56 155-56-14-216-325-533-585-1084-888-503-277-856-463-871-460-22 4-84 169-81 213 3 25 24 45 153 143 218 165 377 270 713 471 307 184 362 215 362 206s-81-137-123-194c-22-31-77-100-121-155-45-54-90-110-101-124-11-15 25 8 80 50 327 249 565 562 698 918 39 106 81 254 75 271-2 6-23-18-48-52-125-181-282-350-445-479-112-88-431-296-750-490-319-193-449-278-567-371-49-38-94-69-101-69s-51 38-97 85c-56 56-98 90-125 99-22 8-92 18-155 21-283 16-494 94-739 274-347 255-383 276-551 331-128 42-233 54-411 47-157-6-228-19-352-65-116-44-185-87-423-263-221-164-307-211-486-270-97-31-287-59-408-59h-75l-95-95c-52-52-98-95-102-95s-44 31-90 68c-146 120-352 259-758 512-224 140-527 348-625 430-135 113-287 279-366 399-67 101-89 127-89 102zm4010-771c254-27 377-83 680-309 139-104 207-149 288-190 106-54 98-56-203-52-197 3-321-10-391-40-69-29-163-129-207-221-40-83-45-113-22-121 9-4 30 14 59 51 110 139 241 193 461 190l110-1-135-7c-154-8-217-27-299-88-61-47-93-85-115-141-13-33-14-46-5-57 16-20 20-18 80 22 104 70 173 90 364 104 246 18 356 68 461 211 42 58 47 59 181 23 74-19 133-27 242-31l143-6 29-31c129-142 146-170 190-314 136-443 143-673 30-1118-107-422-341-891-549-1101-112-114-200-172-687-458-207-122-513-320-642-417-59-44-118-85-130-91-25-11-12-19-183 108-99 73-672 439-945 602-127 77-307 207-383 278-166 154-388 575-497 943-85 287-97 357-102 595-6 232 3 347 39 496 42 181 103 308 198 414 66 73 112 97 187 97 126 1 279 30 454 86 12 4 18-3 22-23 8-40 90-129 161-175 88-57 168-78 331-88 168-10 272-39 357-100 31-22 63-40 71-40 68 0-24 160-131 229-75 48-133 62-287 70l-140 8 125 1c212 3 303-30 424-150 43-43 83-78 88-78 34 0 13 69-55 177-100 161-199 194-581 192-215-1-266 3-266 20 0 3 28 22 63 40 86 47 210 132 352 241 195 149 385 231 578 249 45 5 84 9 87 9 3 1 48-3 100-8z"/><path d="m5992 6973c-8-3 11-30 55-77 112-118 153-218 153-376 1-78 2-83 15-60 13 24 30 89 55 215 23 112 81 197 182 266l63 42-78-7c-86-6-139-28-183-75l-28-30-33 30c-60 52-161 89-201 72z"/><path d="m5880 6905c0-4 14-26 30-51 17-24 29-44 26-44s-28 9-55 19c-114 45-283 75-362 65-58-8-65-24-11-24 59 0 197-37 275-73 164-77 263-205 320-412l14-50 12 59c32 148-26 323-146 437-48 45-103 85-103 74z"/><path d="m6512 6880c-83-51-162-164-196-279-22-76-20-261 3-261 4 0 17 35 30 77 59 191 150 308 287 373 62 30 271 89 318 91 19 0 19 1-4 10-59 25-288-16-434-76-16-7-15-2 9 38 15 26 25 47 23 47-1 0-18-9-36-20z"/><path d="m5039 6467c-20-8-52-25-70-38l-34-24 78-3c42-2 77-6 77-9s-19-30-41-60c-56-72-159-166-222-204l-52-31 66 5c98 7 158 42 239 142 78 96 141 160 183 185l31 19-30 12c-46 18-183 22-225 6z"/><path d="m7198 6468c-27-5-48-14-48-18 0-5 15-18 33-29 34-21 100-88 195-199 61-71 123-107 204-120 80-12 87-3 24 32-31 17-76 50-101 74-65 63-155 167-155 181 0 7 26 11 76 11 86 0 88 8 11 47-59 30-160 39-239 21z"/><path d="m5384 6416c-74-24-133-75-253-219-196-236-298-317-451-356l-73-18 47-32c125-86 281-131 388-112 75 13 149 48 206 97 24 20 89 95 144 168 147 189 193 240 257 283 83 55 83 56 6 49-156-13-242-64-348-203-147-194-259-273-397-280-62-3-71-1-50 8 197 89 265 143 362 287 61 90 111 141 184 188 99 63 188 93 284 95 27 1 47 5 45 9-23 37-270 63-351 36z"/><path d="m6780 6411c-99-31-100-37-13-44 85-7 173-33 237-71 72-43 125-96 216-216 111-147 187-211 317-266l58-25-70 5c-135 9-240 79-366 242-115 149-180 200-294 230-53 14-127 18-138 8-4-4 11-15 32-26 56-27 97-71 246-258 175-219 217-257 329-296 86-31 253-13 351 38 42 22 125 80 125 88 0 4-24 14-52 20-71 17-170 69-243 129-58 48-109 105-252 281-75 92-140 142-217 165-67 20-197 18-266-4z"/><path d="m5795 6225c-49-17-139-110-204-210-94-143-130-329-83-421 28-55 101-120 175-155 62-29 87-35 87-21 0 4-9 31-20 61-12 29-19 55-17 58 14 14 89-107 101-163l7-31-56-5c-46-4-62-10-87-35-57-57-34-104 89-186 34-22 61-43 59-45-3-2-39 6-82 18-42 11-79 18-82 16-2-3-2-16 2-30 7-30 32-45 101-61l50-11-43-23c-24-12-42-27-39-34 7-23 87-76 124-83 74-14 192 33 251 101 60 68 53 113-28 172-77 56-107 89-123 138-9 25-13 45-9 43s37-18 74-36c95-46 159-56 248-38 39 8 96 30 127 47l56 32-7-29c-12-48-40-87-86-121-127-92-140-131-68-209 62-67 128-98 209-99 57 0 71 4 108 29 23 16 47 38 52 48 8 16 5 21-25 33-53 22-51 32 8 45 64 13 83 26 92 63 7 32 8 32-81 7-94-27-109-25-55 7 71 41 140 103 146 130 14 56-37 105-120 113-48 5-51 7-47 30 6 47 80 170 102 170 5 0 0-23-11-50-28-70-26-80 8-71 93 28 195 104 232 176 36 71 22 209-34 330-25 55-127 197-172 239-86 81-187 92-306 33-40-20-101-59-136-87l-63-51-60 55c-33 31-77 65-97 75-80 41-206 58-267 36zm975-363c0-5-9-17-21-28-12-10-34-44-50-75-36-71-69-89-171-89-40 0-80-4-87-9-8-5-25-42-36-82-20-67-22-71-29-44-4 16-4 66-1 111 6 66 4 87-10 113-9 18-15 35-13 37 3 2 18-2 36-8 28-11 38-9 90 16 88 42 292 82 292 58zm-948-13c29-6 84-25 122-41 51-22 78-29 103-25 30 5 34 4 26-11-4-9-9-62-9-117-2-139-3-147-12-141-5 3-14 31-21 63-19 85-29 93-120 93-106 0-137 17-178 98-17 35-40 70-50 78-16 12-12 13 34 14 29 0 76-5 105-11z"/><path d="m6573 5783c-7-3-13-11-13-19 0-17-5-17-29-2-10 6-26 8-36 4-16-6-16-8-3-29 18-25 71-35 94-16 29 24 36 47 17 57-10 5-24 7-30 5z"/><path d="m5824 5785c-4-8 1-26 10-40 19-29 70-34 102-11 18 14 18 16 2 32-17 17-18 17-37 0-20-18-21-18-30 8-11 28-38 35-47 11z"/><path d="m5323 5706c-209-101-335-228-401-408-25-68-26-84-27-243 0-159 2-178 32-295 18-69 45-163 61-210l29-85 7 50c44 310 79 458 138 582 32 68 112 183 127 183 6 0-8-44-31-97-22-54-56-143-74-197l-34-100 31 30c100 93 216 292 245 422 16 73 13 180-6 212-14 23-53-4-150-100-125-125-203-272-249-469-11-46-23-86-26-89s-5 40-5 95c0 269 126 485 435 745 24 21-38 5-102-26z"/><path d="m7128 5625c66-64 143-149 171-189 61-89 117-214 136-304 15-69 20-214 8-225-3-4-16 32-28 81-64 250-185 442-348 550-51 34-61 22-65-77-5-96 14-177 67-286 52-108 211-317 211-278 0 14-60 184-104 296-39 99-28 98 39-3 102-154 154-325 186-619 6-64 15-107 19-100 14 25 59 172 84 274 52 212 58 404 18 533-55 175-215 344-400 422-118 49-118 46 6-75z"/><path d="m7504 5585-62-10 42-46c55-61 98-144 131-254 39-130 36-123 47-95 6 14 8 76 5 143-4 111-6 122-41 191-20 41-42 76-49 78-6 2-40-1-73-7z"/><path d="m4827 5549c-41-71-57-143-56-248 1-53 4-107 8-121 6-22 9-19 20 27 34 139 93 262 157 326 20 20 35 39 33 41-3 3-34 8-71 12l-66 7z"/><path d="m5501 5363c-31-185-86-308-208-462-141-179-176-296-142-477 6-32 12-99 12-149 0-74-4-101-25-152-14-35-23-63-21-63 19 0 78 49 104 86 47 68 61 110 75 227 17 137 37 175 173 320 117 126 141 175 141 290 0 110-20 158-34 83-12-65-77-177-137-237-56-56-119-99-119-81 0 5 29 46 65 92 126 159 191 351 165 490-6 36-17 75-24 88-11 20-13 15-25-55z"/><path d="m6902 5397c-20-55-25-150-13-223 22-124 77-228 205-388 16-20 26-39 23-42-9-9-89 50-130 95-46 51-67 91-129 251-7 20-11 21-18 10-17-27-22-115-11-175 17-91 43-133 161-259 118-127 150-185 150-271 0-62 19-142 45-195 24-47 81-112 115-130 18-10 18-8-2 48-28 81-33 180-14 290 20 115 20 162 1 237-21 83-58 152-123 232-129 160-182 269-216 446-11 59-23 107-26 107s-11-15-18-33z"/><path d="m6170 4925c-37-39-156-100-212-110-43-8-43-7-24-43 20-38 80-93 151-138 54-35 67-39 125-39 89 0 163 36 241 115 73 75 75 94 13 109-64 16-130 51-189 100-27 23-54 41-60 41s-26-16-45-35z"/><path d="m5694 4895c-35-97-66-157-139-265-102-152-125-211-132-343-11-203 30-295 239-530 50-56 106-123 125-149 19-27 37-48 39-48 9 0-10 89-32 149-21 56-72 139-216 349-66 97-71 181-22 330 29 87 148 302 167 302 4 0 18-21 30-47 19-41 22-65 22-168-1-66-5-178-10-250l-8-130-26 55c-24 52-26 65-26 207 0 83-3 149-6 147-4-2-18-33-32-68-53-131-60-272-17-355 12-24 67-93 123-153 208-224 281-316 312-393 7-16 16-39 20-50 15-38 24 56 14 145-12 103-46 186-133 329-86 142-100 188-92 299 19 260 19 268-3 339-24 80-96 209-151 273-35 41-39 43-46 25z"/><path d="m6703 4877c-17-18-51-63-75-102-97-153-119-254-93-431 24-170 9-239-87-387-63-99-104-188-123-270-16-66-19-169-6-202 7-17 10-14 21 20 23 73 117 198 278 373 184 198 197 221 197 347 0 61-7 99-28 160-52 151-56 149-55-20 1-154-8-203-47-258-15-21-16-20-9 18 3 23-2 113-11 201-18 177-13 246 25 330l20 48 51-80c108-169 149-275 149-384 0-94-22-147-113-272-41-57-94-139-118-182-68-126-87-252-25-172 14 19 83 99 151 178 171 195 209 278 208 463 0 152-30 237-133 376-62 83-116 185-126 238-9 44-16 45-51 8z"/><path d="m6275 4517c-46-26-82-75-91-125-9-45 16-263 29-255 20 12 39 80 52 188 8 61 23 135 34 163 12 29 20 52 18 52-1 0-20-10-42-23z"/><path d="m6048 4428c-84-113-66-274 50-456 88-140 95-153 107-199 6-24 15-45 21-46 10-2 29 54 38 114 4 20 34 81 68 135 34 55 73 127 85 162 41 114 26 251-34 305-20 18-20 17-25-85-4-73-12-119-27-158-26-63-101-200-111-200-12 0-66 95-96 166-24 59-29 84-31 179-1 60-7 111-12 113s-20-12-33-30z"/><path d="m4605 7992c-38-24-50-39-64-84-17-53 2-109 55-162l43-42-49-42c-61-52-84-54-100-7-6 19-25 46-41 60-27 22-40 25-110 25-48 0-79-4-79-10 0-24 41-89 75-118 30-27 57-38 87-33 4 0 25 3 47 7 49 8 51-1 21-68-11-25-25-69-31-99-23-106-109-151-178-93-39 32-43 82-9 114 26 24 46 25 76 4 38-26 24-61-31-78-10-3-15-10-12-16 10-17 54-11 75 10 47 47 6 130-65 130-87 0-128-112-67-181 33-37 102-50 152-29 17 7 32 11 34 9 7-7-26-92-46-120-11-15-35-35-54-45-33-18-34-18-61 2-22 17-29 32-35 75-5 45-12 59-39 82-51 42-69 37-69-18 0-53 21-101 48-109 10-4 30-18 43-33l24-26-39 7c-48 9-122 45-164 81-25 21-30 32-26 54 14 67-59 143-150 158-35 6-36 5-36-29 0-95 51-178 109-178 29 0 128-57 117-67-3-3-16-11-28-17-33-17-68-74-68-113 0-78 58-128 129-112 58 13 86 67 65 124-9 22-61 47-83 40-31-9-56-44-43-57 9-9 16-7 30 5 33 30 72 15 72-28 0-54-73-73-115-30-64 63 5 167 101 151 121-19 180-19 220 2 21 11 51 33 65 49 24 26 31 39 59 116l10 29 30-25c60-51 140-47 189 9 70 79 14 198-85 180-18-4-40-17-49-29-16-22-20-74-7-93 8-13 46-34 61-34 21 0 11 27-14 38-50 23-11 104 41 86 84-30 65-146-26-160-41-7-95 24-119 68-30 52 22 207 95 288 39 43 121 90 158 90 18 0 18-2-4-25-13-14-29-25-35-25-36 0-91-118-66-143 31-31 117 42 127 109 3 23 14 50 24 59 46 42 155 1 238-89 44-49 82-119 70-131-4-4-37 16-98 61-31 23-41 25-93 19-111-12-135-40-79-92 71-66 144-79 199-37 29 22 39 25 58 16 14-6 34-30 45-53 29-55 45-40 29 27-24 99-68 174-150 256l-78 77 13 40c17 47 7 104-22 134-28 27-49 16-62-33-10-39-4-65 38-142 5-9-197 2-235 13-18 6-46 26-63 45-25 28-30 43-30 83 0 43 4 52 35 80 47 41 86 41 126 2 35-36 37-64 4-96-31-31-46-31-75 0-28 30-40 32-40 6 0-23 45-61 71-61 33 0 67 22 85 55 15 29 16 39 6 74-7 22-24 49-39 60-33 26-97 27-138 3z"/><path d="m7712 7980c-56-34-69-109-28-157 32-37 99-39 127-4 21 26 25 51 8 51-6 0-20-11-31-25-24-30-37-31-72-4-33 26-33 59-2 95 33 39 85 38 125 0 39-37 46-78 22-131-29-66-55-78-190-86-64-4-118-6-120-4s7 20 19 41c25 40 28 81 9 126-15 37-36 33-66-11-26-38-29-69-11-117 12-33 11-34-65-113-42-44-87-101-100-128-23-45-57-148-57-172s27-9 43 24c26 55 55 63 111 30 59-34 90-30 163 26 40 30 53 46 51 62-4 26-58 45-130 46-41 1-54-4-85-33-35-31-83-55-83-41 0 3 11 27 24 53 48 93 156 171 237 172 46 0 65-22 74-82 8-52 23-70 77-92 41-18 48-14 48 28-1 43-21 75-65 105-84 57-36 68 55 13 81-50 142-158 156-277 6-52 5-56-29-90-44-44-100-49-142-12-53 45-26 137 39 137 30 0 46-18 46-52 0-21-6-31-25-38-32-12-32-30-1-30 27 0 66 42 66 71 0 9-12 31-26 48-56 67-164 17-164-76 0-34 30-82 62-99 39-22 109-17 150 11 20 14 39 25 41 25s9-17 15-37c19-63 63-122 108-143 49-24 97-27 190-10 59 11 76 10 99-1 38-18 69-72 61-104-15-59-84-86-119-47-44 49 7 109 55 66 16-16 18-15 24 1 16 41-70 61-106 25-22-22-26-70-10-101 16-28 67-51 99-44 39 8 81 55 87 97 8 44-14 88-62 125l-36 27 33 28c18 15 44 28 56 28 40 0 91 27 106 57 24 46 42 142 29 155s-55 0-118-37c-45-26-64-65-64-127 0-29-45-69-122-109-36-19-88-26-88-12 0 4 23 28 50 53 44 41 50 51 50 87 0 55-17 68-59 42-36-22-65-80-55-111 8-25-31-68-61-68-12 0-34 9-48 20-27 21-77 113-77 141 0 15 4 15 41 3 54-19 102-9 139 28 24 24 30 38 30 75 0 114-155 146-176 36-5-26-1-37 20-58 16-16 35-25 48-23 33 5 32 25-1 31-37 8-50 41-25 68 24 26 69 25 88-3 34-49 11-108-49-128-30-10-41-9-73 7-35 17-39 25-75 128-52 152-54 141 25 137 77-4 91 2 143 71 63 82 42 107-74 88-72-12-91-25-116-81-11-25-25-40-36-40-9 0-39 19-65 43l-48 44 42 37c89 81 77 210-24 252-45 19-73 17-112-6z"/><path d="m2239 5568c191-276 503-478 825-533 93-16 279-19 356-6 51 9 50 10-79 46-101 28-260 94-301 125-24 18-24 19-5 26 80 29 263 113 330 151 89 50 217 135 212 140-2 1-35-6-73-17-197-57-515-72-739-36-129 21-333 72-459 115-50 17-91 31-93 31s9-19 26-42z"/><path d="m10090 5529c-160-58-375-107-564-130-181-22-455 0-640 52-38 10-71 17-73 16-5-6 120-92 203-140 44-26 137-72 205-102s124-58 124-62c0-25-203-110-345-144l-95-23 45-13c62-18 256-17 365 2 279 49 468 148 684 358 71 70 161 180 161 198 0 12-6 11-70-12z"/><path d="m3740 5057c-127-85-311-161-473-196-117-25-305-36-404-24-40 5-73 7-73 3 0-19 101-94 200-148 190-104 512-164 614-115l35 16-101 51c-56 28-104 56-105 62-2 7 31 36 74 66 90 63 204 179 251 256 17 28 28 52 24 52s-23-10-42-23z"/><path d="m8580 5035c0-3 18-33 41-66 55-81 172-196 253-250 38-25 65-50 64-58-3-16-4-17-121-73-98-47-97-52 7-67 192-27 563 79 703 202 72 63 73 62-140 63-177 0-201 2-302 28-164 42-320 108-450 191-30 20-55 33-55 30z"/><path d="m3914 4621c-192-146-474-311-664-390l-55-22 46-19c94-38 197-54 349-53 161 1 259 17 350 59 47 22 52 27 35 34-11 5-38 9-60 9-46 1-155 27-169 41-6 6 13 34 46 72 97 111 231 318 216 333-2 2-44-27-94-64z"/><path d="m8360 4645c0-36 131-240 223-348 28-32 46-62 41-66s-67-16-138-26c-145-21-148-28-27-66 123-38 244-51 401-46 144 6 204 17 271 53l34 18-40 15c-76 29-293 139-383 195-109 68-234 159-319 233-44 38-63 50-63 38z"/><path d="m4170 4174c-128-132-295-236-488-304l-92-33 32-24c60-43 150-65 299-70 105-4 154-2 210 11 78 17 157 55 150 71-2 6-36 15-75 22-86 15-146 38-146 58 0 7 19 35 42 62 42 49 100 162 113 221 3 17 5 32 3 32s-24-21-48-46z"/><path d="m8154 4139c11-56 59-150 108-213 38-50 45-63 34-74-15-15-98-38-173-48-67-8-65-22 10-52 158-63 333-75 483-33 87 24 148 55 142 72-2 6-35 21-74 33-157 50-315 147-455 279-39 37-73 67-76 67s-3-14 1-31z"/></g></svg>