<svg enable-background="new 0 0 32 32" viewBox="0 0 32 32" xmlns="http://www.w3.org/2000/svg"><path d="m31 17v7c0 .55-.45 1-1 1h-10c-.55 0-1-.45-1-1v-12c0-.55.45-1 1-1h6c.3 0 .59.14.78.38l4 4.99c.05.07.1.15.14.23v.01s0 0 0 .01c.06.12.08.25.08.38z" fill="#48b1dd"/><path d="m21 6v19h-13c-.55 0-1-.45-1-1v-18c0-.55.45-1 1-1h12c.55 0 1 .45 1 1z" fill="#96cee5"/><path d="m31 17v.01l-6-.01v-6h1c.3 0 .59.14.78.38l4 4.99c.05.07.1.15.14.23v.01s0 0 0 .01c.06.12.08.25.08.38z" fill="#96cee5"/><g fill="#4391b2"><path d="m28 24c0 1.65-1.35 3-3 3s-3-1.35-3-3 1.35-3 3-3 3 1.35 3 3z"/><path d="m17 24c0 1.65-1.35 3-3 3s-3-1.35-3-3 1.35-3 3-3 3 1.35 3 3z"/><path d="m13 11h-11c-.5522 0-1-.4473-1-1s.4478-1 1-1h11c.5522 0 1 .4473 1 1s-.4478 1-1 1z"/><path d="m14 18h-9c-.5522 0-1-.4473-1-1s.4478-1 1-1h9c.5522 0 1 .4473 1 1s-.4478 1-1 1z"/></g></svg>