<svg enable-background="new 0 0 32 32" viewBox="0 0 32 32" xmlns="http://www.w3.org/2000/svg"><path d="m24 6v6c0 .55-.45 1-1 1h-6c-.55 0-1-.45-1-1v-6c0-.55.45-1 1-1h6c.55 0 1 .45 1 1z" fill="#48b1dd"/><path d="m27 12v7c0 .55-.45 1-1 1h-12c-.55 0-1-.45-1-1v-7c0-.55.45-1 1-1h12c.55 0 1 .45 1 1z" fill="#96cee5"/><path d="m30 24c0 1.65-1.35 3-3 3s-3-1.35-3-3 1.35-3 3-3 3 1.35 3 3z" fill="#48b1dd"/><path d="m16 24c0 1.65-1.35 3-3 3s-3-1.35-3-3 1.35-3 3-3 3 1.35 3 3z" fill="#48b1dd"/><g fill="#4391b2"><path d="m30 20h-21c-.4658 0-.8701-.3213-.9746-.7754l-2.8213-12.2246h-3.2041c-.5527 0-1-.4473-1-1s.4473-1 1-1h4c.4658 0 .8701.3213.9746.7754l2.8213 12.2246h20.2041c.5527 0 1 .4473 1 1s-.4473 1-1 1z"/><path d="m21 5v3c0 .55-.45 1-1 1s-1-.45-1-1v-3z"/><path d="m21 11v3c0 .55-.45 1-1 1s-1-.45-1-1v-3z"/></g></svg>