<svg enable-background="new 0 0 32 32" viewBox="0 0 32 32" xmlns="http://www.w3.org/2000/svg"><path d="m8 8h-3c-.5522 0-1-.4473-1-1s.4478-1 1-1h3c.5522 0 1 .4473 1 1s-.4478 1-1 1z" fill="#96cee5"/><path d="m27 8h-3c-.5527 0-1-.4473-1-1s.4473-1 1-1h3c.5527 0 1 .4473 1 1s-.4473 1-1 1z" fill="#96cee5"/><path d="m13 26v3c0 1.1-.9 2-2 2h-4c-1.1 0-2-.9-2-2v-3c0-.55.45-1 1-1h6c.55 0 1 .45 1 1z" fill="#4391b2"/><path d="m27 26v3c0 1.1-.9 2-2 2h-4c-1.1 0-2-.9-2-2v-3c0-.55.45-1 1-1h6c.55 0 1 .45 1 1z" fill="#4391b2"/><path d="m25 4v14c0 .55-.45 1-1 1h-16c-.55 0-1-.45-1-1v-14c0-1.65 1.35-3 3-3h12c1.65 0 3 1.35 3 3z" fill="#48b1dd"/><path d="m30 19v6c0 1.1-.9 2-2 2h-24c-1.1 0-2-.9-2-2v-6c0-1.1.9-2 2-2h24c1.1 0 2 .9 2 2z" fill="#96cee5"/><g fill="#4391b2"><path d="m9 23h-3c-.5522 0-1-.4473-1-1s.4478-1 1-1h3c.5522 0 1 .4473 1 1s-.4478 1-1 1z"/><path d="m26 23h-3c-.5527 0-1-.4473-1-1s.4473-1 1-1h3c.5527 0 1 .4473 1 1s-.4473 1-1 1z"/><path d="m20 16v6c0 .55-.45 1-1 1h-6c-.55 0-1-.45-1-1v-6c0-1.65 1.35-3 3-3h2c1.65 0 3 1.35 3 3z"/></g><path d="m7 4h18v7h-18z" fill="#96cee5"/><path d="m7 4h18v7h-18z" fill="#4391b2"/><path d="m6 7v6c0 .55-.45 1-1 1h-3c-.55 0-1-.45-1-1v-6c0-.55.45-1 1-1h3c.55 0 1 .45 1 1z" fill="#96cee5"/><path d="m31 7v6c0 .55-.45 1-1 1h-3c-.55 0-1-.45-1-1v-6c0-.55.45-1 1-1h3c.55 0 1 .45 1 1z" fill="#96cee5"/></svg>